<?xml version="1.0" encoding="utf-8" standalone="no"?>
<!DOCTYPE svg PUBLIC "-//W3C//DTD SVG 1.1//EN"
  "http://www.w3.org/Graphics/SVG/1.1/DTD/svg11.dtd">
<svg xmlns:xlink="http://www.w3.org/1999/xlink" width="598.4875pt" height="428.76615pt" viewBox="0 0 598.4875 428.76615" xmlns="http://www.w3.org/2000/svg" version="1.1">
 <metadata>
  <rdf:RDF xmlns:dc="http://purl.org/dc/elements/1.1/" xmlns:cc="http://creativecommons.org/ns#" xmlns:rdf="http://www.w3.org/1999/02/22-rdf-syntax-ns#">
   <cc:Work>
    <dc:type rdf:resource="http://purl.org/dc/dcmitype/StillImage"/>
    <dc:date>2024-12-26T14:07:33.704617</dc:date>
    <dc:format>image/svg+xml</dc:format>
    <dc:creator>
     <cc:Agent>
      <dc:title>Matplotlib v3.9.1, https://matplotlib.org/</dc:title>
     </cc:Agent>
    </dc:creator>
   </cc:Work>
  </rdf:RDF>
 </metadata>
 <defs>
  <style type="text/css">*{stroke-linejoin: round; stroke-linecap: butt}</style>
 </defs>
 <g id="figure_1">
  <g id="patch_1">
   <path d="M 0 428.76615 
L 598.4875 428.76615 
L 598.4875 0 
L 0 0 
z
" style="fill: #ffffff"/>
  </g>
  <g id="axes_1">
   <g id="patch_2">
    <path d="M 33.2875 354.958125 
L 591.2875 354.958125 
L 591.2875 22.318125 
L 33.2875 22.318125 
z
" style="fill: #ffffff"/>
   </g>
   <g id="PolyCollection_1">
    <defs>
     <path id="mf13329125b" d="M 59.660634 -280.100439 
L 59.660634 -120.210784 
L 61.048694 -120.210784 
L 62.436754 -186.252163 
L 63.824813 -175.824577 
L 65.212873 -186.252163 
L 66.600933 -127.162508 
L 67.988993 -151.493542 
L 69.377052 -137.590094 
L 70.765112 -144.541818 
L 72.153172 -137.590094 
L 73.541231 -179.300439 
L 74.929291 -172.348715 
L 76.317351 -154.969404 
L 77.70541 -134.114232 
L 79.09347 -95.879749 
L 80.48153 -127.162508 
L 81.86959 -137.590094 
L 83.257649 -165.396991 
L 84.645709 -179.300439 
L 86.033769 -154.969404 
L 87.421828 -151.493542 
L 88.809888 -193.203887 
L 90.197948 -182.776301 
L 91.586007 -137.590094 
L 92.974067 -193.203887 
L 94.362127 -200.155611 
L 95.750187 -189.728025 
L 97.138246 -137.590094 
L 98.526306 -172.348715 
L 99.914366 -151.493542 
L 101.302425 -123.686646 
L 102.690485 -123.686646 
L 104.078545 -151.493542 
L 105.466604 -141.065956 
L 106.854664 -151.493542 
L 108.242724 -161.921128 
L 109.630784 -116.734922 
L 111.018843 -134.114232 
L 112.406903 -148.01768 
L 113.794963 -151.493542 
L 115.183022 -175.824577 
L 116.571082 -134.114232 
L 117.959142 -127.162508 
L 119.347201 -120.210784 
L 120.735261 -116.734922 
L 122.123321 -88.928025 
L 123.511381 -102.831473 
L 124.89944 -120.210784 
L 126.2875 -120.210784 
L 127.67556 -165.396991 
L 129.063619 -186.252163 
L 130.451679 -196.679749 
L 131.839739 -161.921128 
L 133.227799 -137.590094 
L 134.615858 -134.114232 
L 136.003918 -141.065956 
L 137.391978 -151.493542 
L 138.780037 -137.590094 
L 140.168097 -137.590094 
L 141.556157 -179.300439 
L 142.944216 -158.445266 
L 144.332276 -165.396991 
L 145.720336 -165.396991 
L 147.108396 -148.01768 
L 148.496455 -168.872853 
L 149.884515 -196.679749 
L 151.272575 -217.534922 
L 152.660634 -193.203887 
L 154.048694 -196.679749 
L 155.436754 -231.43837 
L 156.824813 -214.059059 
L 158.212873 -203.631473 
L 159.600933 -238.390094 
L 160.988993 -241.865956 
L 162.377052 -221.010784 
L 163.765112 -221.010784 
L 165.153172 -207.107335 
L 166.541231 -193.203887 
L 167.929291 -214.059059 
L 169.317351 -203.631473 
L 170.70541 -200.155611 
L 172.09347 -231.43837 
L 173.48153 -221.010784 
L 174.86959 -234.914232 
L 176.257649 -245.341818 
L 177.645709 -238.390094 
L 179.033769 -241.865956 
L 180.421828 -252.293542 
L 181.809888 -255.769404 
L 183.197948 -255.769404 
L 184.586007 -210.583197 
L 185.974067 -221.010784 
L 187.362127 -252.293542 
L 188.750187 -241.865956 
L 190.138246 -193.203887 
L 191.526306 -234.914232 
L 192.914366 -207.107335 
L 194.302425 -196.679749 
L 195.690485 -224.486646 
L 197.078545 -234.914232 
L 198.466604 -252.293542 
L 199.854664 -252.293542 
L 201.242724 -252.293542 
L 202.630784 -227.962508 
L 204.018843 -234.914232 
L 205.406903 -227.962508 
L 206.794963 -245.341818 
L 208.183022 -231.43837 
L 209.571082 -224.486646 
L 210.959142 -255.769404 
L 212.347201 -248.81768 
L 213.735261 -231.43837 
L 215.123321 -234.914232 
L 216.511381 -238.390094 
L 217.89944 -248.81768 
L 219.2875 -266.196991 
L 220.67556 -273.148715 
L 222.063619 -283.576301 
L 223.451679 -231.43837 
L 224.839739 -269.672853 
L 226.227799 -259.245266 
L 227.615858 -259.245266 
L 229.003918 -238.390094 
L 230.391978 -273.148715 
L 231.780037 -266.196991 
L 233.168097 -280.100439 
L 234.556157 -276.624577 
L 235.944216 -297.479749 
L 237.332276 -266.196991 
L 238.720336 -276.624577 
L 240.108396 -245.341818 
L 241.496455 -241.865956 
L 242.884515 -245.341818 
L 244.272575 -245.341818 
L 245.660634 -269.672853 
L 247.048694 -262.721128 
L 248.436754 -283.576301 
L 249.824813 -287.052163 
L 251.212873 -283.576301 
L 252.600933 -252.293542 
L 253.988993 -294.003887 
L 255.377052 -266.196991 
L 256.765112 -273.148715 
L 258.153172 -262.721128 
L 259.541231 -294.003887 
L 260.929291 -280.100439 
L 262.317351 -276.624577 
L 263.70541 -262.721128 
L 265.09347 -297.479749 
L 266.48153 -304.431473 
L 267.86959 -304.431473 
L 269.257649 -297.479749 
L 270.645709 -297.479749 
L 272.033769 -300.955611 
L 273.421828 -259.245266 
L 274.809888 -294.003887 
L 276.197948 -294.003887 
L 277.586007 -314.859059 
L 278.974067 -318.334922 
L 280.362127 -318.334922 
L 281.750187 -307.907335 
L 283.138246 -318.334922 
L 284.526306 -287.052163 
L 285.914366 -321.810784 
L 287.302425 -321.810784 
L 288.690485 -314.859059 
L 290.078545 -318.334922 
L 291.466604 -290.528025 
L 292.854664 -311.383197 
L 294.242724 -314.859059 
L 295.630784 -290.528025 
L 297.018843 -294.003887 
L 298.406903 -311.383197 
L 299.794963 -311.383197 
L 301.183022 -318.334922 
L 302.571082 -297.479749 
L 303.959142 -314.859059 
L 305.347201 -304.431473 
L 306.735261 -318.334922 
L 308.123321 -314.859059 
L 309.511381 -311.383197 
L 310.89944 -311.383197 
L 312.2875 -318.334922 
L 313.67556 -318.334922 
L 315.063619 -318.334922 
L 316.451679 -297.479749 
L 317.839739 -300.955611 
L 319.227799 -314.859059 
L 320.615858 -304.431473 
L 322.003918 -314.859059 
L 323.391978 -283.576301 
L 324.780037 -325.286646 
L 326.168097 -321.810784 
L 327.556157 -311.383197 
L 328.944216 -318.334922 
L 330.332276 -321.810784 
L 331.720336 -325.286646 
L 333.108396 -325.286646 
L 334.496455 -328.762508 
L 335.884515 -283.576301 
L 337.272575 -307.907335 
L 338.660634 -318.334922 
L 340.048694 -318.334922 
L 341.436754 -325.286646 
L 342.824813 -294.003887 
L 344.212873 -318.334922 
L 345.600933 -314.859059 
L 346.988993 -318.334922 
L 348.377052 -307.907335 
L 349.765112 -311.383197 
L 351.153172 -335.714232 
L 352.541231 -335.714232 
L 353.929291 -339.190094 
L 355.317351 -325.286646 
L 356.70541 -294.003887 
L 358.09347 -321.810784 
L 359.48153 -314.859059 
L 360.86959 -290.528025 
L 362.257649 -318.334922 
L 363.645709 -304.431473 
L 365.033769 -332.23837 
L 366.421828 -335.714232 
L 367.809888 -335.714232 
L 369.197948 -335.714232 
L 370.586007 -328.762508 
L 371.974067 -332.23837 
L 373.362127 -307.907335 
L 374.750187 -280.100439 
L 376.138246 -290.528025 
L 377.526306 -300.955611 
L 378.914366 -318.334922 
L 380.302425 -332.23837 
L 381.690485 -294.003887 
L 383.078545 -290.528025 
L 384.466604 -328.762508 
L 385.854664 -321.810784 
L 387.242724 -332.23837 
L 388.630784 -321.810784 
L 390.018843 -280.100439 
L 391.406903 -273.148715 
L 392.794963 -304.431473 
L 394.183022 -318.334922 
L 395.571082 -297.479749 
L 396.959142 -321.810784 
L 398.347201 -332.23837 
L 399.735261 -311.383197 
L 401.123321 -321.810784 
L 402.511381 -297.479749 
L 403.89944 -318.334922 
L 405.2875 -311.383197 
L 406.67556 -300.955611 
L 408.063619 -304.431473 
L 409.451679 -283.576301 
L 410.839739 -248.81768 
L 412.227799 -304.431473 
L 413.615858 -311.383197 
L 415.003918 -241.865956 
L 416.391978 -280.100439 
L 417.780037 -307.907335 
L 419.168097 -307.907335 
L 420.556157 -307.907335 
L 421.944216 -314.859059 
L 423.332276 -304.431473 
L 424.720336 -307.907335 
L 426.108396 -262.721128 
L 427.496455 -269.672853 
L 428.884515 -276.624577 
L 430.272575 -287.052163 
L 431.660634 -300.955611 
L 433.048694 -273.148715 
L 434.436754 -287.052163 
L 435.824813 -290.528025 
L 437.212873 -280.100439 
L 438.600933 -290.528025 
L 439.988993 -290.528025 
L 441.377052 -300.955611 
L 442.765112 -300.955611 
L 444.153172 -287.052163 
L 445.541231 -290.528025 
L 446.929291 -311.383197 
L 448.317351 -276.624577 
L 449.70541 -290.528025 
L 451.09347 -294.003887 
L 452.48153 -280.100439 
L 453.86959 -262.721128 
L 455.257649 -231.43837 
L 456.645709 -276.624577 
L 458.033769 -280.100439 
L 459.421828 -273.148715 
L 460.809888 -193.203887 
L 462.197948 -217.534922 
L 463.586007 -224.486646 
L 464.974067 -238.390094 
L 466.362127 -245.341818 
L 467.750187 -266.196991 
L 469.138246 -238.390094 
L 470.526306 -245.341818 
L 471.914366 -227.962508 
L 473.302425 -221.010784 
L 474.690485 -266.196991 
L 476.078545 -168.872853 
L 477.466604 -224.486646 
L 478.854664 -217.534922 
L 480.242724 -179.300439 
L 481.630784 -207.107335 
L 483.018843 -217.534922 
L 484.406903 -241.865956 
L 485.794963 -238.390094 
L 487.183022 -217.534922 
L 488.571082 -214.059059 
L 489.959142 -224.486646 
L 491.347201 -227.962508 
L 492.735261 -186.252163 
L 494.123321 -207.107335 
L 495.511381 -196.679749 
L 496.89944 -203.631473 
L 498.2875 -168.872853 
L 499.67556 -154.969404 
L 501.063619 -165.396991 
L 502.451679 -172.348715 
L 503.839739 -182.776301 
L 505.227799 -189.728025 
L 506.615858 -200.155611 
L 508.003918 -175.824577 
L 509.391978 -172.348715 
L 510.780037 -165.396991 
L 512.168097 -196.679749 
L 513.556157 -214.059059 
L 514.944216 -238.390094 
L 516.332276 -221.010784 
L 517.720336 -203.631473 
L 519.108396 -186.252163 
L 520.496455 -165.396991 
L 521.884515 -172.348715 
L 523.272575 -200.155611 
L 524.660634 -196.679749 
L 526.048694 -179.300439 
L 527.436754 -200.155611 
L 528.824813 -193.203887 
L 530.212873 -196.679749 
L 531.600933 -165.396991 
L 532.988993 -172.348715 
L 534.377052 -175.824577 
L 535.765112 -168.872853 
L 537.153172 -196.679749 
L 538.541231 -210.583197 
L 539.929291 -224.486646 
L 541.317351 -207.107335 
L 542.70541 -186.252163 
L 544.09347 -200.155611 
L 545.48153 -196.679749 
L 546.86959 -193.203887 
L 548.257649 -137.590094 
L 549.645709 -165.396991 
L 551.033769 -189.728025 
L 552.421828 -175.824577 
L 553.809888 -214.059059 
L 555.197948 -116.734922 
L 556.586007 -144.541818 
L 557.974067 -186.252163 
L 559.362127 -186.252163 
L 560.750187 -151.493542 
L 562.138246 -172.348715 
L 563.526306 -172.348715 
L 564.914366 -158.445266 
L 566.302425 -154.969404 
L 566.302425 -297.479749 
L 566.302425 -297.479749 
L 564.914366 -297.479749 
L 563.526306 -297.479749 
L 562.138246 -304.431473 
L 560.750187 -290.528025 
L 559.362127 -304.431473 
L 557.974067 -294.003887 
L 556.586007 -287.052163 
L 555.197948 -294.003887 
L 553.809888 -283.576301 
L 552.421828 -280.100439 
L 551.033769 -276.624577 
L 549.645709 -259.245266 
L 548.257649 -259.245266 
L 546.86959 -287.052163 
L 545.48153 -294.003887 
L 544.09347 -294.003887 
L 542.70541 -287.052163 
L 541.317351 -287.052163 
L 539.929291 -269.672853 
L 538.541231 -290.528025 
L 537.153172 -304.431473 
L 535.765112 -304.431473 
L 534.377052 -290.528025 
L 532.988993 -294.003887 
L 531.600933 -294.003887 
L 530.212873 -283.576301 
L 528.824813 -304.431473 
L 527.436754 -273.148715 
L 526.048694 -283.576301 
L 524.660634 -287.052163 
L 523.272575 -311.383197 
L 521.884515 -300.955611 
L 520.496455 -290.528025 
L 519.108396 -290.528025 
L 517.720336 -280.100439 
L 516.332276 -307.907335 
L 514.944216 -304.431473 
L 513.556157 -294.003887 
L 512.168097 -297.479749 
L 510.780037 -290.528025 
L 509.391978 -300.955611 
L 508.003918 -304.431473 
L 506.615858 -300.955611 
L 505.227799 -307.907335 
L 503.839739 -311.383197 
L 502.451679 -311.383197 
L 501.063619 -318.334922 
L 499.67556 -314.859059 
L 498.2875 -304.431473 
L 496.89944 -311.383197 
L 495.511381 -311.383197 
L 494.123321 -307.907335 
L 492.735261 -318.334922 
L 491.347201 -318.334922 
L 489.959142 -311.383197 
L 488.571082 -318.334922 
L 487.183022 -314.859059 
L 485.794963 -318.334922 
L 484.406903 -314.859059 
L 483.018843 -325.286646 
L 481.630784 -307.907335 
L 480.242724 -328.762508 
L 478.854664 -321.810784 
L 477.466604 -325.286646 
L 476.078545 -328.762508 
L 474.690485 -328.762508 
L 473.302425 -321.810784 
L 471.914366 -321.810784 
L 470.526306 -321.810784 
L 469.138246 -321.810784 
L 467.750187 -339.190094 
L 466.362127 -349.61768 
L 464.974067 -346.141818 
L 463.586007 -328.762508 
L 462.197948 -332.23837 
L 460.809888 -328.762508 
L 459.421828 -349.61768 
L 458.033769 -349.61768 
L 456.645709 -353.093542 
L 455.257649 -346.141818 
L 453.86959 -342.665956 
L 452.48153 -346.141818 
L 451.09347 -339.190094 
L 449.70541 -335.714232 
L 448.317351 -339.190094 
L 446.929291 -342.665956 
L 445.541231 -342.665956 
L 444.153172 -356.569404 
L 442.765112 -346.141818 
L 441.377052 -342.665956 
L 439.988993 -346.141818 
L 438.600933 -346.141818 
L 437.212873 -346.141818 
L 435.824813 -342.665956 
L 434.436754 -346.141818 
L 433.048694 -346.141818 
L 431.660634 -353.093542 
L 430.272575 -366.996991 
L 428.884515 -360.045266 
L 427.496455 -356.569404 
L 426.108396 -349.61768 
L 424.720336 -356.569404 
L 423.332276 -353.093542 
L 421.944216 -356.569404 
L 420.556157 -346.141818 
L 419.168097 -353.093542 
L 417.780037 -353.093542 
L 416.391978 -356.569404 
L 415.003918 -349.61768 
L 413.615858 -349.61768 
L 412.227799 -353.093542 
L 410.839739 -356.569404 
L 409.451679 -370.472853 
L 408.063619 -380.900439 
L 406.67556 -377.424577 
L 405.2875 -366.996991 
L 403.89944 -373.948715 
L 402.511381 -366.996991 
L 401.123321 -363.521128 
L 399.735261 -363.521128 
L 398.347201 -360.045266 
L 396.959142 -366.996991 
L 395.571082 -360.045266 
L 394.183022 -370.472853 
L 392.794963 -373.948715 
L 391.406903 -391.328025 
L 390.018843 -377.424577 
L 388.630784 -380.900439 
L 387.242724 -377.424577 
L 385.854664 -366.996991 
L 384.466604 -373.948715 
L 383.078545 -384.376301 
L 381.690485 -380.900439 
L 380.302425 -377.424577 
L 378.914366 -380.900439 
L 377.526306 -387.852163 
L 376.138246 -373.948715 
L 374.750187 -373.948715 
L 373.362127 -380.900439 
L 371.974067 -377.424577 
L 370.586007 -377.424577 
L 369.197948 -380.900439 
L 367.809888 -380.900439 
L 366.421828 -384.376301 
L 365.033769 -377.424577 
L 363.645709 -377.424577 
L 362.257649 -373.948715 
L 360.86959 -377.424577 
L 359.48153 -373.948715 
L 358.09347 -370.472853 
L 356.70541 -373.948715 
L 355.317351 -366.996991 
L 353.929291 -370.472853 
L 352.541231 -373.948715 
L 351.153172 -377.424577 
L 349.765112 -363.521128 
L 348.377052 -363.521128 
L 346.988993 -360.045266 
L 345.600933 -363.521128 
L 344.212873 -363.521128 
L 342.824813 -387.852163 
L 341.436754 -373.948715 
L 340.048694 -366.996991 
L 338.660634 -370.472853 
L 337.272575 -370.472853 
L 335.884515 -366.996991 
L 334.496455 -366.996991 
L 333.108396 -366.996991 
L 331.720336 -370.472853 
L 330.332276 -366.996991 
L 328.944216 -370.472853 
L 327.556157 -377.424577 
L 326.168097 -377.424577 
L 324.780037 -377.424577 
L 323.391978 -370.472853 
L 322.003918 -360.045266 
L 320.615858 -360.045266 
L 319.227799 -360.045266 
L 317.839739 -356.569404 
L 316.451679 -353.093542 
L 315.063619 -363.521128 
L 313.67556 -360.045266 
L 312.2875 -366.996991 
L 310.89944 -356.569404 
L 309.511381 -353.093542 
L 308.123321 -356.569404 
L 306.735261 -360.045266 
L 305.347201 -360.045266 
L 303.959142 -360.045266 
L 302.571082 -360.045266 
L 301.183022 -363.521128 
L 299.794963 -353.093542 
L 298.406903 -363.521128 
L 297.018843 -363.521128 
L 295.630784 -360.045266 
L 294.242724 -363.521128 
L 292.854664 -356.569404 
L 291.466604 -360.045266 
L 290.078545 -349.61768 
L 288.690485 -353.093542 
L 287.302425 -356.569404 
L 285.914366 -366.996991 
L 284.526306 -363.521128 
L 283.138246 -356.569404 
L 281.750187 -349.61768 
L 280.362127 -353.093542 
L 278.974067 -356.569404 
L 277.586007 -360.045266 
L 276.197948 -356.569404 
L 274.809888 -349.61768 
L 273.421828 -353.093542 
L 272.033769 -356.569404 
L 270.645709 -353.093542 
L 269.257649 -349.61768 
L 267.86959 -346.141818 
L 266.48153 -342.665956 
L 265.09347 -339.190094 
L 263.70541 -349.61768 
L 262.317351 -346.141818 
L 260.929291 -353.093542 
L 259.541231 -349.61768 
L 258.153172 -335.714232 
L 256.765112 -339.190094 
L 255.377052 -353.093542 
L 253.988993 -339.190094 
L 252.600933 -342.665956 
L 251.212873 -346.141818 
L 249.824813 -346.141818 
L 248.436754 -346.141818 
L 247.048694 -335.714232 
L 245.660634 -335.714232 
L 244.272575 -328.762508 
L 242.884515 -332.23837 
L 241.496455 -328.762508 
L 240.108396 -328.762508 
L 238.720336 -339.190094 
L 237.332276 -342.665956 
L 235.944216 -339.190094 
L 234.556157 -332.23837 
L 233.168097 -325.286646 
L 231.780037 -339.190094 
L 230.391978 -335.714232 
L 229.003918 -325.286646 
L 227.615858 -318.334922 
L 226.227799 -318.334922 
L 224.839739 -328.762508 
L 223.451679 -339.190094 
L 222.063619 -328.762508 
L 220.67556 -328.762508 
L 219.2875 -325.286646 
L 217.89944 -346.141818 
L 216.511381 -311.383197 
L 215.123321 -314.859059 
L 213.735261 -318.334922 
L 212.347201 -314.859059 
L 210.959142 -335.714232 
L 209.571082 -318.334922 
L 208.183022 -311.383197 
L 206.794963 -307.907335 
L 205.406903 -325.286646 
L 204.018843 -297.479749 
L 202.630784 -332.23837 
L 201.242724 -321.810784 
L 199.854664 -311.383197 
L 198.466604 -332.23837 
L 197.078545 -325.286646 
L 195.690485 -325.286646 
L 194.302425 -307.907335 
L 192.914366 -307.907335 
L 191.526306 -332.23837 
L 190.138246 -325.286646 
L 188.750187 -321.810784 
L 187.362127 -307.907335 
L 185.974067 -311.383197 
L 184.586007 -307.907335 
L 183.197948 -290.528025 
L 181.809888 -304.431473 
L 180.421828 -321.810784 
L 179.033769 -314.859059 
L 177.645709 -314.859059 
L 176.257649 -314.859059 
L 174.86959 -328.762508 
L 173.48153 -307.907335 
L 172.09347 -297.479749 
L 170.70541 -300.955611 
L 169.317351 -304.431473 
L 167.929291 -300.955611 
L 166.541231 -300.955611 
L 165.153172 -300.955611 
L 163.765112 -314.859059 
L 162.377052 -307.907335 
L 160.988993 -314.859059 
L 159.600933 -304.431473 
L 158.212873 -307.907335 
L 156.824813 -314.859059 
L 155.436754 -318.334922 
L 154.048694 -311.383197 
L 152.660634 -300.955611 
L 151.272575 -287.052163 
L 149.884515 -304.431473 
L 148.496455 -325.286646 
L 147.108396 -297.479749 
L 145.720336 -294.003887 
L 144.332276 -290.528025 
L 142.944216 -300.955611 
L 141.556157 -280.100439 
L 140.168097 -297.479749 
L 138.780037 -297.479749 
L 137.391978 -294.003887 
L 136.003918 -297.479749 
L 134.615858 -297.479749 
L 133.227799 -321.810784 
L 131.839739 -321.810784 
L 130.451679 -304.431473 
L 129.063619 -294.003887 
L 127.67556 -294.003887 
L 126.2875 -311.383197 
L 124.89944 -287.052163 
L 123.511381 -294.003887 
L 122.123321 -311.383197 
L 120.735261 -300.955611 
L 119.347201 -287.052163 
L 117.959142 -300.955611 
L 116.571082 -314.859059 
L 115.183022 -287.052163 
L 113.794963 -290.528025 
L 112.406903 -307.907335 
L 111.018843 -314.859059 
L 109.630784 -290.528025 
L 108.242724 -283.576301 
L 106.854664 -307.907335 
L 105.466604 -276.624577 
L 104.078545 -276.624577 
L 102.690485 -297.479749 
L 101.302425 -287.052163 
L 99.914366 -290.528025 
L 98.526306 -273.148715 
L 97.138246 -287.052163 
L 95.750187 -287.052163 
L 94.362127 -276.624577 
L 92.974067 -276.624577 
L 91.586007 -304.431473 
L 90.197948 -273.148715 
L 88.809888 -280.100439 
L 87.421828 -300.955611 
L 86.033769 -287.052163 
L 84.645709 -283.576301 
L 83.257649 -280.100439 
L 81.86959 -287.052163 
L 80.48153 -280.100439 
L 79.09347 -294.003887 
L 77.70541 -280.100439 
L 76.317351 -290.528025 
L 74.929291 -297.479749 
L 73.541231 -290.528025 
L 72.153172 -290.528025 
L 70.765112 -280.100439 
L 69.377052 -280.100439 
L 67.988993 -276.624577 
L 66.600933 -283.576301 
L 65.212873 -269.672853 
L 63.824813 -280.100439 
L 62.436754 -276.624577 
L 61.048694 -297.479749 
L 59.660634 -280.100439 
z
" style="stroke: #0000ff; stroke-opacity: 0.2"/>
    </defs>
    <g clip-path="url(#p3ed39f4feb)">
     <use xlink:href="#mf13329125b" x="0" y="428.76615" style="fill: #0000ff; fill-opacity: 0.2; stroke: #0000ff; stroke-opacity: 0.2"/>
    </g>
   </g>
   <g id="matplotlib.axis_1">
    <g id="xtick_1">
     <g id="line2d_1">
      <defs>
       <path id="m950a26128d" d="M 0 0 
L 0 3.5 
" style="stroke: #000000; stroke-width: 0.8"/>
      </defs>
      <g>
       <use xlink:href="#m950a26128d" x="59.660634" y="354.958125" style="stroke: #000000; stroke-width: 0.8"/>
      </g>
     </g>
     <g id="text_1">
      <!-- January -->
      <g transform="translate(31.382992 394.138113) rotate(-45) scale(0.1 -0.1)">
       <defs>
        <path id="DejaVuSans-4a" d="M 628 4666 
L 1259 4666 
L 1259 325 
Q 1259 -519 939 -900 
Q 619 -1281 -91 -1281 
L -331 -1281 
L -331 -750 
L -134 -750 
Q 284 -750 456 -515 
Q 628 -281 628 325 
L 628 4666 
z
" transform="scale(0.015625)"/>
        <path id="DejaVuSans-61" d="M 2194 1759 
Q 1497 1759 1228 1600 
Q 959 1441 959 1056 
Q 959 750 1161 570 
Q 1363 391 1709 391 
Q 2188 391 2477 730 
Q 2766 1069 2766 1631 
L 2766 1759 
L 2194 1759 
z
M 3341 1997 
L 3341 0 
L 2766 0 
L 2766 531 
Q 2569 213 2275 61 
Q 1981 -91 1556 -91 
Q 1019 -91 701 211 
Q 384 513 384 1019 
Q 384 1609 779 1909 
Q 1175 2209 1959 2209 
L 2766 2209 
L 2766 2266 
Q 2766 2663 2505 2880 
Q 2244 3097 1772 3097 
Q 1472 3097 1187 3025 
Q 903 2953 641 2809 
L 641 3341 
Q 956 3463 1253 3523 
Q 1550 3584 1831 3584 
Q 2591 3584 2966 3190 
Q 3341 2797 3341 1997 
z
" transform="scale(0.015625)"/>
        <path id="DejaVuSans-6e" d="M 3513 2113 
L 3513 0 
L 2938 0 
L 2938 2094 
Q 2938 2591 2744 2837 
Q 2550 3084 2163 3084 
Q 1697 3084 1428 2787 
Q 1159 2491 1159 1978 
L 1159 0 
L 581 0 
L 581 3500 
L 1159 3500 
L 1159 2956 
Q 1366 3272 1645 3428 
Q 1925 3584 2291 3584 
Q 2894 3584 3203 3211 
Q 3513 2838 3513 2113 
z
" transform="scale(0.015625)"/>
        <path id="DejaVuSans-75" d="M 544 1381 
L 544 3500 
L 1119 3500 
L 1119 1403 
Q 1119 906 1312 657 
Q 1506 409 1894 409 
Q 2359 409 2629 706 
Q 2900 1003 2900 1516 
L 2900 3500 
L 3475 3500 
L 3475 0 
L 2900 0 
L 2900 538 
Q 2691 219 2414 64 
Q 2138 -91 1772 -91 
Q 1169 -91 856 284 
Q 544 659 544 1381 
z
M 1991 3584 
L 1991 3584 
z
" transform="scale(0.015625)"/>
        <path id="DejaVuSans-72" d="M 2631 2963 
Q 2534 3019 2420 3045 
Q 2306 3072 2169 3072 
Q 1681 3072 1420 2755 
Q 1159 2438 1159 1844 
L 1159 0 
L 581 0 
L 581 3500 
L 1159 3500 
L 1159 2956 
Q 1341 3275 1631 3429 
Q 1922 3584 2338 3584 
Q 2397 3584 2469 3576 
Q 2541 3569 2628 3553 
L 2631 2963 
z
" transform="scale(0.015625)"/>
        <path id="DejaVuSans-79" d="M 2059 -325 
Q 1816 -950 1584 -1140 
Q 1353 -1331 966 -1331 
L 506 -1331 
L 506 -850 
L 844 -850 
Q 1081 -850 1212 -737 
Q 1344 -625 1503 -206 
L 1606 56 
L 191 3500 
L 800 3500 
L 1894 763 
L 2988 3500 
L 3597 3500 
L 2059 -325 
z
" transform="scale(0.015625)"/>
       </defs>
       <use xlink:href="#DejaVuSans-4a"/>
       <use xlink:href="#DejaVuSans-61" x="29.492188"/>
       <use xlink:href="#DejaVuSans-6e" x="90.771484"/>
       <use xlink:href="#DejaVuSans-75" x="154.150391"/>
       <use xlink:href="#DejaVuSans-61" x="217.529297"/>
       <use xlink:href="#DejaVuSans-72" x="278.808594"/>
       <use xlink:href="#DejaVuSans-79" x="319.921875"/>
      </g>
     </g>
    </g>
    <g id="xtick_2">
     <g id="line2d_2">
      <g>
       <use xlink:href="#m950a26128d" x="102.690485" y="354.958125" style="stroke: #000000; stroke-width: 0.8"/>
      </g>
     </g>
     <g id="text_2">
      <!-- February -->
      <g transform="translate(69.888464 398.662491) rotate(-45) scale(0.1 -0.1)">
       <defs>
        <path id="DejaVuSans-46" d="M 628 4666 
L 3309 4666 
L 3309 4134 
L 1259 4134 
L 1259 2759 
L 3109 2759 
L 3109 2228 
L 1259 2228 
L 1259 0 
L 628 0 
L 628 4666 
z
" transform="scale(0.015625)"/>
        <path id="DejaVuSans-65" d="M 3597 1894 
L 3597 1613 
L 953 1613 
Q 991 1019 1311 708 
Q 1631 397 2203 397 
Q 2534 397 2845 478 
Q 3156 559 3463 722 
L 3463 178 
Q 3153 47 2828 -22 
Q 2503 -91 2169 -91 
Q 1331 -91 842 396 
Q 353 884 353 1716 
Q 353 2575 817 3079 
Q 1281 3584 2069 3584 
Q 2775 3584 3186 3129 
Q 3597 2675 3597 1894 
z
M 3022 2063 
Q 3016 2534 2758 2815 
Q 2500 3097 2075 3097 
Q 1594 3097 1305 2825 
Q 1016 2553 972 2059 
L 3022 2063 
z
" transform="scale(0.015625)"/>
        <path id="DejaVuSans-62" d="M 3116 1747 
Q 3116 2381 2855 2742 
Q 2594 3103 2138 3103 
Q 1681 3103 1420 2742 
Q 1159 2381 1159 1747 
Q 1159 1113 1420 752 
Q 1681 391 2138 391 
Q 2594 391 2855 752 
Q 3116 1113 3116 1747 
z
M 1159 2969 
Q 1341 3281 1617 3432 
Q 1894 3584 2278 3584 
Q 2916 3584 3314 3078 
Q 3713 2572 3713 1747 
Q 3713 922 3314 415 
Q 2916 -91 2278 -91 
Q 1894 -91 1617 61 
Q 1341 213 1159 525 
L 1159 0 
L 581 0 
L 581 4863 
L 1159 4863 
L 1159 2969 
z
" transform="scale(0.015625)"/>
       </defs>
       <use xlink:href="#DejaVuSans-46"/>
       <use xlink:href="#DejaVuSans-65" x="52.019531"/>
       <use xlink:href="#DejaVuSans-62" x="113.542969"/>
       <use xlink:href="#DejaVuSans-72" x="177.019531"/>
       <use xlink:href="#DejaVuSans-75" x="218.132812"/>
       <use xlink:href="#DejaVuSans-61" x="281.511719"/>
       <use xlink:href="#DejaVuSans-72" x="342.791016"/>
       <use xlink:href="#DejaVuSans-79" x="383.904297"/>
      </g>
     </g>
    </g>
    <g id="xtick_3">
     <g id="line2d_3">
      <g>
       <use xlink:href="#m950a26128d" x="142.944216" y="354.958125" style="stroke: #000000; stroke-width: 0.8"/>
      </g>
     </g>
     <g id="text_3">
      <!-- March -->
      <g transform="translate(119.922366 388.882321) rotate(-45) scale(0.1 -0.1)">
       <defs>
        <path id="DejaVuSans-4d" d="M 628 4666 
L 1569 4666 
L 2759 1491 
L 3956 4666 
L 4897 4666 
L 4897 0 
L 4281 0 
L 4281 4097 
L 3078 897 
L 2444 897 
L 1241 4097 
L 1241 0 
L 628 0 
L 628 4666 
z
" transform="scale(0.015625)"/>
        <path id="DejaVuSans-63" d="M 3122 3366 
L 3122 2828 
Q 2878 2963 2633 3030 
Q 2388 3097 2138 3097 
Q 1578 3097 1268 2742 
Q 959 2388 959 1747 
Q 959 1106 1268 751 
Q 1578 397 2138 397 
Q 2388 397 2633 464 
Q 2878 531 3122 666 
L 3122 134 
Q 2881 22 2623 -34 
Q 2366 -91 2075 -91 
Q 1284 -91 818 406 
Q 353 903 353 1747 
Q 353 2603 823 3093 
Q 1294 3584 2113 3584 
Q 2378 3584 2631 3529 
Q 2884 3475 3122 3366 
z
" transform="scale(0.015625)"/>
        <path id="DejaVuSans-68" d="M 3513 2113 
L 3513 0 
L 2938 0 
L 2938 2094 
Q 2938 2591 2744 2837 
Q 2550 3084 2163 3084 
Q 1697 3084 1428 2787 
Q 1159 2491 1159 1978 
L 1159 0 
L 581 0 
L 581 4863 
L 1159 4863 
L 1159 2956 
Q 1366 3272 1645 3428 
Q 1925 3584 2291 3584 
Q 2894 3584 3203 3211 
Q 3513 2838 3513 2113 
z
" transform="scale(0.015625)"/>
       </defs>
       <use xlink:href="#DejaVuSans-4d"/>
       <use xlink:href="#DejaVuSans-61" x="86.279297"/>
       <use xlink:href="#DejaVuSans-72" x="147.558594"/>
       <use xlink:href="#DejaVuSans-63" x="186.421875"/>
       <use xlink:href="#DejaVuSans-68" x="241.402344"/>
      </g>
     </g>
    </g>
    <g id="xtick_4">
     <g id="line2d_4">
      <g>
       <use xlink:href="#m950a26128d" x="185.974067" y="354.958125" style="stroke: #000000; stroke-width: 0.8"/>
      </g>
     </g>
     <g id="text_4">
      <!-- April -->
      <g transform="translate(168.341697 383.492841) rotate(-45) scale(0.1 -0.1)">
       <defs>
        <path id="DejaVuSans-41" d="M 2188 4044 
L 1331 1722 
L 3047 1722 
L 2188 4044 
z
M 1831 4666 
L 2547 4666 
L 4325 0 
L 3669 0 
L 3244 1197 
L 1141 1197 
L 716 0 
L 50 0 
L 1831 4666 
z
" transform="scale(0.015625)"/>
        <path id="DejaVuSans-70" d="M 1159 525 
L 1159 -1331 
L 581 -1331 
L 581 3500 
L 1159 3500 
L 1159 2969 
Q 1341 3281 1617 3432 
Q 1894 3584 2278 3584 
Q 2916 3584 3314 3078 
Q 3713 2572 3713 1747 
Q 3713 922 3314 415 
Q 2916 -91 2278 -91 
Q 1894 -91 1617 61 
Q 1341 213 1159 525 
z
M 3116 1747 
Q 3116 2381 2855 2742 
Q 2594 3103 2138 3103 
Q 1681 3103 1420 2742 
Q 1159 2381 1159 1747 
Q 1159 1113 1420 752 
Q 1681 391 2138 391 
Q 2594 391 2855 752 
Q 3116 1113 3116 1747 
z
" transform="scale(0.015625)"/>
        <path id="DejaVuSans-69" d="M 603 3500 
L 1178 3500 
L 1178 0 
L 603 0 
L 603 3500 
z
M 603 4863 
L 1178 4863 
L 1178 4134 
L 603 4134 
L 603 4863 
z
" transform="scale(0.015625)"/>
        <path id="DejaVuSans-6c" d="M 603 4863 
L 1178 4863 
L 1178 0 
L 603 0 
L 603 4863 
z
" transform="scale(0.015625)"/>
       </defs>
       <use xlink:href="#DejaVuSans-41"/>
       <use xlink:href="#DejaVuSans-70" x="68.408203"/>
       <use xlink:href="#DejaVuSans-72" x="131.884766"/>
       <use xlink:href="#DejaVuSans-69" x="172.998047"/>
       <use xlink:href="#DejaVuSans-6c" x="200.78125"/>
      </g>
     </g>
    </g>
    <g id="xtick_5">
     <g id="line2d_5">
      <g>
       <use xlink:href="#m950a26128d" x="227.615858" y="354.958125" style="stroke: #000000; stroke-width: 0.8"/>
      </g>
     </g>
     <g id="text_5">
      <!-- May -->
      <g transform="translate(211.525864 381.950464) rotate(-45) scale(0.1 -0.1)">
       <use xlink:href="#DejaVuSans-4d"/>
       <use xlink:href="#DejaVuSans-61" x="86.279297"/>
       <use xlink:href="#DejaVuSans-79" x="147.558594"/>
      </g>
     </g>
    </g>
    <g id="xtick_6">
     <g id="line2d_6">
      <g>
       <use xlink:href="#m950a26128d" x="270.645709" y="354.958125" style="stroke: #000000; stroke-width: 0.8"/>
      </g>
     </g>
     <g id="text_6">
      <!-- June -->
      <g transform="translate(253.775688 382.730492) rotate(-45) scale(0.1 -0.1)">
       <use xlink:href="#DejaVuSans-4a"/>
       <use xlink:href="#DejaVuSans-75" x="29.492188"/>
       <use xlink:href="#DejaVuSans-6e" x="92.871094"/>
       <use xlink:href="#DejaVuSans-65" x="156.25"/>
      </g>
     </g>
    </g>
    <g id="xtick_7">
     <g id="line2d_7">
      <g>
       <use xlink:href="#m950a26128d" x="312.2875" y="354.958125" style="stroke: #000000; stroke-width: 0.8"/>
      </g>
     </g>
     <g id="text_7">
      <!-- July -->
      <g transform="translate(298.100065 380.047905) rotate(-45) scale(0.1 -0.1)">
       <use xlink:href="#DejaVuSans-4a"/>
       <use xlink:href="#DejaVuSans-75" x="29.492188"/>
       <use xlink:href="#DejaVuSans-6c" x="92.871094"/>
       <use xlink:href="#DejaVuSans-79" x="120.654297"/>
      </g>
     </g>
    </g>
    <g id="xtick_8">
     <g id="line2d_8">
      <g>
       <use xlink:href="#m950a26128d" x="355.317351" y="354.958125" style="stroke: #000000; stroke-width: 0.8"/>
      </g>
     </g>
     <g id="text_8">
      <!-- August -->
      <g transform="translate(329.102472 392.07535) rotate(-45) scale(0.1 -0.1)">
       <defs>
        <path id="DejaVuSans-67" d="M 2906 1791 
Q 2906 2416 2648 2759 
Q 2391 3103 1925 3103 
Q 1463 3103 1205 2759 
Q 947 2416 947 1791 
Q 947 1169 1205 825 
Q 1463 481 1925 481 
Q 2391 481 2648 825 
Q 2906 1169 2906 1791 
z
M 3481 434 
Q 3481 -459 3084 -895 
Q 2688 -1331 1869 -1331 
Q 1566 -1331 1297 -1286 
Q 1028 -1241 775 -1147 
L 775 -588 
Q 1028 -725 1275 -790 
Q 1522 -856 1778 -856 
Q 2344 -856 2625 -561 
Q 2906 -266 2906 331 
L 2906 616 
Q 2728 306 2450 153 
Q 2172 0 1784 0 
Q 1141 0 747 490 
Q 353 981 353 1791 
Q 353 2603 747 3093 
Q 1141 3584 1784 3584 
Q 2172 3584 2450 3431 
Q 2728 3278 2906 2969 
L 2906 3500 
L 3481 3500 
L 3481 434 
z
" transform="scale(0.015625)"/>
        <path id="DejaVuSans-73" d="M 2834 3397 
L 2834 2853 
Q 2591 2978 2328 3040 
Q 2066 3103 1784 3103 
Q 1356 3103 1142 2972 
Q 928 2841 928 2578 
Q 928 2378 1081 2264 
Q 1234 2150 1697 2047 
L 1894 2003 
Q 2506 1872 2764 1633 
Q 3022 1394 3022 966 
Q 3022 478 2636 193 
Q 2250 -91 1575 -91 
Q 1294 -91 989 -36 
Q 684 19 347 128 
L 347 722 
Q 666 556 975 473 
Q 1284 391 1588 391 
Q 1994 391 2212 530 
Q 2431 669 2431 922 
Q 2431 1156 2273 1281 
Q 2116 1406 1581 1522 
L 1381 1569 
Q 847 1681 609 1914 
Q 372 2147 372 2553 
Q 372 3047 722 3315 
Q 1072 3584 1716 3584 
Q 2034 3584 2315 3537 
Q 2597 3491 2834 3397 
z
" transform="scale(0.015625)"/>
        <path id="DejaVuSans-74" d="M 1172 4494 
L 1172 3500 
L 2356 3500 
L 2356 3053 
L 1172 3053 
L 1172 1153 
Q 1172 725 1289 603 
Q 1406 481 1766 481 
L 2356 481 
L 2356 0 
L 1766 0 
Q 1100 0 847 248 
Q 594 497 594 1153 
L 594 3053 
L 172 3053 
L 172 3500 
L 594 3500 
L 594 4494 
L 1172 4494 
z
" transform="scale(0.015625)"/>
       </defs>
       <use xlink:href="#DejaVuSans-41"/>
       <use xlink:href="#DejaVuSans-75" x="68.408203"/>
       <use xlink:href="#DejaVuSans-67" x="131.787109"/>
       <use xlink:href="#DejaVuSans-75" x="195.263672"/>
       <use xlink:href="#DejaVuSans-73" x="258.642578"/>
       <use xlink:href="#DejaVuSans-74" x="310.742188"/>
      </g>
     </g>
    </g>
    <g id="xtick_9">
     <g id="line2d_9">
      <g>
       <use xlink:href="#m950a26128d" x="398.347201" y="354.958125" style="stroke: #000000; stroke-width: 0.8"/>
      </g>
     </g>
     <g id="text_9">
      <!-- September -->
      <g transform="translate(357.790208 406.417464) rotate(-45) scale(0.1 -0.1)">
       <defs>
        <path id="DejaVuSans-53" d="M 3425 4513 
L 3425 3897 
Q 3066 4069 2747 4153 
Q 2428 4238 2131 4238 
Q 1616 4238 1336 4038 
Q 1056 3838 1056 3469 
Q 1056 3159 1242 3001 
Q 1428 2844 1947 2747 
L 2328 2669 
Q 3034 2534 3370 2195 
Q 3706 1856 3706 1288 
Q 3706 609 3251 259 
Q 2797 -91 1919 -91 
Q 1588 -91 1214 -16 
Q 841 59 441 206 
L 441 856 
Q 825 641 1194 531 
Q 1563 422 1919 422 
Q 2459 422 2753 634 
Q 3047 847 3047 1241 
Q 3047 1584 2836 1778 
Q 2625 1972 2144 2069 
L 1759 2144 
Q 1053 2284 737 2584 
Q 422 2884 422 3419 
Q 422 4038 858 4394 
Q 1294 4750 2059 4750 
Q 2388 4750 2728 4690 
Q 3069 4631 3425 4513 
z
" transform="scale(0.015625)"/>
        <path id="DejaVuSans-6d" d="M 3328 2828 
Q 3544 3216 3844 3400 
Q 4144 3584 4550 3584 
Q 5097 3584 5394 3201 
Q 5691 2819 5691 2113 
L 5691 0 
L 5113 0 
L 5113 2094 
Q 5113 2597 4934 2840 
Q 4756 3084 4391 3084 
Q 3944 3084 3684 2787 
Q 3425 2491 3425 1978 
L 3425 0 
L 2847 0 
L 2847 2094 
Q 2847 2600 2669 2842 
Q 2491 3084 2119 3084 
Q 1678 3084 1418 2786 
Q 1159 2488 1159 1978 
L 1159 0 
L 581 0 
L 581 3500 
L 1159 3500 
L 1159 2956 
Q 1356 3278 1631 3431 
Q 1906 3584 2284 3584 
Q 2666 3584 2933 3390 
Q 3200 3197 3328 2828 
z
" transform="scale(0.015625)"/>
       </defs>
       <use xlink:href="#DejaVuSans-53"/>
       <use xlink:href="#DejaVuSans-65" x="63.476562"/>
       <use xlink:href="#DejaVuSans-70" x="125"/>
       <use xlink:href="#DejaVuSans-74" x="188.476562"/>
       <use xlink:href="#DejaVuSans-65" x="227.685547"/>
       <use xlink:href="#DejaVuSans-6d" x="289.208984"/>
       <use xlink:href="#DejaVuSans-62" x="386.621094"/>
       <use xlink:href="#DejaVuSans-65" x="450.097656"/>
       <use xlink:href="#DejaVuSans-72" x="511.621094"/>
      </g>
     </g>
    </g>
    <g id="xtick_10">
     <g id="line2d_10">
      <g>
       <use xlink:href="#m950a26128d" x="439.988993" y="354.958125" style="stroke: #000000; stroke-width: 0.8"/>
      </g>
     </g>
     <g id="text_10">
      <!-- October -->
      <g transform="translate(410.218692 395.630771) rotate(-45) scale(0.1 -0.1)">
       <defs>
        <path id="DejaVuSans-4f" d="M 2522 4238 
Q 1834 4238 1429 3725 
Q 1025 3213 1025 2328 
Q 1025 1447 1429 934 
Q 1834 422 2522 422 
Q 3209 422 3611 934 
Q 4013 1447 4013 2328 
Q 4013 3213 3611 3725 
Q 3209 4238 2522 4238 
z
M 2522 4750 
Q 3503 4750 4090 4092 
Q 4678 3434 4678 2328 
Q 4678 1225 4090 567 
Q 3503 -91 2522 -91 
Q 1538 -91 948 565 
Q 359 1222 359 2328 
Q 359 3434 948 4092 
Q 1538 4750 2522 4750 
z
" transform="scale(0.015625)"/>
        <path id="DejaVuSans-6f" d="M 1959 3097 
Q 1497 3097 1228 2736 
Q 959 2375 959 1747 
Q 959 1119 1226 758 
Q 1494 397 1959 397 
Q 2419 397 2687 759 
Q 2956 1122 2956 1747 
Q 2956 2369 2687 2733 
Q 2419 3097 1959 3097 
z
M 1959 3584 
Q 2709 3584 3137 3096 
Q 3566 2609 3566 1747 
Q 3566 888 3137 398 
Q 2709 -91 1959 -91 
Q 1206 -91 779 398 
Q 353 888 353 1747 
Q 353 2609 779 3096 
Q 1206 3584 1959 3584 
z
" transform="scale(0.015625)"/>
       </defs>
       <use xlink:href="#DejaVuSans-4f"/>
       <use xlink:href="#DejaVuSans-63" x="78.710938"/>
       <use xlink:href="#DejaVuSans-74" x="133.691406"/>
       <use xlink:href="#DejaVuSans-6f" x="172.900391"/>
       <use xlink:href="#DejaVuSans-62" x="234.082031"/>
       <use xlink:href="#DejaVuSans-65" x="297.558594"/>
       <use xlink:href="#DejaVuSans-72" x="359.082031"/>
      </g>
     </g>
    </g>
    <g id="xtick_11">
     <g id="line2d_11">
      <g>
       <use xlink:href="#m950a26128d" x="483.018843" y="354.958125" style="stroke: #000000; stroke-width: 0.8"/>
      </g>
     </g>
     <g id="text_11">
      <!-- November -->
      <g transform="translate(444.761052 404.118262) rotate(-45) scale(0.1 -0.1)">
       <defs>
        <path id="DejaVuSans-4e" d="M 628 4666 
L 1478 4666 
L 3547 763 
L 3547 4666 
L 4159 4666 
L 4159 0 
L 3309 0 
L 1241 3903 
L 1241 0 
L 628 0 
L 628 4666 
z
" transform="scale(0.015625)"/>
        <path id="DejaVuSans-76" d="M 191 3500 
L 800 3500 
L 1894 563 
L 2988 3500 
L 3597 3500 
L 2284 0 
L 1503 0 
L 191 3500 
z
" transform="scale(0.015625)"/>
       </defs>
       <use xlink:href="#DejaVuSans-4e"/>
       <use xlink:href="#DejaVuSans-6f" x="74.804688"/>
       <use xlink:href="#DejaVuSans-76" x="135.986328"/>
       <use xlink:href="#DejaVuSans-65" x="195.166016"/>
       <use xlink:href="#DejaVuSans-6d" x="256.689453"/>
       <use xlink:href="#DejaVuSans-62" x="354.101562"/>
       <use xlink:href="#DejaVuSans-65" x="417.578125"/>
       <use xlink:href="#DejaVuSans-72" x="479.101562"/>
      </g>
     </g>
    </g>
    <g id="xtick_12">
     <g id="line2d_12">
      <g>
       <use xlink:href="#m950a26128d" x="524.660634" y="354.958125" style="stroke: #000000; stroke-width: 0.8"/>
      </g>
     </g>
     <g id="text_12">
      <!-- December -->
      <g transform="translate(486.521062 404.000043) rotate(-45) scale(0.1 -0.1)">
       <defs>
        <path id="DejaVuSans-44" d="M 1259 4147 
L 1259 519 
L 2022 519 
Q 2988 519 3436 956 
Q 3884 1394 3884 2338 
Q 3884 3275 3436 3711 
Q 2988 4147 2022 4147 
L 1259 4147 
z
M 628 4666 
L 1925 4666 
Q 3281 4666 3915 4102 
Q 4550 3538 4550 2338 
Q 4550 1131 3912 565 
Q 3275 0 1925 0 
L 628 0 
L 628 4666 
z
" transform="scale(0.015625)"/>
       </defs>
       <use xlink:href="#DejaVuSans-44"/>
       <use xlink:href="#DejaVuSans-65" x="77.001953"/>
       <use xlink:href="#DejaVuSans-63" x="138.525391"/>
       <use xlink:href="#DejaVuSans-65" x="193.505859"/>
       <use xlink:href="#DejaVuSans-6d" x="255.029297"/>
       <use xlink:href="#DejaVuSans-62" x="352.441406"/>
       <use xlink:href="#DejaVuSans-65" x="415.917969"/>
       <use xlink:href="#DejaVuSans-72" x="477.441406"/>
      </g>
     </g>
    </g>
    <g id="text_13">
     <!-- date -->
     <g transform="translate(301.0125 419.486463) scale(0.1 -0.1)">
      <defs>
       <path id="DejaVuSans-64" d="M 2906 2969 
L 2906 4863 
L 3481 4863 
L 3481 0 
L 2906 0 
L 2906 525 
Q 2725 213 2448 61 
Q 2172 -91 1784 -91 
Q 1150 -91 751 415 
Q 353 922 353 1747 
Q 353 2572 751 3078 
Q 1150 3584 1784 3584 
Q 2172 3584 2448 3432 
Q 2725 3281 2906 2969 
z
M 947 1747 
Q 947 1113 1208 752 
Q 1469 391 1925 391 
Q 2381 391 2643 752 
Q 2906 1113 2906 1747 
Q 2906 2381 2643 2742 
Q 2381 3103 1925 3103 
Q 1469 3103 1208 2742 
Q 947 2381 947 1747 
z
" transform="scale(0.015625)"/>
      </defs>
      <use xlink:href="#DejaVuSans-64"/>
      <use xlink:href="#DejaVuSans-61" x="63.476562"/>
      <use xlink:href="#DejaVuSans-74" x="124.755859"/>
      <use xlink:href="#DejaVuSans-65" x="163.964844"/>
     </g>
    </g>
   </g>
   <g id="matplotlib.axis_2">
    <g id="ytick_1">
     <g id="line2d_13">
      <defs>
       <path id="m6cc6d46e6f" d="M 0 0 
L -3.5 0 
" style="stroke: #000000; stroke-width: 0.8"/>
      </defs>
      <g>
       <use xlink:href="#m6cc6d46e6f" x="33.2875" y="350.265711" style="stroke: #000000; stroke-width: 0.8"/>
      </g>
     </g>
     <g id="text_14">
      <!-- 20 -->
      <g transform="translate(13.5625 354.06493) scale(0.1 -0.1)">
       <defs>
        <path id="DejaVuSans-32" d="M 1228 531 
L 3431 531 
L 3431 0 
L 469 0 
L 469 531 
Q 828 903 1448 1529 
Q 2069 2156 2228 2338 
Q 2531 2678 2651 2914 
Q 2772 3150 2772 3378 
Q 2772 3750 2511 3984 
Q 2250 4219 1831 4219 
Q 1534 4219 1204 4116 
Q 875 4013 500 3803 
L 500 4441 
Q 881 4594 1212 4672 
Q 1544 4750 1819 4750 
Q 2544 4750 2975 4387 
Q 3406 4025 3406 3419 
Q 3406 3131 3298 2873 
Q 3191 2616 2906 2266 
Q 2828 2175 2409 1742 
Q 1991 1309 1228 531 
z
" transform="scale(0.015625)"/>
        <path id="DejaVuSans-30" d="M 2034 4250 
Q 1547 4250 1301 3770 
Q 1056 3291 1056 2328 
Q 1056 1369 1301 889 
Q 1547 409 2034 409 
Q 2525 409 2770 889 
Q 3016 1369 3016 2328 
Q 3016 3291 2770 3770 
Q 2525 4250 2034 4250 
z
M 2034 4750 
Q 2819 4750 3233 4129 
Q 3647 3509 3647 2328 
Q 3647 1150 3233 529 
Q 2819 -91 2034 -91 
Q 1250 -91 836 529 
Q 422 1150 422 2328 
Q 422 3509 836 4129 
Q 1250 4750 2034 4750 
z
" transform="scale(0.015625)"/>
       </defs>
       <use xlink:href="#DejaVuSans-32"/>
       <use xlink:href="#DejaVuSans-30" x="63.623047"/>
      </g>
     </g>
    </g>
    <g id="ytick_2">
     <g id="line2d_14">
      <g>
       <use xlink:href="#m6cc6d46e6f" x="33.2875" y="280.74847" style="stroke: #000000; stroke-width: 0.8"/>
      </g>
     </g>
     <g id="text_15">
      <!-- 40 -->
      <g transform="translate(13.5625 284.547689) scale(0.1 -0.1)">
       <defs>
        <path id="DejaVuSans-34" d="M 2419 4116 
L 825 1625 
L 2419 1625 
L 2419 4116 
z
M 2253 4666 
L 3047 4666 
L 3047 1625 
L 3713 1625 
L 3713 1100 
L 3047 1100 
L 3047 0 
L 2419 0 
L 2419 1100 
L 313 1100 
L 313 1709 
L 2253 4666 
z
" transform="scale(0.015625)"/>
       </defs>
       <use xlink:href="#DejaVuSans-34"/>
       <use xlink:href="#DejaVuSans-30" x="63.623047"/>
      </g>
     </g>
    </g>
    <g id="ytick_3">
     <g id="line2d_15">
      <g>
       <use xlink:href="#m6cc6d46e6f" x="33.2875" y="211.231228" style="stroke: #000000; stroke-width: 0.8"/>
      </g>
     </g>
     <g id="text_16">
      <!-- 60 -->
      <g transform="translate(13.5625 215.030447) scale(0.1 -0.1)">
       <defs>
        <path id="DejaVuSans-36" d="M 2113 2584 
Q 1688 2584 1439 2293 
Q 1191 2003 1191 1497 
Q 1191 994 1439 701 
Q 1688 409 2113 409 
Q 2538 409 2786 701 
Q 3034 994 3034 1497 
Q 3034 2003 2786 2293 
Q 2538 2584 2113 2584 
z
M 3366 4563 
L 3366 3988 
Q 3128 4100 2886 4159 
Q 2644 4219 2406 4219 
Q 1781 4219 1451 3797 
Q 1122 3375 1075 2522 
Q 1259 2794 1537 2939 
Q 1816 3084 2150 3084 
Q 2853 3084 3261 2657 
Q 3669 2231 3669 1497 
Q 3669 778 3244 343 
Q 2819 -91 2113 -91 
Q 1303 -91 875 529 
Q 447 1150 447 2328 
Q 447 3434 972 4092 
Q 1497 4750 2381 4750 
Q 2619 4750 2861 4703 
Q 3103 4656 3366 4563 
z
" transform="scale(0.015625)"/>
       </defs>
       <use xlink:href="#DejaVuSans-36"/>
       <use xlink:href="#DejaVuSans-30" x="63.623047"/>
      </g>
     </g>
    </g>
    <g id="ytick_4">
     <g id="line2d_16">
      <g>
       <use xlink:href="#m6cc6d46e6f" x="33.2875" y="141.713987" style="stroke: #000000; stroke-width: 0.8"/>
      </g>
     </g>
     <g id="text_17">
      <!-- 80 -->
      <g transform="translate(13.5625 145.513206) scale(0.1 -0.1)">
       <defs>
        <path id="DejaVuSans-38" d="M 2034 2216 
Q 1584 2216 1326 1975 
Q 1069 1734 1069 1313 
Q 1069 891 1326 650 
Q 1584 409 2034 409 
Q 2484 409 2743 651 
Q 3003 894 3003 1313 
Q 3003 1734 2745 1975 
Q 2488 2216 2034 2216 
z
M 1403 2484 
Q 997 2584 770 2862 
Q 544 3141 544 3541 
Q 544 4100 942 4425 
Q 1341 4750 2034 4750 
Q 2731 4750 3128 4425 
Q 3525 4100 3525 3541 
Q 3525 3141 3298 2862 
Q 3072 2584 2669 2484 
Q 3125 2378 3379 2068 
Q 3634 1759 3634 1313 
Q 3634 634 3220 271 
Q 2806 -91 2034 -91 
Q 1263 -91 848 271 
Q 434 634 434 1313 
Q 434 1759 690 2068 
Q 947 2378 1403 2484 
z
M 1172 3481 
Q 1172 3119 1398 2916 
Q 1625 2713 2034 2713 
Q 2441 2713 2670 2916 
Q 2900 3119 2900 3481 
Q 2900 3844 2670 4047 
Q 2441 4250 2034 4250 
Q 1625 4250 1398 4047 
Q 1172 3844 1172 3481 
z
" transform="scale(0.015625)"/>
       </defs>
       <use xlink:href="#DejaVuSans-38"/>
       <use xlink:href="#DejaVuSans-30" x="63.623047"/>
      </g>
     </g>
    </g>
    <g id="ytick_5">
     <g id="line2d_17">
      <g>
       <use xlink:href="#m6cc6d46e6f" x="33.2875" y="72.196746" style="stroke: #000000; stroke-width: 0.8"/>
      </g>
     </g>
     <g id="text_18">
      <!-- 100 -->
      <g transform="translate(7.2 75.995964) scale(0.1 -0.1)">
       <defs>
        <path id="DejaVuSans-31" d="M 794 531 
L 1825 531 
L 1825 4091 
L 703 3866 
L 703 4441 
L 1819 4666 
L 2450 4666 
L 2450 531 
L 3481 531 
L 3481 0 
L 794 0 
L 794 531 
z
" transform="scale(0.015625)"/>
       </defs>
       <use xlink:href="#DejaVuSans-31"/>
       <use xlink:href="#DejaVuSans-30" x="63.623047"/>
       <use xlink:href="#DejaVuSans-30" x="127.246094"/>
      </g>
     </g>
    </g>
   </g>
   <g id="line2d_18">
    <path d="M 59.660634 219.76289 
L 61.048694 229.242514 
L 62.436754 204.911479 
L 65.212873 192.903956 
L 66.600933 205.543454 
L 67.988993 207.123391 
L 69.377052 203.015554 
L 70.765112 198.275743 
L 72.153172 197.643768 
L 73.541231 196.06383 
L 74.929291 200.487655 
L 76.317351 201.11963 
L 77.70541 204.911479 
L 79.09347 199.539692 
L 80.48153 207.755366 
L 81.86959 201.751605 
L 83.257649 185.320257 
L 84.645709 190.376056 
L 86.033769 207.123391 
L 87.421828 202.699567 
L 88.809888 201.11963 
L 90.197948 209.651291 
L 91.586007 203.015554 
L 92.974067 191.955993 
L 94.362127 193.219943 
L 95.750187 197.32778 
L 97.138246 196.695805 
L 98.526306 188.796119 
L 99.914366 194.167906 
L 101.302425 189.744081 
L 102.690485 179.000507 
L 104.078545 205.543454 
L 105.466604 216.603015 
L 106.854664 191.955993 
L 108.242724 210.915241 
L 109.630784 198.907717 
L 111.018843 189.428094 
L 112.406903 188.480131 
L 113.794963 180.896432 
L 115.183022 192.903956 
L 116.571082 209.651291 
L 117.959142 211.863203 
L 119.347201 201.751605 
L 120.735261 180.264457 
L 122.123321 180.264457 
L 123.511381 181.528407 
L 124.89944 198.907717 
L 126.2875 191.324018 
L 127.67556 184.372294 
L 129.063619 171.732796 
L 130.451679 166.676996 
L 131.839739 170.468846 
L 133.227799 177.42057 
L 134.615858 191.324018 
L 136.003918 194.167906 
L 137.391978 199.85568 
L 138.780037 175.840633 
L 140.168097 173.628721 
L 141.556157 185.741573 
L 142.944216 177.736558 
L 144.332276 175.840633 
L 145.720336 181.528407 
L 147.108396 180.264457 
L 148.496455 169.204896 
L 149.884515 166.992984 
L 151.272575 172.364771 
L 152.660634 169.836871 
L 154.048694 174.576683 
L 155.436754 157.51336 
L 156.824813 164.781072 
L 158.212873 168.256934 
L 159.600933 157.829348 
L 160.988993 152.457561 
L 162.377052 158.77731 
L 163.765112 153.089536 
L 165.153172 163.201134 
L 166.541231 160.04126 
L 167.929291 163.833109 
L 169.317351 169.836871 
L 170.70541 169.836871 
L 172.09347 154.98546 
L 174.86959 147.401761 
L 176.257649 145.189849 
L 177.645709 147.401761 
L 179.033769 142.029975 
L 180.421828 146.137812 
L 181.809888 147.717749 
L 183.197948 152.457561 
L 184.586007 148.665711 
L 185.974067 152.773548 
L 187.362127 146.453799 
L 188.750187 141.398 
L 190.138246 149.929661 
L 191.526306 152.457561 
L 192.914366 153.405523 
L 194.302425 154.037498 
L 195.690485 145.505837 
L 197.078545 133.182326 
L 198.466604 145.821824 
L 199.854664 141.713987 
L 201.242724 133.814301 
L 204.018843 153.089536 
L 205.406903 148.349724 
L 206.794963 149.297686 
L 208.183022 150.561636 
L 209.571082 154.353486 
L 210.959142 141.082012 
L 212.347201 142.029975 
L 213.735261 145.821824 
L 215.123321 147.401761 
L 216.511381 141.398 
L 217.89944 131.918376 
L 219.2875 125.282639 
L 220.67556 128.758501 
L 222.063619 126.862576 
L 223.451679 124.650664 
L 224.839739 132.234363 
L 226.227799 134.446275 
L 227.615858 134.446275 
L 229.003918 131.602388 
L 230.391978 120.542827 
L 231.780037 128.126526 
L 233.168097 123.070727 
L 234.556157 119.594865 
L 235.944216 116.750978 
L 237.332276 120.22684 
L 238.720336 121.806777 
L 240.108396 126.862576 
L 241.496455 125.914614 
L 242.884515 135.07825 
L 244.272575 135.710225 
L 245.660634 119.594865 
L 247.048694 121.174802 
L 248.436754 118.646902 
L 249.824813 113.907091 
L 251.212873 108.219316 
L 252.600933 112.011166 
L 253.988993 113.275116 
L 255.377052 121.174802 
L 256.765112 118.96289 
L 258.153172 115.487028 
L 259.541231 111.063203 
L 260.929291 112.327153 
L 262.317351 107.903329 
L 263.70541 108.219316 
L 266.48153 107.587341 
L 267.86959 107.587341 
L 269.257649 111.379191 
L 270.645709 107.903329 
L 272.033769 103.795492 
L 273.421828 106.639379 
L 274.809888 109.799254 
L 276.197948 103.795492 
L 277.586007 95.579818 
L 278.974067 93.99988 
L 280.362127 93.051918 
L 281.750187 91.787968 
L 283.138246 94.631855 
L 284.526306 93.99988 
L 285.914366 91.471981 
L 287.302425 89.576056 
L 288.690485 93.051918 
L 290.078545 88.312106 
L 291.466604 90.208031 
L 292.854664 91.155993 
L 294.242724 89.576056 
L 295.630784 101.267592 
L 298.406903 90.524018 
L 299.794963 94.631855 
L 301.183022 88.628094 
L 302.571082 98.107717 
L 303.959142 95.26383 
L 305.347201 93.683893 
L 306.735261 91.155993 
L 308.123321 93.367906 
L 309.511381 90.524018 
L 310.89944 91.155993 
L 312.2875 87.996119 
L 313.67556 85.152232 
L 315.063619 87.048156 
L 316.451679 89.576056 
L 317.839739 90.208031 
L 319.227799 91.155993 
L 320.615858 91.471981 
L 322.003918 88.312106 
L 323.391978 90.208031 
L 324.780037 82.308344 
L 326.168097 81.67637 
L 327.556157 82.624332 
L 328.944216 80.41242 
L 330.332276 79.14847 
L 331.720336 80.728407 
L 333.108396 81.992357 
L 334.496455 80.096432 
L 335.884515 84.520257 
L 337.272575 81.044395 
L 338.660634 78.200507 
L 340.048694 79.464457 
L 341.436754 78.832482 
L 342.824813 80.41242 
L 345.600933 84.204269 
L 346.988993 85.784207 
L 348.377052 84.204269 
L 351.153172 76.936558 
L 352.541231 76.304583 
L 353.929291 76.62057 
L 355.317351 81.044395 
L 356.70541 86.100194 
L 358.09347 81.360382 
L 359.48153 81.360382 
L 360.86959 79.14847 
L 362.257649 78.200507 
L 363.645709 78.516495 
L 365.033769 75.040633 
L 366.421828 73.144708 
L 367.809888 71.564771 
L 369.197948 71.564771 
L 370.586007 72.828721 
L 371.974067 74.408658 
L 373.362127 78.832482 
L 374.750187 81.67637 
L 376.138246 77.568533 
L 377.526306 76.62057 
L 378.914366 73.144708 
L 380.302425 75.672608 
L 381.690485 81.044395 
L 383.078545 79.780445 
L 384.466604 77.88452 
L 385.854664 79.14847 
L 387.242724 80.096432 
L 388.630784 79.780445 
L 390.018843 85.784207 
L 391.406903 89.260069 
L 392.794963 83.888282 
L 394.183022 84.204269 
L 395.571082 91.155993 
L 396.959142 83.572294 
L 398.347201 82.940319 
L 399.735261 87.996119 
L 401.123321 89.892043 
L 402.511381 95.26383 
L 403.89944 85.784207 
L 405.2875 87.048156 
L 406.67556 91.471981 
L 408.063619 91.787968 
L 409.451679 98.423705 
L 410.839739 104.111479 
L 412.227799 100.951605 
L 413.615858 96.52778 
L 415.003918 105.059442 
L 416.391978 103.163517 
L 419.168097 94.947843 
L 420.556157 94.631855 
L 421.944216 88.944081 
L 423.332276 92.419943 
L 424.720336 89.576056 
L 426.108396 97.475743 
L 427.496455 103.163517 
L 428.884515 105.691417 
L 430.272575 101.58358 
L 431.660634 100.003642 
L 433.048694 108.851291 
L 434.436754 110.431228 
L 435.824813 106.955366 
L 437.212873 110.747216 
L 438.600933 105.059442 
L 439.988993 104.743454 
L 441.377052 107.903329 
L 442.765112 108.851291 
L 444.153172 105.691417 
L 445.541231 109.799254 
L 446.929291 106.323391 
L 448.317351 112.327153 
L 449.70541 114.539065 
L 451.09347 112.643141 
L 452.48153 112.327153 
L 453.86959 126.230601 
L 455.257649 118.014928 
L 456.645709 110.747216 
L 458.033769 114.539065 
L 459.421828 114.855053 
L 460.809888 146.453799 
L 462.197948 146.453799 
L 464.974067 126.546589 
L 466.362127 122.754739 
L 467.750187 124.018689 
L 469.138246 129.706464 
L 470.526306 130.022451 
L 471.914366 139.818062 
L 473.302425 143.293924 
L 474.690485 134.446275 
L 476.078545 142.661949 
L 477.466604 146.137812 
L 478.854664 152.457561 
L 480.242724 157.829348 
L 481.630784 160.357247 
L 483.018843 163.517122 
L 484.406903 148.349724 
L 485.794963 142.029975 
L 488.571082 151.825586 
L 489.959142 147.085774 
L 491.347201 147.401761 
L 492.735261 166.361009 
L 494.123321 165.413047 
L 495.511381 164.781072 
L 496.89944 161.937185 
L 498.2875 186.268219 
L 499.67556 191.008031 
L 502.451679 177.736558 
L 503.839739 169.520884 
L 505.227799 158.77731 
L 506.615858 172.364771 
L 508.003918 180.896432 
L 509.391978 170.152859 
L 512.168097 183.108344 
L 514.944216 161.621197 
L 516.332276 168.572921 
L 517.720336 182.160382 
L 519.108396 180.896432 
L 520.496455 186.900194 
L 521.884515 177.104583 
L 523.272575 175.524645 
L 524.660634 183.108344 
L 526.048694 183.108344 
L 527.436754 188.480131 
L 528.824813 191.008031 
L 530.212873 183.740319 
L 531.600933 192.587968 
L 532.988993 200.171667 
L 534.377052 185.952232 
L 535.765112 167.308971 
L 537.153172 181.844395 
L 538.541231 180.580445 
L 539.929291 186.584207 
L 541.317351 173.312733 
L 542.70541 183.108344 
L 544.09347 176.788595 
L 545.48153 191.324018 
L 546.86959 187.216181 
L 548.257649 209.019316 
L 549.645709 205.859442 
L 552.421828 191.324018 
L 553.809888 173.312733 
L 555.197948 187.216181 
L 556.586007 191.071228 
L 559.362127 176.125022 
L 560.750187 183.424332 
L 562.138246 195.242263 
L 563.526306 195.589849 
L 564.914366 204.279504 
L 566.302425 203.584332 
L 566.302425 203.584332 
" clip-path="url(#p3ed39f4feb)" style="fill: none; stroke-dasharray: 1.5,2.475; stroke-dashoffset: 0; stroke: #000000; stroke-width: 1.5"/>
   </g>
   <g id="line2d_19">
    <path d="M 59.660634 218.182953 
L 61.048694 235.562263 
L 62.436754 242.513987 
L 63.824813 218.182953 
L 65.212873 186.900194 
L 66.600933 197.32778 
L 67.988993 193.851918 
L 69.377052 159.093297 
L 70.765112 221.658815 
L 72.153172 186.900194 
L 73.541231 162.569159 
L 74.929291 183.424332 
L 76.317351 200.803642 
L 77.70541 294.651918 
L 79.09347 332.886401 
L 80.48153 301.603642 
L 81.86959 259.893297 
L 83.257649 148.665711 
L 84.645709 249.465711 
L 86.033769 273.796746 
L 87.421828 277.272608 
L 88.809888 218.182953 
L 90.197948 211.231228 
L 91.586007 221.658815 
L 92.974067 211.231228 
L 94.362127 221.658815 
L 95.750187 200.803642 
L 97.138246 190.376056 
L 98.526306 172.996746 
L 99.914366 162.569159 
L 101.302425 166.045022 
L 102.690485 166.045022 
L 104.078545 183.424332 
L 105.466604 169.520884 
L 108.242724 197.32778 
L 109.630784 179.94847 
L 113.794963 159.093297 
L 115.183022 190.376056 
L 116.571082 211.231228 
L 117.959142 207.755366 
L 119.347201 186.900194 
L 122.123321 179.94847 
L 123.511381 166.045022 
L 124.89944 239.038125 
L 126.2875 232.086401 
L 127.67556 183.424332 
L 129.063619 145.189849 
L 130.451679 152.141573 
L 131.839739 117.382953 
L 133.227799 159.093297 
L 136.003918 131.286401 
L 137.391978 134.762263 
L 138.780037 141.713987 
L 140.168097 176.472608 
L 141.556157 249.465711 
L 142.944216 183.424332 
L 144.332276 138.238125 
L 145.720336 141.713987 
L 147.108396 131.286401 
L 148.496455 103.479504 
L 151.272575 159.093297 
L 152.660634 131.286401 
L 154.048694 204.279504 
L 155.436754 186.900194 
L 156.824813 166.045022 
L 158.212873 152.141573 
L 159.600933 127.810539 
L 162.377052 155.617435 
L 163.765112 159.093297 
L 165.153172 190.376056 
L 166.541231 193.851918 
L 169.317351 186.900194 
L 170.70541 197.32778 
L 172.09347 145.189849 
L 173.48153 166.045022 
L 174.86959 166.045022 
L 176.257649 145.189849 
L 177.645709 190.376056 
L 179.033769 186.900194 
L 180.421828 155.617435 
L 181.809888 148.665711 
L 183.197948 152.141573 
L 184.586007 145.189849 
L 185.974067 134.762263 
L 187.362127 159.093297 
L 188.750187 138.238125 
L 190.138246 120.858815 
L 191.526306 124.334677 
L 192.914366 145.189849 
L 194.302425 138.238125 
L 195.690485 141.713987 
L 197.078545 124.334677 
L 198.466604 176.472608 
L 199.854664 134.762263 
L 201.242724 138.238125 
L 202.630784 138.238125 
L 204.018843 131.286401 
L 205.406903 127.810539 
L 206.794963 145.189849 
L 208.183022 131.286401 
L 209.571082 110.431228 
L 210.959142 155.617435 
L 212.347201 172.996746 
L 213.735261 176.472608 
L 215.123321 166.045022 
L 216.511381 162.569159 
L 217.89944 127.810539 
L 219.2875 134.762263 
L 220.67556 124.334677 
L 222.063619 127.810539 
L 223.451679 138.238125 
L 224.839739 110.431228 
L 226.227799 117.382953 
L 227.615858 141.713987 
L 229.003918 141.713987 
L 230.391978 155.617435 
L 231.780037 141.713987 
L 233.168097 138.238125 
L 234.556157 117.382953 
L 235.944216 106.955366 
L 237.332276 110.431228 
L 238.720336 100.003642 
L 240.108396 120.858815 
L 241.496455 131.286401 
L 242.884515 159.093297 
L 244.272575 141.713987 
L 245.660634 100.003642 
L 247.048694 93.051918 
L 248.436754 131.286401 
L 249.824813 120.858815 
L 251.212873 86.100194 
L 252.600933 100.003642 
L 253.988993 93.051918 
L 255.377052 89.576056 
L 256.765112 89.576056 
L 258.153172 96.52778 
L 259.541231 79.14847 
L 260.929291 75.672608 
L 262.317351 86.100194 
L 263.70541 79.14847 
L 265.09347 113.907091 
L 266.48153 100.003642 
L 267.86959 96.52778 
L 269.257649 106.955366 
L 270.645709 103.479504 
L 272.033769 93.051918 
L 273.421828 89.576056 
L 274.809888 79.14847 
L 276.197948 103.479504 
L 277.586007 82.624332 
L 280.362127 89.576056 
L 281.750187 86.100194 
L 283.138246 89.576056 
L 284.526306 86.100194 
L 285.914366 100.003642 
L 287.302425 82.624332 
L 288.690485 82.624332 
L 290.078545 86.100194 
L 291.466604 82.624332 
L 292.854664 86.100194 
L 294.242724 86.100194 
L 295.630784 138.238125 
L 297.018843 103.479504 
L 298.406903 100.003642 
L 299.794963 93.051918 
L 301.183022 93.051918 
L 302.571082 86.100194 
L 305.347201 86.100194 
L 306.735261 79.14847 
L 308.123321 82.624332 
L 309.511381 75.672608 
L 310.89944 82.624332 
L 312.2875 79.14847 
L 313.67556 72.196746 
L 315.063619 79.14847 
L 317.839739 72.196746 
L 319.227799 75.672608 
L 320.615858 93.051918 
L 322.003918 96.52778 
L 323.391978 86.100194 
L 324.780037 82.624332 
L 326.168097 89.576056 
L 327.556157 117.382953 
L 328.944216 110.431228 
L 330.332276 100.003642 
L 331.720336 86.100194 
L 333.108396 82.624332 
L 335.884515 89.576056 
L 337.272575 96.52778 
L 338.660634 89.576056 
L 340.048694 86.100194 
L 341.436754 103.479504 
L 342.824813 134.762263 
L 344.212873 110.431228 
L 345.600933 113.907091 
L 346.988993 110.431228 
L 348.377052 120.858815 
L 349.765112 117.382953 
L 351.153172 89.576056 
L 352.541231 93.051918 
L 356.70541 82.624332 
L 358.09347 75.672608 
L 359.48153 86.100194 
L 360.86959 79.14847 
L 362.257649 79.14847 
L 363.645709 65.245022 
L 365.033769 75.672608 
L 366.421828 75.672608 
L 367.809888 82.624332 
L 369.197948 82.624332 
L 370.586007 75.672608 
L 371.974067 79.14847 
L 373.362127 79.14847 
L 374.750187 75.672608 
L 376.138246 75.672608 
L 377.526306 68.720884 
L 378.914366 68.720884 
L 381.690485 54.817435 
L 383.078545 44.389849 
L 384.466604 54.817435 
L 385.854664 72.196746 
L 387.242724 82.624332 
L 388.630784 82.624332 
L 390.018843 103.479504 
L 391.406903 100.003642 
L 392.794963 89.576056 
L 395.571082 96.52778 
L 398.347201 89.576056 
L 399.735261 93.051918 
L 401.123321 106.955366 
L 402.511381 106.955366 
L 403.89944 110.431228 
L 405.2875 96.52778 
L 406.67556 100.003642 
L 408.063619 113.907091 
L 409.451679 106.955366 
L 410.839739 96.52778 
L 412.227799 100.003642 
L 413.615858 86.100194 
L 415.003918 79.14847 
L 416.391978 79.14847 
L 417.780037 75.672608 
L 420.556157 82.624332 
L 421.944216 75.672608 
L 423.332276 75.672608 
L 424.720336 72.196746 
L 426.108396 82.624332 
L 427.496455 82.624332 
L 428.884515 89.576056 
L 430.272575 89.576056 
L 431.660634 79.14847 
L 433.048694 110.431228 
L 434.436754 93.051918 
L 435.824813 89.576056 
L 437.212873 89.576056 
L 438.600933 82.624332 
L 439.988993 82.624332 
L 441.377052 93.051918 
L 442.765112 89.576056 
L 444.153172 89.576056 
L 445.541231 93.051918 
L 446.929291 89.576056 
L 448.317351 89.576056 
L 451.09347 96.52778 
L 452.48153 86.100194 
L 453.86959 96.52778 
L 455.257649 89.576056 
L 456.645709 75.672608 
L 458.033769 79.14847 
L 459.421828 79.14847 
L 460.809888 162.569159 
L 462.197948 155.617435 
L 463.586007 127.810539 
L 464.974067 117.382953 
L 466.362127 120.858815 
L 467.750187 117.382953 
L 469.138246 110.431228 
L 470.526306 106.955366 
L 473.302425 106.955366 
L 474.690485 100.003642 
L 476.078545 100.003642 
L 478.854664 106.955366 
L 480.242724 100.003642 
L 481.630784 120.858815 
L 483.018843 148.665711 
L 484.406903 131.286401 
L 485.794963 110.431228 
L 487.183022 113.907091 
L 488.571082 162.569159 
L 489.959142 138.238125 
L 491.347201 110.431228 
L 492.735261 110.431228 
L 494.123321 141.713987 
L 495.511381 117.382953 
L 498.2875 131.286401 
L 499.67556 113.907091 
L 501.063619 152.141573 
L 502.451679 152.141573 
L 503.839739 131.286401 
L 505.227799 120.858815 
L 506.615858 141.713987 
L 508.003918 124.334677 
L 509.391978 179.94847 
L 510.780037 166.045022 
L 512.168097 148.665711 
L 513.556157 145.189849 
L 514.944216 131.286401 
L 516.332276 120.858815 
L 517.720336 190.376056 
L 519.108396 138.238125 
L 520.496455 204.279504 
L 521.884515 211.231228 
L 523.272575 190.376056 
L 524.660634 172.996746 
L 526.048694 179.94847 
L 527.436754 193.851918 
L 528.824813 214.707091 
L 530.212873 207.755366 
L 531.600933 235.562263 
L 532.988993 252.941573 
L 534.377052 207.755366 
L 535.765112 124.334677 
L 537.153172 204.279504 
L 538.541231 197.32778 
L 539.929291 186.900194 
L 541.317351 186.900194 
L 542.70541 141.713987 
L 544.09347 138.238125 
L 545.48153 138.238125 
L 546.86959 141.713987 
L 548.257649 172.996746 
L 549.645709 179.94847 
L 551.033769 183.424332 
L 552.421828 200.803642 
L 553.809888 172.996746 
L 555.197948 148.665711 
L 555.197948 148.665711 
" clip-path="url(#p3ed39f4feb)" style="fill: none; stroke: #ff0000; stroke-width: 1.5; stroke-linecap: square"/>
   </g>
   <g id="patch_3">
    <path d="M 33.2875 354.958125 
L 33.2875 22.318125 
" style="fill: none; stroke: #000000; stroke-width: 0.8; stroke-linejoin: miter; stroke-linecap: square"/>
   </g>
   <g id="patch_4">
    <path d="M 591.2875 354.958125 
L 591.2875 22.318125 
" style="fill: none; stroke: #000000; stroke-width: 0.8; stroke-linejoin: miter; stroke-linecap: square"/>
   </g>
   <g id="patch_5">
    <path d="M 33.2875 354.958125 
L 591.2875 354.958125 
" style="fill: none; stroke: #000000; stroke-width: 0.8; stroke-linejoin: miter; stroke-linecap: square"/>
   </g>
   <g id="patch_6">
    <path d="M 33.2875 22.318125 
L 591.2875 22.318125 
" style="fill: none; stroke: #000000; stroke-width: 0.8; stroke-linejoin: miter; stroke-linecap: square"/>
   </g>
   <g id="text_19">
    <!-- Max Daily Temperatures Recorded in the Austin-Bergstrom Airport Area -->
    <g transform="translate(98.320938 16.318125) scale(0.12 -0.12)">
     <defs>
      <path id="DejaVuSans-78" d="M 3513 3500 
L 2247 1797 
L 3578 0 
L 2900 0 
L 1881 1375 
L 863 0 
L 184 0 
L 1544 1831 
L 300 3500 
L 978 3500 
L 1906 2253 
L 2834 3500 
L 3513 3500 
z
" transform="scale(0.015625)"/>
      <path id="DejaVuSans-20" transform="scale(0.015625)"/>
      <path id="DejaVuSans-54" d="M -19 4666 
L 3928 4666 
L 3928 4134 
L 2272 4134 
L 2272 0 
L 1638 0 
L 1638 4134 
L -19 4134 
L -19 4666 
z
" transform="scale(0.015625)"/>
      <path id="DejaVuSans-52" d="M 2841 2188 
Q 3044 2119 3236 1894 
Q 3428 1669 3622 1275 
L 4263 0 
L 3584 0 
L 2988 1197 
Q 2756 1666 2539 1819 
Q 2322 1972 1947 1972 
L 1259 1972 
L 1259 0 
L 628 0 
L 628 4666 
L 2053 4666 
Q 2853 4666 3247 4331 
Q 3641 3997 3641 3322 
Q 3641 2881 3436 2590 
Q 3231 2300 2841 2188 
z
M 1259 4147 
L 1259 2491 
L 2053 2491 
Q 2509 2491 2742 2702 
Q 2975 2913 2975 3322 
Q 2975 3731 2742 3939 
Q 2509 4147 2053 4147 
L 1259 4147 
z
" transform="scale(0.015625)"/>
      <path id="DejaVuSans-2d" d="M 313 2009 
L 1997 2009 
L 1997 1497 
L 313 1497 
L 313 2009 
z
" transform="scale(0.015625)"/>
      <path id="DejaVuSans-42" d="M 1259 2228 
L 1259 519 
L 2272 519 
Q 2781 519 3026 730 
Q 3272 941 3272 1375 
Q 3272 1813 3026 2020 
Q 2781 2228 2272 2228 
L 1259 2228 
z
M 1259 4147 
L 1259 2741 
L 2194 2741 
Q 2656 2741 2882 2914 
Q 3109 3088 3109 3444 
Q 3109 3797 2882 3972 
Q 2656 4147 2194 4147 
L 1259 4147 
z
M 628 4666 
L 2241 4666 
Q 2963 4666 3353 4366 
Q 3744 4066 3744 3513 
Q 3744 3084 3544 2831 
Q 3344 2578 2956 2516 
Q 3422 2416 3680 2098 
Q 3938 1781 3938 1306 
Q 3938 681 3513 340 
Q 3088 0 2303 0 
L 628 0 
L 628 4666 
z
" transform="scale(0.015625)"/>
     </defs>
     <use xlink:href="#DejaVuSans-4d"/>
     <use xlink:href="#DejaVuSans-61" x="86.279297"/>
     <use xlink:href="#DejaVuSans-78" x="147.558594"/>
     <use xlink:href="#DejaVuSans-20" x="206.738281"/>
     <use xlink:href="#DejaVuSans-44" x="238.525391"/>
     <use xlink:href="#DejaVuSans-61" x="315.527344"/>
     <use xlink:href="#DejaVuSans-69" x="376.806641"/>
     <use xlink:href="#DejaVuSans-6c" x="404.589844"/>
     <use xlink:href="#DejaVuSans-79" x="432.373047"/>
     <use xlink:href="#DejaVuSans-20" x="491.552734"/>
     <use xlink:href="#DejaVuSans-54" x="523.339844"/>
     <use xlink:href="#DejaVuSans-65" x="567.423828"/>
     <use xlink:href="#DejaVuSans-6d" x="628.947266"/>
     <use xlink:href="#DejaVuSans-70" x="726.359375"/>
     <use xlink:href="#DejaVuSans-65" x="789.835938"/>
     <use xlink:href="#DejaVuSans-72" x="851.359375"/>
     <use xlink:href="#DejaVuSans-61" x="892.472656"/>
     <use xlink:href="#DejaVuSans-74" x="953.751953"/>
     <use xlink:href="#DejaVuSans-75" x="992.960938"/>
     <use xlink:href="#DejaVuSans-72" x="1056.339844"/>
     <use xlink:href="#DejaVuSans-65" x="1095.203125"/>
     <use xlink:href="#DejaVuSans-73" x="1156.726562"/>
     <use xlink:href="#DejaVuSans-20" x="1208.826172"/>
     <use xlink:href="#DejaVuSans-52" x="1240.613281"/>
     <use xlink:href="#DejaVuSans-65" x="1305.595703"/>
     <use xlink:href="#DejaVuSans-63" x="1367.119141"/>
     <use xlink:href="#DejaVuSans-6f" x="1422.099609"/>
     <use xlink:href="#DejaVuSans-72" x="1483.28125"/>
     <use xlink:href="#DejaVuSans-64" x="1522.644531"/>
     <use xlink:href="#DejaVuSans-65" x="1586.121094"/>
     <use xlink:href="#DejaVuSans-64" x="1647.644531"/>
     <use xlink:href="#DejaVuSans-20" x="1711.121094"/>
     <use xlink:href="#DejaVuSans-69" x="1742.908203"/>
     <use xlink:href="#DejaVuSans-6e" x="1770.691406"/>
     <use xlink:href="#DejaVuSans-20" x="1834.070312"/>
     <use xlink:href="#DejaVuSans-74" x="1865.857422"/>
     <use xlink:href="#DejaVuSans-68" x="1905.066406"/>
     <use xlink:href="#DejaVuSans-65" x="1968.445312"/>
     <use xlink:href="#DejaVuSans-20" x="2029.96875"/>
     <use xlink:href="#DejaVuSans-41" x="2061.755859"/>
     <use xlink:href="#DejaVuSans-75" x="2130.164062"/>
     <use xlink:href="#DejaVuSans-73" x="2193.542969"/>
     <use xlink:href="#DejaVuSans-74" x="2245.642578"/>
     <use xlink:href="#DejaVuSans-69" x="2284.851562"/>
     <use xlink:href="#DejaVuSans-6e" x="2312.634766"/>
     <use xlink:href="#DejaVuSans-2d" x="2376.013672"/>
     <use xlink:href="#DejaVuSans-42" x="2408.472656"/>
     <use xlink:href="#DejaVuSans-65" x="2477.076172"/>
     <use xlink:href="#DejaVuSans-72" x="2538.599609"/>
     <use xlink:href="#DejaVuSans-67" x="2577.962891"/>
     <use xlink:href="#DejaVuSans-73" x="2641.439453"/>
     <use xlink:href="#DejaVuSans-74" x="2693.539062"/>
     <use xlink:href="#DejaVuSans-72" x="2732.748047"/>
     <use xlink:href="#DejaVuSans-6f" x="2771.611328"/>
     <use xlink:href="#DejaVuSans-6d" x="2832.792969"/>
     <use xlink:href="#DejaVuSans-20" x="2930.205078"/>
     <use xlink:href="#DejaVuSans-41" x="2961.992188"/>
     <use xlink:href="#DejaVuSans-69" x="3030.400391"/>
     <use xlink:href="#DejaVuSans-72" x="3058.183594"/>
     <use xlink:href="#DejaVuSans-70" x="3099.296875"/>
     <use xlink:href="#DejaVuSans-6f" x="3162.773438"/>
     <use xlink:href="#DejaVuSans-72" x="3223.955078"/>
     <use xlink:href="#DejaVuSans-74" x="3265.068359"/>
     <use xlink:href="#DejaVuSans-20" x="3304.277344"/>
     <use xlink:href="#DejaVuSans-41" x="3336.064453"/>
     <use xlink:href="#DejaVuSans-72" x="3404.472656"/>
     <use xlink:href="#DejaVuSans-65" x="3443.335938"/>
     <use xlink:href="#DejaVuSans-61" x="3504.859375"/>
    </g>
   </g>
   <g id="legend_1">
    <g id="patch_7">
     <path d="M 40.2875 74.3525 
L 179.003125 74.3525 
Q 181.003125 74.3525 181.003125 72.3525 
L 181.003125 29.318125 
Q 181.003125 27.318125 179.003125 27.318125 
L 40.2875 27.318125 
Q 38.2875 27.318125 38.2875 29.318125 
L 38.2875 72.3525 
Q 38.2875 74.3525 40.2875 74.3525 
z
" style="fill: #ffffff; opacity: 0.8; stroke: #cccccc; stroke-linejoin: miter"/>
    </g>
    <g id="patch_8">
     <path d="M 42.2875 38.916562 
L 62.2875 38.916562 
L 62.2875 31.916562 
L 42.2875 31.916562 
z
" style="fill: #0000ff; opacity: 0.2; stroke: #0000ff; stroke-linejoin: miter"/>
    </g>
    <g id="text_20">
     <!-- Prior 10-Year Range -->
     <g transform="translate(70.2875 38.916562) scale(0.1 -0.1)">
      <defs>
       <path id="DejaVuSans-50" d="M 1259 4147 
L 1259 2394 
L 2053 2394 
Q 2494 2394 2734 2622 
Q 2975 2850 2975 3272 
Q 2975 3691 2734 3919 
Q 2494 4147 2053 4147 
L 1259 4147 
z
M 628 4666 
L 2053 4666 
Q 2838 4666 3239 4311 
Q 3641 3956 3641 3272 
Q 3641 2581 3239 2228 
Q 2838 1875 2053 1875 
L 1259 1875 
L 1259 0 
L 628 0 
L 628 4666 
z
" transform="scale(0.015625)"/>
       <path id="DejaVuSans-59" d="M -13 4666 
L 666 4666 
L 1959 2747 
L 3244 4666 
L 3922 4666 
L 2272 2222 
L 2272 0 
L 1638 0 
L 1638 2222 
L -13 4666 
z
" transform="scale(0.015625)"/>
      </defs>
      <use xlink:href="#DejaVuSans-50"/>
      <use xlink:href="#DejaVuSans-72" x="58.552734"/>
      <use xlink:href="#DejaVuSans-69" x="99.666016"/>
      <use xlink:href="#DejaVuSans-6f" x="127.449219"/>
      <use xlink:href="#DejaVuSans-72" x="188.630859"/>
      <use xlink:href="#DejaVuSans-20" x="229.744141"/>
      <use xlink:href="#DejaVuSans-31" x="261.53125"/>
      <use xlink:href="#DejaVuSans-30" x="325.154297"/>
      <use xlink:href="#DejaVuSans-2d" x="388.777344"/>
      <use xlink:href="#DejaVuSans-59" x="412.986328"/>
      <use xlink:href="#DejaVuSans-65" x="460.820312"/>
      <use xlink:href="#DejaVuSans-61" x="522.34375"/>
      <use xlink:href="#DejaVuSans-72" x="583.623047"/>
      <use xlink:href="#DejaVuSans-20" x="624.736328"/>
      <use xlink:href="#DejaVuSans-52" x="656.523438"/>
      <use xlink:href="#DejaVuSans-61" x="723.755859"/>
      <use xlink:href="#DejaVuSans-6e" x="785.035156"/>
      <use xlink:href="#DejaVuSans-67" x="848.414062"/>
      <use xlink:href="#DejaVuSans-65" x="911.890625"/>
     </g>
    </g>
    <g id="line2d_20">
     <path d="M 42.2875 50.094687 
L 52.2875 50.094687 
L 62.2875 50.094687 
" style="fill: none; stroke-dasharray: 1.5,2.475; stroke-dashoffset: 0; stroke: #000000; stroke-width: 1.5"/>
    </g>
    <g id="text_21">
     <!-- Prior 10-Year Average -->
     <g transform="translate(70.2875 53.594687) scale(0.1 -0.1)">
      <use xlink:href="#DejaVuSans-50"/>
      <use xlink:href="#DejaVuSans-72" x="58.552734"/>
      <use xlink:href="#DejaVuSans-69" x="99.666016"/>
      <use xlink:href="#DejaVuSans-6f" x="127.449219"/>
      <use xlink:href="#DejaVuSans-72" x="188.630859"/>
      <use xlink:href="#DejaVuSans-20" x="229.744141"/>
      <use xlink:href="#DejaVuSans-31" x="261.53125"/>
      <use xlink:href="#DejaVuSans-30" x="325.154297"/>
      <use xlink:href="#DejaVuSans-2d" x="388.777344"/>
      <use xlink:href="#DejaVuSans-59" x="412.986328"/>
      <use xlink:href="#DejaVuSans-65" x="460.820312"/>
      <use xlink:href="#DejaVuSans-61" x="522.34375"/>
      <use xlink:href="#DejaVuSans-72" x="583.623047"/>
      <use xlink:href="#DejaVuSans-20" x="624.736328"/>
      <use xlink:href="#DejaVuSans-41" x="656.523438"/>
      <use xlink:href="#DejaVuSans-76" x="719.056641"/>
      <use xlink:href="#DejaVuSans-65" x="778.236328"/>
      <use xlink:href="#DejaVuSans-72" x="839.759766"/>
      <use xlink:href="#DejaVuSans-61" x="880.873047"/>
      <use xlink:href="#DejaVuSans-67" x="942.152344"/>
      <use xlink:href="#DejaVuSans-65" x="1005.628906"/>
     </g>
    </g>
    <g id="patch_9">
     <path d="M 42.2875 68.272812 
L 62.2875 68.272812 
L 62.2875 61.272812 
L 42.2875 61.272812 
z
" style="fill: #ff0000; stroke: #ff0000; stroke-linejoin: miter"/>
    </g>
    <g id="text_22">
     <!-- 2024 -->
     <g transform="translate(70.2875 68.272812) scale(0.1 -0.1)">
      <use xlink:href="#DejaVuSans-32"/>
      <use xlink:href="#DejaVuSans-30" x="63.623047"/>
      <use xlink:href="#DejaVuSans-32" x="127.246094"/>
      <use xlink:href="#DejaVuSans-34" x="190.869141"/>
     </g>
    </g>
   </g>
  </g>
 </g>
 <defs>
  <clipPath id="p3ed39f4feb">
   <rect x="33.2875" y="22.318125" width="558" height="332.64"/>
  </clipPath>
 </defs>
</svg>
