<?xml version="1.0" encoding="utf-8" standalone="no"?>
<!DOCTYPE svg PUBLIC "-//W3C//DTD SVG 1.1//EN"
  "http://www.w3.org/Graphics/SVG/1.1/DTD/svg11.dtd">
<svg xmlns:xlink="http://www.w3.org/1999/xlink" width="1134.924597pt" height="631.684522pt" viewBox="0 0 1134.924597 631.684522" xmlns="http://www.w3.org/2000/svg" version="1.1">
 <metadata>
  <rdf:RDF xmlns:dc="http://purl.org/dc/elements/1.1/" xmlns:cc="http://creativecommons.org/ns#" xmlns:rdf="http://www.w3.org/1999/02/22-rdf-syntax-ns#">
   <cc:Work>
    <dc:type rdf:resource="http://purl.org/dc/dcmitype/StillImage"/>
    <dc:date>2025-10-12T13:33:19.536297</dc:date>
    <dc:format>image/svg+xml</dc:format>
    <dc:creator>
     <cc:Agent>
      <dc:title>Matplotlib v3.10.7, https://matplotlib.org/</dc:title>
     </cc:Agent>
    </dc:creator>
   </cc:Work>
  </rdf:RDF>
 </metadata>
 <defs>
  <style type="text/css">*{stroke-linejoin: round; stroke-linecap: butt}</style>
 </defs>
 <g id="figure_1">
  <g id="patch_1">
   <path d="M 0 631.684522 
L 1134.924597 631.684522 
L 1134.924597 0 
L 0 0 
z
" style="fill: #f0f0f0"/>
  </g>
  <g id="axes_1">
   <g id="patch_2">
    <path d="M 81.983938 537.712707 
L 1127.724597 537.712707 
L 1127.724597 50.877187 
L 81.983938 50.877187 
z
" style="fill: #f0f0f0"/>
   </g>
   <g id="matplotlib.axis_1">
    <g id="xtick_1">
     <g id="line2d_1">
      <path d="M 115.320602 537.712707 
L 115.320602 50.877187 
" clip-path="url(#pd5a22dec33)" style="fill: none; stroke: #cbcbcb"/>
     </g>
     <g id="line2d_2"/>
     <g id="text_1">
      <!-- Q4 2020 -->
      <g transform="translate(70.830106 591.166487) rotate(-45) scale(0.14 -0.14)">
       <defs>
        <path id="DejaVuSans-51" d="M 2522 4238 
Q 1834 4238 1429 3725 
Q 1025 3213 1025 2328 
Q 1025 1447 1429 934 
Q 1834 422 2522 422 
Q 3209 422 3611 934 
Q 4013 1447 4013 2328 
Q 4013 3213 3611 3725 
Q 3209 4238 2522 4238 
z
M 3406 84 
L 4238 -825 
L 3475 -825 
L 2784 -78 
Q 2681 -84 2626 -87 
Q 2572 -91 2522 -91 
Q 1538 -91 948 567 
Q 359 1225 359 2328 
Q 359 3434 948 4092 
Q 1538 4750 2522 4750 
Q 3503 4750 4090 4092 
Q 4678 3434 4678 2328 
Q 4678 1516 4351 937 
Q 4025 359 3406 84 
z
" transform="scale(0.015625)"/>
        <path id="DejaVuSans-34" d="M 2419 4116 
L 825 1625 
L 2419 1625 
L 2419 4116 
z
M 2253 4666 
L 3047 4666 
L 3047 1625 
L 3713 1625 
L 3713 1100 
L 3047 1100 
L 3047 0 
L 2419 0 
L 2419 1100 
L 313 1100 
L 313 1709 
L 2253 4666 
z
" transform="scale(0.015625)"/>
        <path id="DejaVuSans-20" transform="scale(0.015625)"/>
        <path id="DejaVuSans-32" d="M 1228 531 
L 3431 531 
L 3431 0 
L 469 0 
L 469 531 
Q 828 903 1448 1529 
Q 2069 2156 2228 2338 
Q 2531 2678 2651 2914 
Q 2772 3150 2772 3378 
Q 2772 3750 2511 3984 
Q 2250 4219 1831 4219 
Q 1534 4219 1204 4116 
Q 875 4013 500 3803 
L 500 4441 
Q 881 4594 1212 4672 
Q 1544 4750 1819 4750 
Q 2544 4750 2975 4387 
Q 3406 4025 3406 3419 
Q 3406 3131 3298 2873 
Q 3191 2616 2906 2266 
Q 2828 2175 2409 1742 
Q 1991 1309 1228 531 
z
" transform="scale(0.015625)"/>
        <path id="DejaVuSans-30" d="M 2034 4250 
Q 1547 4250 1301 3770 
Q 1056 3291 1056 2328 
Q 1056 1369 1301 889 
Q 1547 409 2034 409 
Q 2525 409 2770 889 
Q 3016 1369 3016 2328 
Q 3016 3291 2770 3770 
Q 2525 4250 2034 4250 
z
M 2034 4750 
Q 2819 4750 3233 4129 
Q 3647 3509 3647 2328 
Q 3647 1150 3233 529 
Q 2819 -91 2034 -91 
Q 1250 -91 836 529 
Q 422 1150 422 2328 
Q 422 3509 836 4129 
Q 1250 4750 2034 4750 
z
" transform="scale(0.015625)"/>
       </defs>
       <use xlink:href="#DejaVuSans-51"/>
       <use xlink:href="#DejaVuSans-34" transform="translate(78.710938 0)"/>
       <use xlink:href="#DejaVuSans-20" transform="translate(142.333984 0)"/>
       <use xlink:href="#DejaVuSans-32" transform="translate(174.121094 0)"/>
       <use xlink:href="#DejaVuSans-30" transform="translate(237.744141 0)"/>
       <use xlink:href="#DejaVuSans-32" transform="translate(301.367188 0)"/>
       <use xlink:href="#DejaVuSans-30" transform="translate(364.990234 0)"/>
      </g>
     </g>
    </g>
    <g id="xtick_2">
     <g id="line2d_3">
      <path d="M 163.695572 537.712707 
L 163.695572 50.877187 
" clip-path="url(#pd5a22dec33)" style="fill: none; stroke: #cbcbcb"/>
     </g>
     <g id="line2d_4"/>
     <g id="text_2">
      <!-- Q1 2021 -->
      <g transform="translate(119.205076 591.166487) rotate(-45) scale(0.14 -0.14)">
       <defs>
        <path id="DejaVuSans-31" d="M 794 531 
L 1825 531 
L 1825 4091 
L 703 3866 
L 703 4441 
L 1819 4666 
L 2450 4666 
L 2450 531 
L 3481 531 
L 3481 0 
L 794 0 
L 794 531 
z
" transform="scale(0.015625)"/>
       </defs>
       <use xlink:href="#DejaVuSans-51"/>
       <use xlink:href="#DejaVuSans-31" transform="translate(78.710938 0)"/>
       <use xlink:href="#DejaVuSans-20" transform="translate(142.333984 0)"/>
       <use xlink:href="#DejaVuSans-32" transform="translate(174.121094 0)"/>
       <use xlink:href="#DejaVuSans-30" transform="translate(237.744141 0)"/>
       <use xlink:href="#DejaVuSans-32" transform="translate(301.367188 0)"/>
       <use xlink:href="#DejaVuSans-31" transform="translate(364.990234 0)"/>
      </g>
     </g>
    </g>
    <g id="xtick_3">
     <g id="line2d_5">
      <path d="M 211.018912 537.712707 
L 211.018912 50.877187 
" clip-path="url(#pd5a22dec33)" style="fill: none; stroke: #cbcbcb"/>
     </g>
     <g id="line2d_6"/>
     <g id="text_3">
      <!-- Q2 2021 -->
      <g transform="translate(166.528417 591.166487) rotate(-45) scale(0.14 -0.14)">
       <use xlink:href="#DejaVuSans-51"/>
       <use xlink:href="#DejaVuSans-32" transform="translate(78.710938 0)"/>
       <use xlink:href="#DejaVuSans-20" transform="translate(142.333984 0)"/>
       <use xlink:href="#DejaVuSans-32" transform="translate(174.121094 0)"/>
       <use xlink:href="#DejaVuSans-30" transform="translate(237.744141 0)"/>
       <use xlink:href="#DejaVuSans-32" transform="translate(301.367188 0)"/>
       <use xlink:href="#DejaVuSans-31" transform="translate(364.990234 0)"/>
      </g>
     </g>
    </g>
    <g id="xtick_4">
     <g id="line2d_7">
      <path d="M 258.868068 537.712707 
L 258.868068 50.877187 
" clip-path="url(#pd5a22dec33)" style="fill: none; stroke: #cbcbcb"/>
     </g>
     <g id="line2d_8"/>
     <g id="text_4">
      <!-- Q3 2021 -->
      <g transform="translate(214.377572 591.166487) rotate(-45) scale(0.14 -0.14)">
       <defs>
        <path id="DejaVuSans-33" d="M 2597 2516 
Q 3050 2419 3304 2112 
Q 3559 1806 3559 1356 
Q 3559 666 3084 287 
Q 2609 -91 1734 -91 
Q 1441 -91 1130 -33 
Q 819 25 488 141 
L 488 750 
Q 750 597 1062 519 
Q 1375 441 1716 441 
Q 2309 441 2620 675 
Q 2931 909 2931 1356 
Q 2931 1769 2642 2001 
Q 2353 2234 1838 2234 
L 1294 2234 
L 1294 2753 
L 1863 2753 
Q 2328 2753 2575 2939 
Q 2822 3125 2822 3475 
Q 2822 3834 2567 4026 
Q 2313 4219 1838 4219 
Q 1578 4219 1281 4162 
Q 984 4106 628 3988 
L 628 4550 
Q 988 4650 1302 4700 
Q 1616 4750 1894 4750 
Q 2613 4750 3031 4423 
Q 3450 4097 3450 3541 
Q 3450 3153 3228 2886 
Q 3006 2619 2597 2516 
z
" transform="scale(0.015625)"/>
       </defs>
       <use xlink:href="#DejaVuSans-51"/>
       <use xlink:href="#DejaVuSans-33" transform="translate(78.710938 0)"/>
       <use xlink:href="#DejaVuSans-20" transform="translate(142.333984 0)"/>
       <use xlink:href="#DejaVuSans-32" transform="translate(174.121094 0)"/>
       <use xlink:href="#DejaVuSans-30" transform="translate(237.744141 0)"/>
       <use xlink:href="#DejaVuSans-32" transform="translate(301.367188 0)"/>
       <use xlink:href="#DejaVuSans-31" transform="translate(364.990234 0)"/>
      </g>
     </g>
    </g>
    <g id="xtick_5">
     <g id="line2d_9">
      <path d="M 307.243038 537.712707 
L 307.243038 50.877187 
" clip-path="url(#pd5a22dec33)" style="fill: none; stroke: #cbcbcb"/>
     </g>
     <g id="line2d_10"/>
     <g id="text_5">
      <!-- Q4 2021 -->
      <g transform="translate(262.752542 591.166487) rotate(-45) scale(0.14 -0.14)">
       <use xlink:href="#DejaVuSans-51"/>
       <use xlink:href="#DejaVuSans-34" transform="translate(78.710938 0)"/>
       <use xlink:href="#DejaVuSans-20" transform="translate(142.333984 0)"/>
       <use xlink:href="#DejaVuSans-32" transform="translate(174.121094 0)"/>
       <use xlink:href="#DejaVuSans-30" transform="translate(237.744141 0)"/>
       <use xlink:href="#DejaVuSans-32" transform="translate(301.367188 0)"/>
       <use xlink:href="#DejaVuSans-31" transform="translate(364.990234 0)"/>
      </g>
     </g>
    </g>
    <g id="xtick_6">
     <g id="line2d_11">
      <path d="M 355.618008 537.712707 
L 355.618008 50.877187 
" clip-path="url(#pd5a22dec33)" style="fill: none; stroke: #cbcbcb"/>
     </g>
     <g id="line2d_12"/>
     <g id="text_6">
      <!-- Q1 2022 -->
      <g transform="translate(311.127512 591.166487) rotate(-45) scale(0.14 -0.14)">
       <use xlink:href="#DejaVuSans-51"/>
       <use xlink:href="#DejaVuSans-31" transform="translate(78.710938 0)"/>
       <use xlink:href="#DejaVuSans-20" transform="translate(142.333984 0)"/>
       <use xlink:href="#DejaVuSans-32" transform="translate(174.121094 0)"/>
       <use xlink:href="#DejaVuSans-30" transform="translate(237.744141 0)"/>
       <use xlink:href="#DejaVuSans-32" transform="translate(301.367188 0)"/>
       <use xlink:href="#DejaVuSans-32" transform="translate(364.990234 0)"/>
      </g>
     </g>
    </g>
    <g id="xtick_7">
     <g id="line2d_13">
      <path d="M 402.941348 537.712707 
L 402.941348 50.877187 
" clip-path="url(#pd5a22dec33)" style="fill: none; stroke: #cbcbcb"/>
     </g>
     <g id="line2d_14"/>
     <g id="text_7">
      <!-- Q2 2022 -->
      <g transform="translate(358.450853 591.166487) rotate(-45) scale(0.14 -0.14)">
       <use xlink:href="#DejaVuSans-51"/>
       <use xlink:href="#DejaVuSans-32" transform="translate(78.710938 0)"/>
       <use xlink:href="#DejaVuSans-20" transform="translate(142.333984 0)"/>
       <use xlink:href="#DejaVuSans-32" transform="translate(174.121094 0)"/>
       <use xlink:href="#DejaVuSans-30" transform="translate(237.744141 0)"/>
       <use xlink:href="#DejaVuSans-32" transform="translate(301.367188 0)"/>
       <use xlink:href="#DejaVuSans-32" transform="translate(364.990234 0)"/>
      </g>
     </g>
    </g>
    <g id="xtick_8">
     <g id="line2d_15">
      <path d="M 450.790504 537.712707 
L 450.790504 50.877187 
" clip-path="url(#pd5a22dec33)" style="fill: none; stroke: #cbcbcb"/>
     </g>
     <g id="line2d_16"/>
     <g id="text_8">
      <!-- Q3 2022 -->
      <g transform="translate(406.300008 591.166487) rotate(-45) scale(0.14 -0.14)">
       <use xlink:href="#DejaVuSans-51"/>
       <use xlink:href="#DejaVuSans-33" transform="translate(78.710938 0)"/>
       <use xlink:href="#DejaVuSans-20" transform="translate(142.333984 0)"/>
       <use xlink:href="#DejaVuSans-32" transform="translate(174.121094 0)"/>
       <use xlink:href="#DejaVuSans-30" transform="translate(237.744141 0)"/>
       <use xlink:href="#DejaVuSans-32" transform="translate(301.367188 0)"/>
       <use xlink:href="#DejaVuSans-32" transform="translate(364.990234 0)"/>
      </g>
     </g>
    </g>
    <g id="xtick_9">
     <g id="line2d_17">
      <path d="M 499.165474 537.712707 
L 499.165474 50.877187 
" clip-path="url(#pd5a22dec33)" style="fill: none; stroke: #cbcbcb"/>
     </g>
     <g id="line2d_18"/>
     <g id="text_9">
      <!-- Q4 2022 -->
      <g transform="translate(454.674978 591.166487) rotate(-45) scale(0.14 -0.14)">
       <use xlink:href="#DejaVuSans-51"/>
       <use xlink:href="#DejaVuSans-34" transform="translate(78.710938 0)"/>
       <use xlink:href="#DejaVuSans-20" transform="translate(142.333984 0)"/>
       <use xlink:href="#DejaVuSans-32" transform="translate(174.121094 0)"/>
       <use xlink:href="#DejaVuSans-30" transform="translate(237.744141 0)"/>
       <use xlink:href="#DejaVuSans-32" transform="translate(301.367188 0)"/>
       <use xlink:href="#DejaVuSans-32" transform="translate(364.990234 0)"/>
      </g>
     </g>
    </g>
    <g id="xtick_10">
     <g id="line2d_19">
      <path d="M 547.540444 537.712707 
L 547.540444 50.877187 
" clip-path="url(#pd5a22dec33)" style="fill: none; stroke: #cbcbcb"/>
     </g>
     <g id="line2d_20"/>
     <g id="text_10">
      <!-- Q1 2023 -->
      <g transform="translate(503.049948 591.166487) rotate(-45) scale(0.14 -0.14)">
       <use xlink:href="#DejaVuSans-51"/>
       <use xlink:href="#DejaVuSans-31" transform="translate(78.710938 0)"/>
       <use xlink:href="#DejaVuSans-20" transform="translate(142.333984 0)"/>
       <use xlink:href="#DejaVuSans-32" transform="translate(174.121094 0)"/>
       <use xlink:href="#DejaVuSans-30" transform="translate(237.744141 0)"/>
       <use xlink:href="#DejaVuSans-32" transform="translate(301.367188 0)"/>
       <use xlink:href="#DejaVuSans-33" transform="translate(364.990234 0)"/>
      </g>
     </g>
    </g>
    <g id="xtick_11">
     <g id="line2d_21">
      <path d="M 594.863784 537.712707 
L 594.863784 50.877187 
" clip-path="url(#pd5a22dec33)" style="fill: none; stroke: #cbcbcb"/>
     </g>
     <g id="line2d_22"/>
     <g id="text_11">
      <!-- Q2 2023 -->
      <g transform="translate(550.373289 591.166487) rotate(-45) scale(0.14 -0.14)">
       <use xlink:href="#DejaVuSans-51"/>
       <use xlink:href="#DejaVuSans-32" transform="translate(78.710938 0)"/>
       <use xlink:href="#DejaVuSans-20" transform="translate(142.333984 0)"/>
       <use xlink:href="#DejaVuSans-32" transform="translate(174.121094 0)"/>
       <use xlink:href="#DejaVuSans-30" transform="translate(237.744141 0)"/>
       <use xlink:href="#DejaVuSans-32" transform="translate(301.367188 0)"/>
       <use xlink:href="#DejaVuSans-33" transform="translate(364.990234 0)"/>
      </g>
     </g>
    </g>
    <g id="xtick_12">
     <g id="line2d_23">
      <path d="M 642.71294 537.712707 
L 642.71294 50.877187 
" clip-path="url(#pd5a22dec33)" style="fill: none; stroke: #cbcbcb"/>
     </g>
     <g id="line2d_24"/>
     <g id="text_12">
      <!-- Q3 2023 -->
      <g transform="translate(598.222444 591.166487) rotate(-45) scale(0.14 -0.14)">
       <use xlink:href="#DejaVuSans-51"/>
       <use xlink:href="#DejaVuSans-33" transform="translate(78.710938 0)"/>
       <use xlink:href="#DejaVuSans-20" transform="translate(142.333984 0)"/>
       <use xlink:href="#DejaVuSans-32" transform="translate(174.121094 0)"/>
       <use xlink:href="#DejaVuSans-30" transform="translate(237.744141 0)"/>
       <use xlink:href="#DejaVuSans-32" transform="translate(301.367188 0)"/>
       <use xlink:href="#DejaVuSans-33" transform="translate(364.990234 0)"/>
      </g>
     </g>
    </g>
    <g id="xtick_13">
     <g id="line2d_25">
      <path d="M 691.08791 537.712707 
L 691.08791 50.877187 
" clip-path="url(#pd5a22dec33)" style="fill: none; stroke: #cbcbcb"/>
     </g>
     <g id="line2d_26"/>
     <g id="text_13">
      <!-- Q4 2023 -->
      <g transform="translate(646.597414 591.166487) rotate(-45) scale(0.14 -0.14)">
       <use xlink:href="#DejaVuSans-51"/>
       <use xlink:href="#DejaVuSans-34" transform="translate(78.710938 0)"/>
       <use xlink:href="#DejaVuSans-20" transform="translate(142.333984 0)"/>
       <use xlink:href="#DejaVuSans-32" transform="translate(174.121094 0)"/>
       <use xlink:href="#DejaVuSans-30" transform="translate(237.744141 0)"/>
       <use xlink:href="#DejaVuSans-32" transform="translate(301.367188 0)"/>
       <use xlink:href="#DejaVuSans-33" transform="translate(364.990234 0)"/>
      </g>
     </g>
    </g>
    <g id="xtick_14">
     <g id="line2d_27">
      <path d="M 739.46288 537.712707 
L 739.46288 50.877187 
" clip-path="url(#pd5a22dec33)" style="fill: none; stroke: #cbcbcb"/>
     </g>
     <g id="line2d_28"/>
     <g id="text_14">
      <!-- Q1 2024 -->
      <g transform="translate(694.972384 591.166487) rotate(-45) scale(0.14 -0.14)">
       <use xlink:href="#DejaVuSans-51"/>
       <use xlink:href="#DejaVuSans-31" transform="translate(78.710938 0)"/>
       <use xlink:href="#DejaVuSans-20" transform="translate(142.333984 0)"/>
       <use xlink:href="#DejaVuSans-32" transform="translate(174.121094 0)"/>
       <use xlink:href="#DejaVuSans-30" transform="translate(237.744141 0)"/>
       <use xlink:href="#DejaVuSans-32" transform="translate(301.367188 0)"/>
       <use xlink:href="#DejaVuSans-34" transform="translate(364.990234 0)"/>
      </g>
     </g>
    </g>
    <g id="xtick_15">
     <g id="line2d_29">
      <path d="M 787.312035 537.712707 
L 787.312035 50.877187 
" clip-path="url(#pd5a22dec33)" style="fill: none; stroke: #cbcbcb"/>
     </g>
     <g id="line2d_30"/>
     <g id="text_15">
      <!-- Q2 2024 -->
      <g transform="translate(742.82154 591.166487) rotate(-45) scale(0.14 -0.14)">
       <use xlink:href="#DejaVuSans-51"/>
       <use xlink:href="#DejaVuSans-32" transform="translate(78.710938 0)"/>
       <use xlink:href="#DejaVuSans-20" transform="translate(142.333984 0)"/>
       <use xlink:href="#DejaVuSans-32" transform="translate(174.121094 0)"/>
       <use xlink:href="#DejaVuSans-30" transform="translate(237.744141 0)"/>
       <use xlink:href="#DejaVuSans-32" transform="translate(301.367188 0)"/>
       <use xlink:href="#DejaVuSans-34" transform="translate(364.990234 0)"/>
      </g>
     </g>
    </g>
    <g id="xtick_16">
     <g id="line2d_31">
      <path d="M 835.161191 537.712707 
L 835.161191 50.877187 
" clip-path="url(#pd5a22dec33)" style="fill: none; stroke: #cbcbcb"/>
     </g>
     <g id="line2d_32"/>
     <g id="text_16">
      <!-- Q3 2024 -->
      <g transform="translate(790.670695 591.166487) rotate(-45) scale(0.14 -0.14)">
       <use xlink:href="#DejaVuSans-51"/>
       <use xlink:href="#DejaVuSans-33" transform="translate(78.710938 0)"/>
       <use xlink:href="#DejaVuSans-20" transform="translate(142.333984 0)"/>
       <use xlink:href="#DejaVuSans-32" transform="translate(174.121094 0)"/>
       <use xlink:href="#DejaVuSans-30" transform="translate(237.744141 0)"/>
       <use xlink:href="#DejaVuSans-32" transform="translate(301.367188 0)"/>
       <use xlink:href="#DejaVuSans-34" transform="translate(364.990234 0)"/>
      </g>
     </g>
    </g>
    <g id="xtick_17">
     <g id="line2d_33">
      <path d="M 883.536161 537.712707 
L 883.536161 50.877187 
" clip-path="url(#pd5a22dec33)" style="fill: none; stroke: #cbcbcb"/>
     </g>
     <g id="line2d_34"/>
     <g id="text_17">
      <!-- Q4 2024 -->
      <g transform="translate(839.045665 591.166487) rotate(-45) scale(0.14 -0.14)">
       <use xlink:href="#DejaVuSans-51"/>
       <use xlink:href="#DejaVuSans-34" transform="translate(78.710938 0)"/>
       <use xlink:href="#DejaVuSans-20" transform="translate(142.333984 0)"/>
       <use xlink:href="#DejaVuSans-32" transform="translate(174.121094 0)"/>
       <use xlink:href="#DejaVuSans-30" transform="translate(237.744141 0)"/>
       <use xlink:href="#DejaVuSans-32" transform="translate(301.367188 0)"/>
       <use xlink:href="#DejaVuSans-34" transform="translate(364.990234 0)"/>
      </g>
     </g>
    </g>
    <g id="xtick_18">
     <g id="line2d_35">
      <path d="M 931.911131 537.712707 
L 931.911131 50.877187 
" clip-path="url(#pd5a22dec33)" style="fill: none; stroke: #cbcbcb"/>
     </g>
     <g id="line2d_36"/>
     <g id="text_18">
      <!-- Q1 2025 -->
      <g transform="translate(887.420635 591.166487) rotate(-45) scale(0.14 -0.14)">
       <defs>
        <path id="DejaVuSans-35" d="M 691 4666 
L 3169 4666 
L 3169 4134 
L 1269 4134 
L 1269 2991 
Q 1406 3038 1543 3061 
Q 1681 3084 1819 3084 
Q 2600 3084 3056 2656 
Q 3513 2228 3513 1497 
Q 3513 744 3044 326 
Q 2575 -91 1722 -91 
Q 1428 -91 1123 -41 
Q 819 9 494 109 
L 494 744 
Q 775 591 1075 516 
Q 1375 441 1709 441 
Q 2250 441 2565 725 
Q 2881 1009 2881 1497 
Q 2881 1984 2565 2268 
Q 2250 2553 1709 2553 
Q 1456 2553 1204 2497 
Q 953 2441 691 2322 
L 691 4666 
z
" transform="scale(0.015625)"/>
       </defs>
       <use xlink:href="#DejaVuSans-51"/>
       <use xlink:href="#DejaVuSans-31" transform="translate(78.710938 0)"/>
       <use xlink:href="#DejaVuSans-20" transform="translate(142.333984 0)"/>
       <use xlink:href="#DejaVuSans-32" transform="translate(174.121094 0)"/>
       <use xlink:href="#DejaVuSans-30" transform="translate(237.744141 0)"/>
       <use xlink:href="#DejaVuSans-32" transform="translate(301.367188 0)"/>
       <use xlink:href="#DejaVuSans-35" transform="translate(364.990234 0)"/>
      </g>
     </g>
    </g>
    <g id="xtick_19">
     <g id="line2d_37">
      <path d="M 979.234471 537.712707 
L 979.234471 50.877187 
" clip-path="url(#pd5a22dec33)" style="fill: none; stroke: #cbcbcb"/>
     </g>
     <g id="line2d_38"/>
     <g id="text_19">
      <!-- Q2 2025 -->
      <g transform="translate(934.743976 591.166487) rotate(-45) scale(0.14 -0.14)">
       <use xlink:href="#DejaVuSans-51"/>
       <use xlink:href="#DejaVuSans-32" transform="translate(78.710938 0)"/>
       <use xlink:href="#DejaVuSans-20" transform="translate(142.333984 0)"/>
       <use xlink:href="#DejaVuSans-32" transform="translate(174.121094 0)"/>
       <use xlink:href="#DejaVuSans-30" transform="translate(237.744141 0)"/>
       <use xlink:href="#DejaVuSans-32" transform="translate(301.367188 0)"/>
       <use xlink:href="#DejaVuSans-35" transform="translate(364.990234 0)"/>
      </g>
     </g>
    </g>
    <g id="xtick_20">
     <g id="line2d_39">
      <path d="M 1027.083627 537.712707 
L 1027.083627 50.877187 
" clip-path="url(#pd5a22dec33)" style="fill: none; stroke: #cbcbcb"/>
     </g>
     <g id="line2d_40"/>
     <g id="text_20">
      <!-- Q3 2025 -->
      <g transform="translate(982.593131 591.166487) rotate(-45) scale(0.14 -0.14)">
       <use xlink:href="#DejaVuSans-51"/>
       <use xlink:href="#DejaVuSans-33" transform="translate(78.710938 0)"/>
       <use xlink:href="#DejaVuSans-20" transform="translate(142.333984 0)"/>
       <use xlink:href="#DejaVuSans-32" transform="translate(174.121094 0)"/>
       <use xlink:href="#DejaVuSans-30" transform="translate(237.744141 0)"/>
       <use xlink:href="#DejaVuSans-32" transform="translate(301.367188 0)"/>
       <use xlink:href="#DejaVuSans-35" transform="translate(364.990234 0)"/>
      </g>
     </g>
    </g>
    <g id="xtick_21">
     <g id="line2d_41">
      <path d="M 1075.458597 537.712707 
L 1075.458597 50.877187 
" clip-path="url(#pd5a22dec33)" style="fill: none; stroke: #cbcbcb"/>
     </g>
     <g id="line2d_42"/>
     <g id="text_21">
      <!-- Q4 2025 -->
      <g transform="translate(1030.968101 591.166487) rotate(-45) scale(0.14 -0.14)">
       <use xlink:href="#DejaVuSans-51"/>
       <use xlink:href="#DejaVuSans-34" transform="translate(78.710938 0)"/>
       <use xlink:href="#DejaVuSans-20" transform="translate(142.333984 0)"/>
       <use xlink:href="#DejaVuSans-32" transform="translate(174.121094 0)"/>
       <use xlink:href="#DejaVuSans-30" transform="translate(237.744141 0)"/>
       <use xlink:href="#DejaVuSans-32" transform="translate(301.367188 0)"/>
       <use xlink:href="#DejaVuSans-35" transform="translate(364.990234 0)"/>
      </g>
     </g>
    </g>
    <g id="text_22">
     <!-- Date -->
     <g transform="translate(584.776955 620.990647) scale(0.168 -0.168)">
      <defs>
       <path id="DejaVuSans-44" d="M 1259 4147 
L 1259 519 
L 2022 519 
Q 2988 519 3436 956 
Q 3884 1394 3884 2338 
Q 3884 3275 3436 3711 
Q 2988 4147 2022 4147 
L 1259 4147 
z
M 628 4666 
L 1925 4666 
Q 3281 4666 3915 4102 
Q 4550 3538 4550 2338 
Q 4550 1131 3912 565 
Q 3275 0 1925 0 
L 628 0 
L 628 4666 
z
" transform="scale(0.015625)"/>
       <path id="DejaVuSans-61" d="M 2194 1759 
Q 1497 1759 1228 1600 
Q 959 1441 959 1056 
Q 959 750 1161 570 
Q 1363 391 1709 391 
Q 2188 391 2477 730 
Q 2766 1069 2766 1631 
L 2766 1759 
L 2194 1759 
z
M 3341 1997 
L 3341 0 
L 2766 0 
L 2766 531 
Q 2569 213 2275 61 
Q 1981 -91 1556 -91 
Q 1019 -91 701 211 
Q 384 513 384 1019 
Q 384 1609 779 1909 
Q 1175 2209 1959 2209 
L 2766 2209 
L 2766 2266 
Q 2766 2663 2505 2880 
Q 2244 3097 1772 3097 
Q 1472 3097 1187 3025 
Q 903 2953 641 2809 
L 641 3341 
Q 956 3463 1253 3523 
Q 1550 3584 1831 3584 
Q 2591 3584 2966 3190 
Q 3341 2797 3341 1997 
z
" transform="scale(0.015625)"/>
       <path id="DejaVuSans-74" d="M 1172 4494 
L 1172 3500 
L 2356 3500 
L 2356 3053 
L 1172 3053 
L 1172 1153 
Q 1172 725 1289 603 
Q 1406 481 1766 481 
L 2356 481 
L 2356 0 
L 1766 0 
Q 1100 0 847 248 
Q 594 497 594 1153 
L 594 3053 
L 172 3053 
L 172 3500 
L 594 3500 
L 594 4494 
L 1172 4494 
z
" transform="scale(0.015625)"/>
       <path id="DejaVuSans-65" d="M 3597 1894 
L 3597 1613 
L 953 1613 
Q 991 1019 1311 708 
Q 1631 397 2203 397 
Q 2534 397 2845 478 
Q 3156 559 3463 722 
L 3463 178 
Q 3153 47 2828 -22 
Q 2503 -91 2169 -91 
Q 1331 -91 842 396 
Q 353 884 353 1716 
Q 353 2575 817 3079 
Q 1281 3584 2069 3584 
Q 2775 3584 3186 3129 
Q 3597 2675 3597 1894 
z
M 3022 2063 
Q 3016 2534 2758 2815 
Q 2500 3097 2075 3097 
Q 1594 3097 1305 2825 
Q 1016 2553 972 2059 
L 3022 2063 
z
" transform="scale(0.015625)"/>
      </defs>
      <use xlink:href="#DejaVuSans-44"/>
      <use xlink:href="#DejaVuSans-61" transform="translate(77.001953 0)"/>
      <use xlink:href="#DejaVuSans-74" transform="translate(138.28125 0)"/>
      <use xlink:href="#DejaVuSans-65" transform="translate(177.490234 0)"/>
     </g>
    </g>
   </g>
   <g id="matplotlib.axis_2">
    <g id="ytick_1">
     <g id="line2d_43">
      <path d="M 81.983938 537.712707 
L 1127.724597 537.712707 
" clip-path="url(#pd5a22dec33)" style="fill: none; stroke: #cbcbcb"/>
     </g>
     <g id="line2d_44"/>
     <g id="text_23">
      <!-- 94% -->
      <g transform="translate(47.36675 543.031613) scale(0.14 -0.14)">
       <defs>
        <path id="DejaVuSans-39" d="M 703 97 
L 703 672 
Q 941 559 1184 500 
Q 1428 441 1663 441 
Q 2288 441 2617 861 
Q 2947 1281 2994 2138 
Q 2813 1869 2534 1725 
Q 2256 1581 1919 1581 
Q 1219 1581 811 2004 
Q 403 2428 403 3163 
Q 403 3881 828 4315 
Q 1253 4750 1959 4750 
Q 2769 4750 3195 4129 
Q 3622 3509 3622 2328 
Q 3622 1225 3098 567 
Q 2575 -91 1691 -91 
Q 1453 -91 1209 -44 
Q 966 3 703 97 
z
M 1959 2075 
Q 2384 2075 2632 2365 
Q 2881 2656 2881 3163 
Q 2881 3666 2632 3958 
Q 2384 4250 1959 4250 
Q 1534 4250 1286 3958 
Q 1038 3666 1038 3163 
Q 1038 2656 1286 2365 
Q 1534 2075 1959 2075 
z
" transform="scale(0.015625)"/>
        <path id="DejaVuSans-25" d="M 4653 2053 
Q 4381 2053 4226 1822 
Q 4072 1591 4072 1178 
Q 4072 772 4226 539 
Q 4381 306 4653 306 
Q 4919 306 5073 539 
Q 5228 772 5228 1178 
Q 5228 1588 5073 1820 
Q 4919 2053 4653 2053 
z
M 4653 2450 
Q 5147 2450 5437 2106 
Q 5728 1763 5728 1178 
Q 5728 594 5436 251 
Q 5144 -91 4653 -91 
Q 4153 -91 3862 251 
Q 3572 594 3572 1178 
Q 3572 1766 3864 2108 
Q 4156 2450 4653 2450 
z
M 1428 4353 
Q 1159 4353 1004 4120 
Q 850 3888 850 3481 
Q 850 3069 1003 2837 
Q 1156 2606 1428 2606 
Q 1700 2606 1854 2837 
Q 2009 3069 2009 3481 
Q 2009 3884 1853 4118 
Q 1697 4353 1428 4353 
z
M 4250 4750 
L 4750 4750 
L 1831 -91 
L 1331 -91 
L 4250 4750 
z
M 1428 4750 
Q 1922 4750 2215 4408 
Q 2509 4066 2509 3481 
Q 2509 2891 2217 2550 
Q 1925 2209 1428 2209 
Q 931 2209 642 2551 
Q 353 2894 353 3481 
Q 353 4063 643 4406 
Q 934 4750 1428 4750 
z
" transform="scale(0.015625)"/>
       </defs>
       <use xlink:href="#DejaVuSans-39"/>
       <use xlink:href="#DejaVuSans-34" transform="translate(63.623047 0)"/>
       <use xlink:href="#DejaVuSans-25" transform="translate(127.246094 0)"/>
      </g>
     </g>
    </g>
    <g id="ytick_2">
     <g id="line2d_45">
      <path d="M 81.983938 505.257006 
L 1127.724597 505.257006 
" clip-path="url(#pd5a22dec33)" style="fill: none; stroke: #cbcbcb"/>
     </g>
     <g id="line2d_46"/>
     <g id="text_24">
      <!-- 95% -->
      <g transform="translate(47.36675 510.575912) scale(0.14 -0.14)">
       <use xlink:href="#DejaVuSans-39"/>
       <use xlink:href="#DejaVuSans-35" transform="translate(63.623047 0)"/>
       <use xlink:href="#DejaVuSans-25" transform="translate(127.246094 0)"/>
      </g>
     </g>
    </g>
    <g id="ytick_3">
     <g id="line2d_47">
      <path d="M 81.983938 472.801304 
L 1127.724597 472.801304 
" clip-path="url(#pd5a22dec33)" style="fill: none; stroke: #cbcbcb"/>
     </g>
     <g id="line2d_48"/>
     <g id="text_25">
      <!-- 96% -->
      <g transform="translate(47.36675 478.120211) scale(0.14 -0.14)">
       <defs>
        <path id="DejaVuSans-36" d="M 2113 2584 
Q 1688 2584 1439 2293 
Q 1191 2003 1191 1497 
Q 1191 994 1439 701 
Q 1688 409 2113 409 
Q 2538 409 2786 701 
Q 3034 994 3034 1497 
Q 3034 2003 2786 2293 
Q 2538 2584 2113 2584 
z
M 3366 4563 
L 3366 3988 
Q 3128 4100 2886 4159 
Q 2644 4219 2406 4219 
Q 1781 4219 1451 3797 
Q 1122 3375 1075 2522 
Q 1259 2794 1537 2939 
Q 1816 3084 2150 3084 
Q 2853 3084 3261 2657 
Q 3669 2231 3669 1497 
Q 3669 778 3244 343 
Q 2819 -91 2113 -91 
Q 1303 -91 875 529 
Q 447 1150 447 2328 
Q 447 3434 972 4092 
Q 1497 4750 2381 4750 
Q 2619 4750 2861 4703 
Q 3103 4656 3366 4563 
z
" transform="scale(0.015625)"/>
       </defs>
       <use xlink:href="#DejaVuSans-39"/>
       <use xlink:href="#DejaVuSans-36" transform="translate(63.623047 0)"/>
       <use xlink:href="#DejaVuSans-25" transform="translate(127.246094 0)"/>
      </g>
     </g>
    </g>
    <g id="ytick_4">
     <g id="line2d_49">
      <path d="M 81.983938 440.345603 
L 1127.724597 440.345603 
" clip-path="url(#pd5a22dec33)" style="fill: none; stroke: #cbcbcb"/>
     </g>
     <g id="line2d_50"/>
     <g id="text_26">
      <!-- 97% -->
      <g transform="translate(47.36675 445.664509) scale(0.14 -0.14)">
       <defs>
        <path id="DejaVuSans-37" d="M 525 4666 
L 3525 4666 
L 3525 4397 
L 1831 0 
L 1172 0 
L 2766 4134 
L 525 4134 
L 525 4666 
z
" transform="scale(0.015625)"/>
       </defs>
       <use xlink:href="#DejaVuSans-39"/>
       <use xlink:href="#DejaVuSans-37" transform="translate(63.623047 0)"/>
       <use xlink:href="#DejaVuSans-25" transform="translate(127.246094 0)"/>
      </g>
     </g>
    </g>
    <g id="ytick_5">
     <g id="line2d_51">
      <path d="M 81.983938 407.889902 
L 1127.724597 407.889902 
" clip-path="url(#pd5a22dec33)" style="fill: none; stroke: #cbcbcb"/>
     </g>
     <g id="line2d_52"/>
     <g id="text_27">
      <!-- 98% -->
      <g transform="translate(47.36675 413.208808) scale(0.14 -0.14)">
       <defs>
        <path id="DejaVuSans-38" d="M 2034 2216 
Q 1584 2216 1326 1975 
Q 1069 1734 1069 1313 
Q 1069 891 1326 650 
Q 1584 409 2034 409 
Q 2484 409 2743 651 
Q 3003 894 3003 1313 
Q 3003 1734 2745 1975 
Q 2488 2216 2034 2216 
z
M 1403 2484 
Q 997 2584 770 2862 
Q 544 3141 544 3541 
Q 544 4100 942 4425 
Q 1341 4750 2034 4750 
Q 2731 4750 3128 4425 
Q 3525 4100 3525 3541 
Q 3525 3141 3298 2862 
Q 3072 2584 2669 2484 
Q 3125 2378 3379 2068 
Q 3634 1759 3634 1313 
Q 3634 634 3220 271 
Q 2806 -91 2034 -91 
Q 1263 -91 848 271 
Q 434 634 434 1313 
Q 434 1759 690 2068 
Q 947 2378 1403 2484 
z
M 1172 3481 
Q 1172 3119 1398 2916 
Q 1625 2713 2034 2713 
Q 2441 2713 2670 2916 
Q 2900 3119 2900 3481 
Q 2900 3844 2670 4047 
Q 2441 4250 2034 4250 
Q 1625 4250 1398 4047 
Q 1172 3844 1172 3481 
z
" transform="scale(0.015625)"/>
       </defs>
       <use xlink:href="#DejaVuSans-39"/>
       <use xlink:href="#DejaVuSans-38" transform="translate(63.623047 0)"/>
       <use xlink:href="#DejaVuSans-25" transform="translate(127.246094 0)"/>
      </g>
     </g>
    </g>
    <g id="ytick_6">
     <g id="line2d_53">
      <path d="M 81.983938 375.434201 
L 1127.724597 375.434201 
" clip-path="url(#pd5a22dec33)" style="fill: none; stroke: #cbcbcb"/>
     </g>
     <g id="line2d_54"/>
     <g id="text_28">
      <!-- 99% -->
      <g transform="translate(47.36675 380.753107) scale(0.14 -0.14)">
       <use xlink:href="#DejaVuSans-39"/>
       <use xlink:href="#DejaVuSans-39" transform="translate(63.623047 0)"/>
       <use xlink:href="#DejaVuSans-25" transform="translate(127.246094 0)"/>
      </g>
     </g>
    </g>
    <g id="ytick_7">
     <g id="line2d_55">
      <path d="M 81.983938 342.978499 
L 1127.724597 342.978499 
" clip-path="url(#pd5a22dec33)" style="fill: none; stroke: #cbcbcb"/>
     </g>
     <g id="line2d_56"/>
     <g id="text_29">
      <!-- 100% -->
      <g transform="translate(38.45925 348.297405) scale(0.14 -0.14)">
       <use xlink:href="#DejaVuSans-31"/>
       <use xlink:href="#DejaVuSans-30" transform="translate(63.623047 0)"/>
       <use xlink:href="#DejaVuSans-30" transform="translate(127.246094 0)"/>
       <use xlink:href="#DejaVuSans-25" transform="translate(190.869141 0)"/>
      </g>
     </g>
    </g>
    <g id="ytick_8">
     <g id="line2d_57">
      <path d="M 81.983938 310.522798 
L 1127.724597 310.522798 
" clip-path="url(#pd5a22dec33)" style="fill: none; stroke: #cbcbcb"/>
     </g>
     <g id="line2d_58"/>
     <g id="text_30">
      <!-- 101% -->
      <g transform="translate(38.45925 315.841704) scale(0.14 -0.14)">
       <use xlink:href="#DejaVuSans-31"/>
       <use xlink:href="#DejaVuSans-30" transform="translate(63.623047 0)"/>
       <use xlink:href="#DejaVuSans-31" transform="translate(127.246094 0)"/>
       <use xlink:href="#DejaVuSans-25" transform="translate(190.869141 0)"/>
      </g>
     </g>
    </g>
    <g id="ytick_9">
     <g id="line2d_59">
      <path d="M 81.983938 278.067097 
L 1127.724597 278.067097 
" clip-path="url(#pd5a22dec33)" style="fill: none; stroke: #cbcbcb"/>
     </g>
     <g id="line2d_60"/>
     <g id="text_31">
      <!-- 102% -->
      <g transform="translate(38.45925 283.386003) scale(0.14 -0.14)">
       <use xlink:href="#DejaVuSans-31"/>
       <use xlink:href="#DejaVuSans-30" transform="translate(63.623047 0)"/>
       <use xlink:href="#DejaVuSans-32" transform="translate(127.246094 0)"/>
       <use xlink:href="#DejaVuSans-25" transform="translate(190.869141 0)"/>
      </g>
     </g>
    </g>
    <g id="ytick_10">
     <g id="line2d_61">
      <path d="M 81.983938 245.611395 
L 1127.724597 245.611395 
" clip-path="url(#pd5a22dec33)" style="fill: none; stroke: #cbcbcb"/>
     </g>
     <g id="line2d_62"/>
     <g id="text_32">
      <!-- 103% -->
      <g transform="translate(38.45925 250.930302) scale(0.14 -0.14)">
       <use xlink:href="#DejaVuSans-31"/>
       <use xlink:href="#DejaVuSans-30" transform="translate(63.623047 0)"/>
       <use xlink:href="#DejaVuSans-33" transform="translate(127.246094 0)"/>
       <use xlink:href="#DejaVuSans-25" transform="translate(190.869141 0)"/>
      </g>
     </g>
    </g>
    <g id="ytick_11">
     <g id="line2d_63">
      <path d="M 81.983938 213.155694 
L 1127.724597 213.155694 
" clip-path="url(#pd5a22dec33)" style="fill: none; stroke: #cbcbcb"/>
     </g>
     <g id="line2d_64"/>
     <g id="text_33">
      <!-- 104% -->
      <g transform="translate(38.45925 218.4746) scale(0.14 -0.14)">
       <use xlink:href="#DejaVuSans-31"/>
       <use xlink:href="#DejaVuSans-30" transform="translate(63.623047 0)"/>
       <use xlink:href="#DejaVuSans-34" transform="translate(127.246094 0)"/>
       <use xlink:href="#DejaVuSans-25" transform="translate(190.869141 0)"/>
      </g>
     </g>
    </g>
    <g id="ytick_12">
     <g id="line2d_65">
      <path d="M 81.983938 180.699993 
L 1127.724597 180.699993 
" clip-path="url(#pd5a22dec33)" style="fill: none; stroke: #cbcbcb"/>
     </g>
     <g id="line2d_66"/>
     <g id="text_34">
      <!-- 105% -->
      <g transform="translate(38.45925 186.018899) scale(0.14 -0.14)">
       <use xlink:href="#DejaVuSans-31"/>
       <use xlink:href="#DejaVuSans-30" transform="translate(63.623047 0)"/>
       <use xlink:href="#DejaVuSans-35" transform="translate(127.246094 0)"/>
       <use xlink:href="#DejaVuSans-25" transform="translate(190.869141 0)"/>
      </g>
     </g>
    </g>
    <g id="ytick_13">
     <g id="line2d_67">
      <path d="M 81.983938 148.244291 
L 1127.724597 148.244291 
" clip-path="url(#pd5a22dec33)" style="fill: none; stroke: #cbcbcb"/>
     </g>
     <g id="line2d_68"/>
     <g id="text_35">
      <!-- 106% -->
      <g transform="translate(38.45925 153.563198) scale(0.14 -0.14)">
       <use xlink:href="#DejaVuSans-31"/>
       <use xlink:href="#DejaVuSans-30" transform="translate(63.623047 0)"/>
       <use xlink:href="#DejaVuSans-36" transform="translate(127.246094 0)"/>
       <use xlink:href="#DejaVuSans-25" transform="translate(190.869141 0)"/>
      </g>
     </g>
    </g>
    <g id="ytick_14">
     <g id="line2d_69">
      <path d="M 81.983938 115.78859 
L 1127.724597 115.78859 
" clip-path="url(#pd5a22dec33)" style="fill: none; stroke: #cbcbcb"/>
     </g>
     <g id="line2d_70"/>
     <g id="text_36">
      <!-- 107% -->
      <g transform="translate(38.45925 121.107496) scale(0.14 -0.14)">
       <use xlink:href="#DejaVuSans-31"/>
       <use xlink:href="#DejaVuSans-30" transform="translate(63.623047 0)"/>
       <use xlink:href="#DejaVuSans-37" transform="translate(127.246094 0)"/>
       <use xlink:href="#DejaVuSans-25" transform="translate(190.869141 0)"/>
      </g>
     </g>
    </g>
    <g id="ytick_15">
     <g id="line2d_71">
      <path d="M 81.983938 83.332889 
L 1127.724597 83.332889 
" clip-path="url(#pd5a22dec33)" style="fill: none; stroke: #cbcbcb"/>
     </g>
     <g id="line2d_72"/>
     <g id="text_37">
      <!-- 108% -->
      <g transform="translate(38.45925 88.651795) scale(0.14 -0.14)">
       <use xlink:href="#DejaVuSans-31"/>
       <use xlink:href="#DejaVuSans-30" transform="translate(63.623047 0)"/>
       <use xlink:href="#DejaVuSans-38" transform="translate(127.246094 0)"/>
       <use xlink:href="#DejaVuSans-25" transform="translate(190.869141 0)"/>
      </g>
     </g>
    </g>
    <g id="ytick_16">
     <g id="line2d_73">
      <path d="M 81.983938 50.877188 
L 1127.724597 50.877188 
" clip-path="url(#pd5a22dec33)" style="fill: none; stroke: #cbcbcb"/>
     </g>
     <g id="line2d_74"/>
     <g id="text_38">
      <!-- 109% -->
      <g transform="translate(38.45925 56.196094) scale(0.14 -0.14)">
       <use xlink:href="#DejaVuSans-31"/>
       <use xlink:href="#DejaVuSans-30" transform="translate(63.623047 0)"/>
       <use xlink:href="#DejaVuSans-39" transform="translate(127.246094 0)"/>
       <use xlink:href="#DejaVuSans-25" transform="translate(190.869141 0)"/>
      </g>
     </g>
    </g>
    <g id="text_39">
     <!-- Body Weight (% of Target) -->
     <g transform="translate(19.965375 404.069822) rotate(-90) scale(0.168 -0.168)">
      <defs>
       <path id="DejaVuSans-42" d="M 1259 2228 
L 1259 519 
L 2272 519 
Q 2781 519 3026 730 
Q 3272 941 3272 1375 
Q 3272 1813 3026 2020 
Q 2781 2228 2272 2228 
L 1259 2228 
z
M 1259 4147 
L 1259 2741 
L 2194 2741 
Q 2656 2741 2882 2914 
Q 3109 3088 3109 3444 
Q 3109 3797 2882 3972 
Q 2656 4147 2194 4147 
L 1259 4147 
z
M 628 4666 
L 2241 4666 
Q 2963 4666 3353 4366 
Q 3744 4066 3744 3513 
Q 3744 3084 3544 2831 
Q 3344 2578 2956 2516 
Q 3422 2416 3680 2098 
Q 3938 1781 3938 1306 
Q 3938 681 3513 340 
Q 3088 0 2303 0 
L 628 0 
L 628 4666 
z
" transform="scale(0.015625)"/>
       <path id="DejaVuSans-6f" d="M 1959 3097 
Q 1497 3097 1228 2736 
Q 959 2375 959 1747 
Q 959 1119 1226 758 
Q 1494 397 1959 397 
Q 2419 397 2687 759 
Q 2956 1122 2956 1747 
Q 2956 2369 2687 2733 
Q 2419 3097 1959 3097 
z
M 1959 3584 
Q 2709 3584 3137 3096 
Q 3566 2609 3566 1747 
Q 3566 888 3137 398 
Q 2709 -91 1959 -91 
Q 1206 -91 779 398 
Q 353 888 353 1747 
Q 353 2609 779 3096 
Q 1206 3584 1959 3584 
z
" transform="scale(0.015625)"/>
       <path id="DejaVuSans-64" d="M 2906 2969 
L 2906 4863 
L 3481 4863 
L 3481 0 
L 2906 0 
L 2906 525 
Q 2725 213 2448 61 
Q 2172 -91 1784 -91 
Q 1150 -91 751 415 
Q 353 922 353 1747 
Q 353 2572 751 3078 
Q 1150 3584 1784 3584 
Q 2172 3584 2448 3432 
Q 2725 3281 2906 2969 
z
M 947 1747 
Q 947 1113 1208 752 
Q 1469 391 1925 391 
Q 2381 391 2643 752 
Q 2906 1113 2906 1747 
Q 2906 2381 2643 2742 
Q 2381 3103 1925 3103 
Q 1469 3103 1208 2742 
Q 947 2381 947 1747 
z
" transform="scale(0.015625)"/>
       <path id="DejaVuSans-79" d="M 2059 -325 
Q 1816 -950 1584 -1140 
Q 1353 -1331 966 -1331 
L 506 -1331 
L 506 -850 
L 844 -850 
Q 1081 -850 1212 -737 
Q 1344 -625 1503 -206 
L 1606 56 
L 191 3500 
L 800 3500 
L 1894 763 
L 2988 3500 
L 3597 3500 
L 2059 -325 
z
" transform="scale(0.015625)"/>
       <path id="DejaVuSans-57" d="M 213 4666 
L 850 4666 
L 1831 722 
L 2809 4666 
L 3519 4666 
L 4500 722 
L 5478 4666 
L 6119 4666 
L 4947 0 
L 4153 0 
L 3169 4050 
L 2175 0 
L 1381 0 
L 213 4666 
z
" transform="scale(0.015625)"/>
       <path id="DejaVuSans-69" d="M 603 3500 
L 1178 3500 
L 1178 0 
L 603 0 
L 603 3500 
z
M 603 4863 
L 1178 4863 
L 1178 4134 
L 603 4134 
L 603 4863 
z
" transform="scale(0.015625)"/>
       <path id="DejaVuSans-67" d="M 2906 1791 
Q 2906 2416 2648 2759 
Q 2391 3103 1925 3103 
Q 1463 3103 1205 2759 
Q 947 2416 947 1791 
Q 947 1169 1205 825 
Q 1463 481 1925 481 
Q 2391 481 2648 825 
Q 2906 1169 2906 1791 
z
M 3481 434 
Q 3481 -459 3084 -895 
Q 2688 -1331 1869 -1331 
Q 1566 -1331 1297 -1286 
Q 1028 -1241 775 -1147 
L 775 -588 
Q 1028 -725 1275 -790 
Q 1522 -856 1778 -856 
Q 2344 -856 2625 -561 
Q 2906 -266 2906 331 
L 2906 616 
Q 2728 306 2450 153 
Q 2172 0 1784 0 
Q 1141 0 747 490 
Q 353 981 353 1791 
Q 353 2603 747 3093 
Q 1141 3584 1784 3584 
Q 2172 3584 2450 3431 
Q 2728 3278 2906 2969 
L 2906 3500 
L 3481 3500 
L 3481 434 
z
" transform="scale(0.015625)"/>
       <path id="DejaVuSans-68" d="M 3513 2113 
L 3513 0 
L 2938 0 
L 2938 2094 
Q 2938 2591 2744 2837 
Q 2550 3084 2163 3084 
Q 1697 3084 1428 2787 
Q 1159 2491 1159 1978 
L 1159 0 
L 581 0 
L 581 4863 
L 1159 4863 
L 1159 2956 
Q 1366 3272 1645 3428 
Q 1925 3584 2291 3584 
Q 2894 3584 3203 3211 
Q 3513 2838 3513 2113 
z
" transform="scale(0.015625)"/>
       <path id="DejaVuSans-28" d="M 1984 4856 
Q 1566 4138 1362 3434 
Q 1159 2731 1159 2009 
Q 1159 1288 1364 580 
Q 1569 -128 1984 -844 
L 1484 -844 
Q 1016 -109 783 600 
Q 550 1309 550 2009 
Q 550 2706 781 3412 
Q 1013 4119 1484 4856 
L 1984 4856 
z
" transform="scale(0.015625)"/>
       <path id="DejaVuSans-66" d="M 2375 4863 
L 2375 4384 
L 1825 4384 
Q 1516 4384 1395 4259 
Q 1275 4134 1275 3809 
L 1275 3500 
L 2222 3500 
L 2222 3053 
L 1275 3053 
L 1275 0 
L 697 0 
L 697 3053 
L 147 3053 
L 147 3500 
L 697 3500 
L 697 3744 
Q 697 4328 969 4595 
Q 1241 4863 1831 4863 
L 2375 4863 
z
" transform="scale(0.015625)"/>
       <path id="DejaVuSans-54" d="M -19 4666 
L 3928 4666 
L 3928 4134 
L 2272 4134 
L 2272 0 
L 1638 0 
L 1638 4134 
L -19 4134 
L -19 4666 
z
" transform="scale(0.015625)"/>
       <path id="DejaVuSans-72" d="M 2631 2963 
Q 2534 3019 2420 3045 
Q 2306 3072 2169 3072 
Q 1681 3072 1420 2755 
Q 1159 2438 1159 1844 
L 1159 0 
L 581 0 
L 581 3500 
L 1159 3500 
L 1159 2956 
Q 1341 3275 1631 3429 
Q 1922 3584 2338 3584 
Q 2397 3584 2469 3576 
Q 2541 3569 2628 3553 
L 2631 2963 
z
" transform="scale(0.015625)"/>
       <path id="DejaVuSans-29" d="M 513 4856 
L 1013 4856 
Q 1481 4119 1714 3412 
Q 1947 2706 1947 2009 
Q 1947 1309 1714 600 
Q 1481 -109 1013 -844 
L 513 -844 
Q 928 -128 1133 580 
Q 1338 1288 1338 2009 
Q 1338 2731 1133 3434 
Q 928 4138 513 4856 
z
" transform="scale(0.015625)"/>
      </defs>
      <use xlink:href="#DejaVuSans-42"/>
      <use xlink:href="#DejaVuSans-6f" transform="translate(68.603516 0)"/>
      <use xlink:href="#DejaVuSans-64" transform="translate(129.785156 0)"/>
      <use xlink:href="#DejaVuSans-79" transform="translate(193.261719 0)"/>
      <use xlink:href="#DejaVuSans-20" transform="translate(252.441406 0)"/>
      <use xlink:href="#DejaVuSans-57" transform="translate(284.228516 0)"/>
      <use xlink:href="#DejaVuSans-65" transform="translate(377.230469 0)"/>
      <use xlink:href="#DejaVuSans-69" transform="translate(438.753906 0)"/>
      <use xlink:href="#DejaVuSans-67" transform="translate(466.537109 0)"/>
      <use xlink:href="#DejaVuSans-68" transform="translate(530.013672 0)"/>
      <use xlink:href="#DejaVuSans-74" transform="translate(593.392578 0)"/>
      <use xlink:href="#DejaVuSans-20" transform="translate(632.601562 0)"/>
      <use xlink:href="#DejaVuSans-28" transform="translate(664.388672 0)"/>
      <use xlink:href="#DejaVuSans-25" transform="translate(703.402344 0)"/>
      <use xlink:href="#DejaVuSans-20" transform="translate(798.421875 0)"/>
      <use xlink:href="#DejaVuSans-6f" transform="translate(830.208984 0)"/>
      <use xlink:href="#DejaVuSans-66" transform="translate(891.390625 0)"/>
      <use xlink:href="#DejaVuSans-20" transform="translate(926.595703 0)"/>
      <use xlink:href="#DejaVuSans-54" transform="translate(958.382812 0)"/>
      <use xlink:href="#DejaVuSans-61" transform="translate(1002.966797 0)"/>
      <use xlink:href="#DejaVuSans-72" transform="translate(1064.246094 0)"/>
      <use xlink:href="#DejaVuSans-67" transform="translate(1103.609375 0)"/>
      <use xlink:href="#DejaVuSans-65" transform="translate(1167.085938 0)"/>
      <use xlink:href="#DejaVuSans-74" transform="translate(1228.609375 0)"/>
      <use xlink:href="#DejaVuSans-29" transform="translate(1267.818359 0)"/>
     </g>
    </g>
   </g>
   <g id="line2d_75">
    <path d="M 81.983938 342.978499 
L 1127.724597 342.978499 
" clip-path="url(#pd5a22dec33)" style="fill: none; stroke-dasharray: 14.8,6.4; stroke-dashoffset: 0; stroke: #dede00; stroke-width: 4"/>
   </g>
   <g id="line2d_76">
    <path d="M 129.517604 104.970023 
L 131.104705 165.488639 
L 132.691805 164.682144 
L 135.866007 162.056839 
L 137.453107 161.27884 
L 139.040208 161.684294 
L 140.627309 163.695166 
L 142.21441 167.754866 
L 143.80151 179.255674 
L 145.388611 194.250293 
L 146.975712 213.726143 
L 148.562812 231.366375 
L 150.149913 244.134147 
L 151.737014 254.369432 
L 153.324115 255.672653 
L 154.911215 250.655547 
L 156.498316 247.942901 
L 158.085417 262.232634 
L 159.672517 283.450826 
L 161.259618 296.497457 
L 162.846719 307.691782 
L 164.43382 317.736889 
L 169.195122 345.317383 
L 170.782222 351.459953 
L 172.369323 351.633353 
L 173.956424 351.633353 
L 175.543525 352.479961 
L 177.130625 358.006647 
L 178.717726 366.798568 
L 180.304827 389.497892 
L 181.891927 407.553776 
L 183.479028 407.889902 
L 188.24033 407.889902 
L 189.827431 408.130791 
L 191.414532 412.617774 
L 193.001632 416.508364 
L 194.588733 415.735353 
L 196.175834 413.425048 
L 197.762935 407.797104 
L 199.350035 394.571725 
L 200.937136 386.285154 
L 202.524237 404.215828 
L 204.111337 425.139712 
L 205.698438 413.19765 
L 207.285539 393.735751 
L 208.872639 388.672358 
L 210.45974 386.687722 
L 212.046841 386.360542 
L 213.633942 387.776554 
L 215.221042 389.91189 
L 218.395244 394.68601 
L 219.982344 392.573349 
L 221.569445 386.817664 
L 223.156546 389.750407 
L 224.743647 401.91318 
L 226.330747 412.478355 
L 227.917848 419.151724 
L 229.504949 424.157012 
L 231.092049 422.601143 
L 232.67915 404.878019 
L 234.266251 399.438969 
L 235.853352 401.497614 
L 237.440452 405.227115 
L 239.027553 410.774866 
L 240.614654 422.167652 
L 242.201754 439.448006 
L 243.788855 459.794991 
L 245.375956 460.823671 
L 246.963057 440.592724 
L 248.550157 430.145158 
L 250.137258 464.665806 
L 251.724359 501.63305 
L 253.311459 499.166085 
L 254.89856 490.992412 
L 256.485661 487.29814 
L 258.072762 484.602772 
L 259.659862 482.514918 
L 262.834064 479.267094 
L 264.421164 477.659795 
L 266.008265 475.765352 
L 267.595366 473.360101 
L 269.182467 470.220378 
L 270.769567 464.747064 
L 272.356668 453.939221 
L 273.943769 446.926069 
L 275.530869 448.638856 
L 277.11797 453.299414 
L 278.705071 459.745624 
L 280.292172 469.380284 
L 281.879272 472.713285 
L 283.466373 471.151536 
L 285.053474 469.123371 
L 286.640574 468.783472 
L 288.227675 472.207281 
L 289.814776 463.045556 
L 291.401877 428.969332 
L 292.988977 416.877818 
L 294.576078 421.786912 
L 296.163179 429.349076 
L 299.33738 454.2789 
L 300.924481 443.65726 
L 302.511582 406.900751 
L 304.098682 397.645372 
L 305.685783 424.156999 
L 307.272884 442.508468 
L 308.859984 440.737657 
L 310.447085 438.380814 
L 312.034186 439.125862 
L 313.621287 441.747992 
L 315.208387 442.33383 
L 316.795488 440.600034 
L 318.382589 438.019817 
L 319.969689 434.738753 
L 321.55679 430.303616 
L 323.143891 424.793156 
L 324.730992 418.286123 
L 326.318092 407.798613 
L 327.905193 392.853888 
L 329.492294 386.505952 
L 331.079394 406.335263 
L 332.666495 428.478766 
L 334.253596 419.886018 
L 335.840697 393.187063 
L 337.427797 373.97405 
L 339.014898 375.999933 
L 340.601999 383.121649 
L 342.189099 396.73625 
L 343.7762 407.563014 
L 345.363301 390.392118 
L 346.950402 350.936359 
L 348.537502 331.717115 
L 350.124603 319.373213 
L 351.711704 309.406443 
L 353.298804 302.601926 
L 354.885905 299.744781 
L 356.473006 327.106872 
L 358.060106 377.7725 
L 359.647207 385.56618 
L 361.234308 381.195482 
L 362.821409 373.611004 
L 364.408509 363.771653 
L 365.99561 352.636336 
L 367.582711 332.45807 
L 369.169811 302.462214 
L 370.756912 280.542621 
L 372.344013 326.317942 
L 373.931114 389.628216 
L 375.518214 373.631664 
L 377.105315 348.039087 
L 378.692416 317.748417 
L 380.279516 291.089168 
L 381.866617 305.444012 
L 383.453718 330.795609 
L 385.040819 338.37853 
L 386.627919 335.077569 
L 388.21502 331.095131 
L 389.802121 330.138222 
L 391.389221 332.002135 
L 392.976322 335.375214 
L 396.150524 343.317786 
L 397.737624 346.22174 
L 399.324725 347.259254 
L 400.911826 325.330625 
L 402.498926 297.447271 
L 404.086027 295.376804 
L 405.673128 295.376804 
L 407.260229 298.483269 
L 408.847329 320.870669 
L 410.43443 334.236461 
L 412.021531 323.284527 
L 413.608631 307.602936 
L 415.195732 307.184462 
L 416.782833 325.049561 
L 418.369934 328.999503 
L 419.957034 320.79084 
L 421.544135 307.400289 
L 423.131236 292.606375 
L 424.718336 280.187624 
L 426.305437 273.922562 
L 427.892538 279.233473 
L 431.066739 311.279182 
L 432.65384 316.263373 
L 434.240941 290.301717 
L 435.828041 257.768524 
L 437.415142 252.102536 
L 439.002243 252.102536 
L 440.589344 257.517325 
L 443.763545 314.898193 
L 445.350646 330.902762 
L 446.937746 345.670955 
L 448.524847 357.360913 
L 450.111948 363.90181 
L 451.699049 364.182556 
L 453.286149 361.513532 
L 454.87325 356.756524 
L 456.460351 350.313306 
L 458.047451 342.585651 
L 461.221653 324.884126 
L 462.808754 313.01311 
L 464.395854 293.886269 
L 465.982955 279.505833 
L 467.570056 280.128137 
L 469.157156 289.204059 
L 470.744257 300.330859 
L 472.331358 307.723846 
L 473.918459 307.361175 
L 475.505559 303.173608 
L 477.09266 297.68961 
L 478.679761 289.246364 
L 480.266861 278.297467 
L 483.441063 255.129122 
L 486.615264 233.088627 
L 488.202365 231.089683 
L 489.789466 236.017764 
L 491.376566 239.056571 
L 492.963667 225.882407 
L 494.550768 209.863285 
L 496.137869 208.828267 
L 500.899171 208.842818 
L 502.486271 210.550259 
L 504.073372 214.786565 
L 505.660473 221.107341 
L 507.247574 229.06819 
L 508.834674 238.224714 
L 510.421775 250.951441 
L 512.008876 275.440721 
L 513.595976 286.623796 
L 515.183077 281.519445 
L 516.770178 271.174061 
L 518.357278 259.073953 
L 519.944379 248.70543 
L 521.53148 243.554801 
L 523.118581 243.68186 
L 524.705681 244.470012 
L 526.292782 245.658016 
L 531.054084 249.99621 
L 532.641185 251.15869 
L 534.228286 251.908555 
L 535.815386 251.804357 
L 537.402487 245.175727 
L 538.989588 234.176584 
L 540.576688 224.591619 
L 542.163789 221.862951 
L 543.75089 222.962527 
L 545.337991 225.188646 
L 546.925091 228.144469 
L 551.686393 237.953493 
L 553.273494 241.860251 
L 554.860595 246.988628 
L 556.447696 254.451297 
L 558.034796 262.593944 
L 559.621897 269.54767 
L 561.208998 273.443572 
L 562.796098 273.036704 
L 564.383199 269.68047 
L 565.9703 264.198145 
L 567.557401 257.305285 
L 570.731602 242.150192 
L 572.318703 235.319072 
L 573.905803 229.939648 
L 575.492904 226.727475 
L 577.080005 230.581546 
L 578.667106 261.790078 
L 580.254206 275.89748 
L 581.841307 280.407649 
L 583.428408 283.70864 
L 585.015508 285.801808 
L 586.602609 286.688504 
L 588.18971 285.895024 
L 589.776811 282.974655 
L 591.363911 279.139851 
L 592.951012 275.659938 
L 594.538113 273.804244 
L 596.125213 276.103247 
L 597.712314 283.836624 
L 599.299415 293.480072 
L 600.886516 301.390755 
L 602.473616 304.030453 
L 605.647818 303.786978 
L 607.234918 303.490383 
L 608.822019 303.063516 
L 610.40912 302.496102 
L 611.996221 301.777866 
L 613.583321 300.898534 
L 615.170422 299.847829 
L 616.757523 298.615478 
L 618.344623 297.191206 
L 619.931724 295.564736 
L 621.518825 285.272674 
L 623.105926 263.299466 
L 624.693026 245.667316 
L 626.280127 245.749551 
L 627.867228 256.167589 
L 629.454328 269.331754 
L 631.041429 284.69589 
L 632.62853 286.496269 
L 634.215631 285.252835 
L 635.802731 283.176767 
L 637.389832 280.558263 
L 640.564033 274.85474 
L 642.151134 272.350116 
L 643.738235 270.463849 
L 645.325336 269.486135 
L 646.912436 278.764958 
L 648.499537 310.880389 
L 650.086638 329.995982 
L 651.673738 326.885193 
L 653.260839 321.237372 
L 654.84794 314.510388 
L 658.022141 297.357408 
L 659.609242 290.342106 
L 661.196343 286.63651 
L 662.783443 285.421367 
L 665.957645 284.080331 
L 667.544746 282.86179 
L 669.131846 276.473367 
L 670.718947 263.884177 
L 672.306048 262.539989 
L 673.893148 275.191781 
L 675.480249 286.186804 
L 677.06735 282.383824 
L 678.65445 270.088734 
L 680.241551 261.118684 
L 681.828652 261.804786 
L 683.415753 265.26357 
L 685.002853 269.618767 
L 686.589954 273.271673 
L 688.177055 275.765881 
L 689.764155 277.743134 
L 691.351256 277.650401 
L 692.938357 274.689118 
L 694.525458 269.783103 
L 697.699659 258.420858 
L 699.28676 254.106616 
L 700.87386 252.131618 
L 702.460961 256.483053 
L 704.048062 265.802768 
L 705.635163 268.817185 
L 707.222263 256.054639 
L 708.809364 241.251214 
L 710.396465 246.032503 
L 711.983565 269.798249 
L 713.570666 273.263139 
L 715.157767 270.77369 
L 716.744868 264.675376 
L 718.331968 253.649458 
L 719.919069 253.961072 
L 721.50617 261.764368 
L 723.09327 268.659752 
L 724.680371 259.677703 
L 726.267472 223.246291 
L 727.854573 200.192431 
L 731.028774 260.74932 
L 732.615875 254.023316 
L 734.202975 244.412603 
L 735.790076 243.803015 
L 737.377177 245.529074 
L 738.964278 248.426435 
L 740.551378 252.202183 
L 742.138479 256.570551 
L 743.72558 266.635343 
L 745.31268 273.738516 
L 746.899781 273.045459 
L 748.486882 271.200415 
L 750.073983 268.387781 
L 751.661083 264.791957 
L 753.248184 260.597345 
L 756.422385 251.149351 
L 759.596587 241.518997 
L 761.183688 237.096434 
L 762.770788 233.181481 
L 764.357889 229.958537 
L 765.94499 227.612003 
L 767.53209 226.326276 
L 769.119191 228.840667 
L 770.706292 244.116076 
L 772.293393 252.096688 
L 773.880493 251.763127 
L 775.467594 251.00109 
L 777.054695 249.927679 
L 783.403098 244.862318 
L 784.990198 243.988556 
L 786.577299 243.506027 
L 788.1644 254.144027 
L 789.7515 286.079166 
L 791.338601 286.355759 
L 792.925702 285.115261 
L 794.512803 283.101283 
L 796.099903 280.421651 
L 797.687004 277.18419 
L 799.274105 273.496726 
L 802.448306 265.203089 
L 810.38381 243.531031 
L 811.97091 238.223604 
L 813.558011 232.224168 
L 816.732213 218.900589 
L 821.493515 198.420913 
L 823.080615 192.213861 
L 824.667716 186.629614 
L 826.254817 181.856001 
L 827.841918 178.080854 
L 829.429018 175.492003 
L 831.016119 174.277279 
L 832.60322 186.122956 
L 834.19032 195.446458 
L 835.777421 191.268354 
L 837.364522 184.17284 
L 838.951622 176.194508 
L 840.538723 169.367948 
L 842.125824 165.72775 
L 843.712925 200.374518 
L 845.300025 229.252012 
L 846.887126 235.214721 
L 848.474227 239.412302 
L 850.061327 242.037178 
L 851.648428 243.28177 
L 853.235529 243.00221 
L 854.82263 239.199564 
L 856.40973 232.221764 
L 857.996831 222.931614 
L 861.171032 200.865493 
L 862.758133 189.815133 
L 864.345234 179.903648 
L 865.932335 171.993845 
L 867.519435 166.94853 
L 869.106536 165.689809 
L 870.693637 170.173108 
L 872.280737 177.974742 
L 873.867838 184.96279 
L 875.454939 187.079178 
L 877.04204 184.44099 
L 878.62914 180.671115 
L 880.216241 175.461831 
L 881.803342 169.651916 
L 883.390442 164.415645 
L 884.977543 160.394544 
L 886.564644 156.802836 
L 888.151745 152.633246 
L 889.738845 146.878502 
L 891.325946 134.061652 
L 892.913047 109.288881 
L 894.500147 111.241801 
L 896.087248 191.235905 
L 897.674349 186.165555 
L 899.26145 171.492081 
L 900.84855 151.186768 
L 902.435651 128.950275 
L 904.022752 108.483263 
L 905.609852 93.48639 
L 907.196953 87.660318 
L 908.784054 106.537144 
L 910.371155 144.180055 
L 911.958255 172.029215 
L 913.545356 171.847909 
L 915.132457 161.419193 
L 916.719557 145.463197 
L 919.893759 109.304896 
L 921.48086 95.270357 
L 923.06796 88.04407 
L 924.655061 88.109331 
L 926.242162 90.06495 
L 927.829262 93.348911 
L 929.416363 97.71791 
L 931.003464 104.868337 
L 932.590565 126.50526 
L 934.177665 154.098259 
L 935.764766 174.775323 
L 937.351867 178.256713 
L 938.938967 175.873658 
L 940.526068 171.699636 
L 945.28737 156.201633 
L 946.874471 150.059296 
L 948.461572 144.800735 
L 950.048672 144.000978 
L 951.635773 144.645476 
L 953.222874 145.838697 
L 954.809975 147.477043 
L 956.397075 149.45692 
L 959.571277 154.026877 
L 962.745478 158.719797 
L 964.332579 160.853377 
L 965.91968 162.70691 
L 967.50678 164.176798 
L 969.093881 165.159445 
L 970.680982 165.551256 
L 972.268082 160.576403 
L 973.855183 156.965158 
L 975.442284 158.276202 
L 978.616485 163.174138 
L 980.203586 165.068594 
L 981.790687 165.325447 
L 983.377787 161.316097 
L 984.964888 153.416159 
L 986.551989 143.071805 
L 989.72619 120.83454 
L 991.313291 111.833975 
L 992.900392 106.173684 
L 994.487492 105.298942 
L 996.074593 109.711573 
L 997.661694 117.942172 
L 999.248794 128.292502 
L 1000.835895 140.751731 
L 1002.422996 159.480053 
L 1004.010097 157.723954 
L 1007.184298 133.646824 
L 1008.771399 133.094286 
L 1010.358499 147.86164 
L 1011.9456 152.571718 
L 1018.294003 152.571718 
L 1019.881104 152.250235 
L 1021.468204 149.305102 
L 1023.055305 143.932951 
L 1024.642406 136.931826 
L 1027.816607 121.234836 
L 1029.403708 114.135059 
L 1030.990809 108.598488 
L 1032.577909 105.423167 
L 1034.16501 104.970023 
L 1037.339212 104.970023 
L 1038.926312 117.070451 
L 1040.513413 117.952304 
L 1051.623118 117.952304 
L 1053.210219 117.76301 
L 1054.797319 114.079287 
L 1056.38442 104.820103 
L 1057.971521 91.991702 
L 1059.558622 91.319331 
L 1061.145722 141.802278 
L 1062.732823 166.508071 
L 1064.319924 177.032647 
L 1065.907024 193.730264 
L 1067.494125 230.82307 
L 1069.081226 260.246959 
L 1070.668327 267.91781 
L 1072.255427 272.70891 
L 1073.842528 282.128987 
L 1075.429629 303.984574 
L 1078.60383 356.30242 
L 1080.190931 386.252768 
L 1080.190931 386.252768 
" clip-path="url(#pd5a22dec33)" style="fill: none; stroke: #377eb8; stroke-width: 4"/>
   </g>
   <g id="line2d_77">
    <path d="M 132.672493 537.712707 
L 132.672493 50.877187 
" clip-path="url(#pd5a22dec33)" style="fill: none; stroke: #e41a1c; stroke-opacity: 0.6; stroke-width: 2"/>
   </g>
   <g id="line2d_78">
    <path d="M 216.802876 537.712707 
L 216.802876 50.877187 
" clip-path="url(#pd5a22dec33)" style="fill: none; stroke: #e41a1c; stroke-opacity: 0.6; stroke-width: 2"/>
   </g>
   <g id="line2d_79">
    <path d="M 258.868068 537.712707 
L 258.868068 50.877187 
" clip-path="url(#pd5a22dec33)" style="fill: none; stroke: #e41a1c; stroke-opacity: 0.6; stroke-width: 2"/>
   </g>
   <g id="line2d_80">
    <path d="M 519.14644 537.712707 
L 519.14644 50.877187 
" clip-path="url(#pd5a22dec33)" style="fill: none; stroke: #e41a1c; stroke-opacity: 0.6; stroke-width: 2"/>
   </g>
   <g id="line2d_81">
    <path d="M 796.250888 537.712707 
L 796.250888 50.877187 
" clip-path="url(#pd5a22dec33)" style="fill: none; stroke: #e41a1c; stroke-opacity: 0.6; stroke-width: 2"/>
   </g>
   <g id="line2d_82">
    <path d="M 901.939682 537.712707 
L 901.939682 50.877187 
" clip-path="url(#pd5a22dec33)" style="fill: none; stroke: #e41a1c; stroke-opacity: 0.6; stroke-width: 2"/>
   </g>
   <g id="line2d_83">
    <path d="M 1002.370327 537.712707 
L 1002.370327 50.877187 
" clip-path="url(#pd5a22dec33)" style="fill: none; stroke: #e41a1c; stroke-opacity: 0.6; stroke-width: 2"/>
   </g>
   <g id="patch_3">
    <path d="M 81.983938 537.712707 
L 81.983938 50.877188 
" style="fill: none; stroke: #f0f0f0; stroke-width: 3; stroke-linejoin: miter; stroke-linecap: square"/>
   </g>
   <g id="patch_4">
    <path d="M 1127.724597 537.712707 
L 1127.724597 50.877188 
" style="fill: none; stroke: #f0f0f0; stroke-width: 3; stroke-linejoin: miter; stroke-linecap: square"/>
   </g>
   <g id="patch_5">
    <path d="M 81.983937 537.712707 
L 1127.724597 537.712707 
" style="fill: none; stroke: #f0f0f0; stroke-width: 3; stroke-linejoin: miter; stroke-linecap: square"/>
   </g>
   <g id="patch_6">
    <path d="M 81.983937 50.877187 
L 1127.724597 50.877187 
" style="fill: none; stroke: #f0f0f0; stroke-width: 3; stroke-linejoin: miter; stroke-linecap: square"/>
   </g>
   <g id="patch_7">
    <path d="M 188.775272 73.942619 
Q 168.357417 97.347797 137.781383 99.317405 
" style="fill: none; stroke: #000000; stroke-linecap: round"/>
    <path d="M 141.901676 101.056135 
L 137.781383 99.317405 
L 141.644542 97.064408 
" style="fill: none; stroke: #000000; stroke-linecap: round"/>
   </g>
   <g id="text_40">
    <g id="patch_8">
     <path d="M 148.44694 73.944101 
L 239.90319 73.944101 
Q 241.90319 73.944101 241.90319 71.944101 
L 241.90319 62.265976 
Q 241.90319 60.265976 239.90319 60.265976 
L 148.44694 60.265976 
Q 146.44694 60.265976 146.44694 62.265976 
L 146.44694 71.944101 
Q 146.44694 73.944101 148.44694 73.944101 
z
" style="fill: #ffffff"/>
    </g>
    <!-- 2020 Election Day -->
    <g transform="translate(148.44694 69.864413) scale(0.1 -0.1)">
     <defs>
      <path id="DejaVuSans-45" d="M 628 4666 
L 3578 4666 
L 3578 4134 
L 1259 4134 
L 1259 2753 
L 3481 2753 
L 3481 2222 
L 1259 2222 
L 1259 531 
L 3634 531 
L 3634 0 
L 628 0 
L 628 4666 
z
" transform="scale(0.015625)"/>
      <path id="DejaVuSans-6c" d="M 603 4863 
L 1178 4863 
L 1178 0 
L 603 0 
L 603 4863 
z
" transform="scale(0.015625)"/>
      <path id="DejaVuSans-63" d="M 3122 3366 
L 3122 2828 
Q 2878 2963 2633 3030 
Q 2388 3097 2138 3097 
Q 1578 3097 1268 2742 
Q 959 2388 959 1747 
Q 959 1106 1268 751 
Q 1578 397 2138 397 
Q 2388 397 2633 464 
Q 2878 531 3122 666 
L 3122 134 
Q 2881 22 2623 -34 
Q 2366 -91 2075 -91 
Q 1284 -91 818 406 
Q 353 903 353 1747 
Q 353 2603 823 3093 
Q 1294 3584 2113 3584 
Q 2378 3584 2631 3529 
Q 2884 3475 3122 3366 
z
" transform="scale(0.015625)"/>
      <path id="DejaVuSans-6e" d="M 3513 2113 
L 3513 0 
L 2938 0 
L 2938 2094 
Q 2938 2591 2744 2837 
Q 2550 3084 2163 3084 
Q 1697 3084 1428 2787 
Q 1159 2491 1159 1978 
L 1159 0 
L 581 0 
L 581 3500 
L 1159 3500 
L 1159 2956 
Q 1366 3272 1645 3428 
Q 1925 3584 2291 3584 
Q 2894 3584 3203 3211 
Q 3513 2838 3513 2113 
z
" transform="scale(0.015625)"/>
     </defs>
     <use xlink:href="#DejaVuSans-32"/>
     <use xlink:href="#DejaVuSans-30" transform="translate(63.623047 0)"/>
     <use xlink:href="#DejaVuSans-32" transform="translate(127.246094 0)"/>
     <use xlink:href="#DejaVuSans-30" transform="translate(190.869141 0)"/>
     <use xlink:href="#DejaVuSans-20" transform="translate(254.492188 0)"/>
     <use xlink:href="#DejaVuSans-45" transform="translate(286.279297 0)"/>
     <use xlink:href="#DejaVuSans-6c" transform="translate(349.462891 0)"/>
     <use xlink:href="#DejaVuSans-65" transform="translate(377.246094 0)"/>
     <use xlink:href="#DejaVuSans-63" transform="translate(438.769531 0)"/>
     <use xlink:href="#DejaVuSans-74" transform="translate(493.75 0)"/>
     <use xlink:href="#DejaVuSans-69" transform="translate(532.958984 0)"/>
     <use xlink:href="#DejaVuSans-6f" transform="translate(560.742188 0)"/>
     <use xlink:href="#DejaVuSans-6e" transform="translate(621.923828 0)"/>
     <use xlink:href="#DejaVuSans-20" transform="translate(685.302734 0)"/>
     <use xlink:href="#DejaVuSans-44" transform="translate(717.089844 0)"/>
     <use xlink:href="#DejaVuSans-61" transform="translate(794.091797 0)"/>
     <use xlink:href="#DejaVuSans-79" transform="translate(855.371094 0)"/>
    </g>
   </g>
   <g id="patch_9">
    <path d="M 248.477301 359.552883 
Q 239.462459 376.99367 221.651531 383.528281 
" style="fill: none; stroke: #000000; stroke-linecap: round"/>
    <path d="M 226.095643 384.028149 
L 221.651531 383.528281 
L 224.717893 380.272913 
" style="fill: none; stroke: #000000; stroke-linecap: round"/>
   </g>
   <g id="text_41">
    <g id="patch_10">
     <path d="M 216.802876 359.554272 
L 286.166939 359.554272 
Q 288.166939 359.554272 288.166939 357.554272 
L 288.166939 347.876147 
Q 288.166939 345.876147 286.166939 345.876147 
L 216.802876 345.876147 
Q 214.802876 345.876147 214.802876 347.876147 
L 214.802876 357.554272 
Q 214.802876 359.554272 216.802876 359.554272 
z
" style="fill: #ffffff"/>
    </g>
    <!-- Got a new job -->
    <g transform="translate(216.802876 355.474585) scale(0.1 -0.1)">
     <defs>
      <path id="DejaVuSans-47" d="M 3809 666 
L 3809 1919 
L 2778 1919 
L 2778 2438 
L 4434 2438 
L 4434 434 
Q 4069 175 3628 42 
Q 3188 -91 2688 -91 
Q 1594 -91 976 548 
Q 359 1188 359 2328 
Q 359 3472 976 4111 
Q 1594 4750 2688 4750 
Q 3144 4750 3555 4637 
Q 3966 4525 4313 4306 
L 4313 3634 
Q 3963 3931 3569 4081 
Q 3175 4231 2741 4231 
Q 1884 4231 1454 3753 
Q 1025 3275 1025 2328 
Q 1025 1384 1454 906 
Q 1884 428 2741 428 
Q 3075 428 3337 486 
Q 3600 544 3809 666 
z
" transform="scale(0.015625)"/>
      <path id="DejaVuSans-77" d="M 269 3500 
L 844 3500 
L 1563 769 
L 2278 3500 
L 2956 3500 
L 3675 769 
L 4391 3500 
L 4966 3500 
L 4050 0 
L 3372 0 
L 2619 2869 
L 1863 0 
L 1184 0 
L 269 3500 
z
" transform="scale(0.015625)"/>
      <path id="DejaVuSans-6a" d="M 603 3500 
L 1178 3500 
L 1178 -63 
Q 1178 -731 923 -1031 
Q 669 -1331 103 -1331 
L -116 -1331 
L -116 -844 
L 38 -844 
Q 366 -844 484 -692 
Q 603 -541 603 -63 
L 603 3500 
z
M 603 4863 
L 1178 4863 
L 1178 4134 
L 603 4134 
L 603 4863 
z
" transform="scale(0.015625)"/>
      <path id="DejaVuSans-62" d="M 3116 1747 
Q 3116 2381 2855 2742 
Q 2594 3103 2138 3103 
Q 1681 3103 1420 2742 
Q 1159 2381 1159 1747 
Q 1159 1113 1420 752 
Q 1681 391 2138 391 
Q 2594 391 2855 752 
Q 3116 1113 3116 1747 
z
M 1159 2969 
Q 1341 3281 1617 3432 
Q 1894 3584 2278 3584 
Q 2916 3584 3314 3078 
Q 3713 2572 3713 1747 
Q 3713 922 3314 415 
Q 2916 -91 2278 -91 
Q 1894 -91 1617 61 
Q 1341 213 1159 525 
L 1159 0 
L 581 0 
L 581 4863 
L 1159 4863 
L 1159 2969 
z
" transform="scale(0.015625)"/>
     </defs>
     <use xlink:href="#DejaVuSans-47"/>
     <use xlink:href="#DejaVuSans-6f" transform="translate(77.490234 0)"/>
     <use xlink:href="#DejaVuSans-74" transform="translate(138.671875 0)"/>
     <use xlink:href="#DejaVuSans-20" transform="translate(177.880859 0)"/>
     <use xlink:href="#DejaVuSans-61" transform="translate(209.667969 0)"/>
     <use xlink:href="#DejaVuSans-20" transform="translate(270.947266 0)"/>
     <use xlink:href="#DejaVuSans-6e" transform="translate(302.734375 0)"/>
     <use xlink:href="#DejaVuSans-65" transform="translate(366.113281 0)"/>
     <use xlink:href="#DejaVuSans-77" transform="translate(427.636719 0)"/>
     <use xlink:href="#DejaVuSans-20" transform="translate(509.423828 0)"/>
     <use xlink:href="#DejaVuSans-6a" transform="translate(541.210938 0)"/>
     <use xlink:href="#DejaVuSans-6f" transform="translate(568.994141 0)"/>
     <use xlink:href="#DejaVuSans-62" transform="translate(630.175781 0)"/>
    </g>
   </g>
   <g id="patch_11">
    <path d="M 323.126976 495.867615 
Q 295.602297 513.101684 263.856429 506.39166 
" style="fill: none; stroke: #000000; stroke-linecap: round"/>
    <path d="M 267.356368 509.175619 
L 263.856429 506.39166 
L 268.183559 505.262084 
" style="fill: none; stroke: #000000; stroke-linecap: round"/>
   </g>
   <g id="text_42">
    <g id="patch_12">
     <path d="M 282.529738 495.868218 
L 382.829738 495.868218 
Q 384.829738 495.868218 384.829738 493.868218 
L 384.829738 484.190093 
Q 384.829738 482.190093 382.829738 482.190093 
L 282.529738 482.190093 
Q 280.529738 482.190093 280.529738 484.190093 
L 280.529738 493.868218 
Q 280.529738 495.868218 282.529738 495.868218 
z
" style="fill: #ffffff"/>
    </g>
    <!-- Moved to Austin, TX -->
    <g transform="translate(282.529738 491.78853) scale(0.1 -0.1)">
     <defs>
      <path id="DejaVuSans-4d" d="M 628 4666 
L 1569 4666 
L 2759 1491 
L 3956 4666 
L 4897 4666 
L 4897 0 
L 4281 0 
L 4281 4097 
L 3078 897 
L 2444 897 
L 1241 4097 
L 1241 0 
L 628 0 
L 628 4666 
z
" transform="scale(0.015625)"/>
      <path id="DejaVuSans-76" d="M 191 3500 
L 800 3500 
L 1894 563 
L 2988 3500 
L 3597 3500 
L 2284 0 
L 1503 0 
L 191 3500 
z
" transform="scale(0.015625)"/>
      <path id="DejaVuSans-41" d="M 2188 4044 
L 1331 1722 
L 3047 1722 
L 2188 4044 
z
M 1831 4666 
L 2547 4666 
L 4325 0 
L 3669 0 
L 3244 1197 
L 1141 1197 
L 716 0 
L 50 0 
L 1831 4666 
z
" transform="scale(0.015625)"/>
      <path id="DejaVuSans-75" d="M 544 1381 
L 544 3500 
L 1119 3500 
L 1119 1403 
Q 1119 906 1312 657 
Q 1506 409 1894 409 
Q 2359 409 2629 706 
Q 2900 1003 2900 1516 
L 2900 3500 
L 3475 3500 
L 3475 0 
L 2900 0 
L 2900 538 
Q 2691 219 2414 64 
Q 2138 -91 1772 -91 
Q 1169 -91 856 284 
Q 544 659 544 1381 
z
M 1991 3584 
L 1991 3584 
z
" transform="scale(0.015625)"/>
      <path id="DejaVuSans-73" d="M 2834 3397 
L 2834 2853 
Q 2591 2978 2328 3040 
Q 2066 3103 1784 3103 
Q 1356 3103 1142 2972 
Q 928 2841 928 2578 
Q 928 2378 1081 2264 
Q 1234 2150 1697 2047 
L 1894 2003 
Q 2506 1872 2764 1633 
Q 3022 1394 3022 966 
Q 3022 478 2636 193 
Q 2250 -91 1575 -91 
Q 1294 -91 989 -36 
Q 684 19 347 128 
L 347 722 
Q 666 556 975 473 
Q 1284 391 1588 391 
Q 1994 391 2212 530 
Q 2431 669 2431 922 
Q 2431 1156 2273 1281 
Q 2116 1406 1581 1522 
L 1381 1569 
Q 847 1681 609 1914 
Q 372 2147 372 2553 
Q 372 3047 722 3315 
Q 1072 3584 1716 3584 
Q 2034 3584 2315 3537 
Q 2597 3491 2834 3397 
z
" transform="scale(0.015625)"/>
      <path id="DejaVuSans-2c" d="M 750 794 
L 1409 794 
L 1409 256 
L 897 -744 
L 494 -744 
L 750 256 
L 750 794 
z
" transform="scale(0.015625)"/>
      <path id="DejaVuSans-58" d="M 403 4666 
L 1081 4666 
L 2241 2931 
L 3406 4666 
L 4084 4666 
L 2584 2425 
L 4184 0 
L 3506 0 
L 2194 1984 
L 872 0 
L 191 0 
L 1856 2491 
L 403 4666 
z
" transform="scale(0.015625)"/>
     </defs>
     <use xlink:href="#DejaVuSans-4d"/>
     <use xlink:href="#DejaVuSans-6f" transform="translate(86.279297 0)"/>
     <use xlink:href="#DejaVuSans-76" transform="translate(147.460938 0)"/>
     <use xlink:href="#DejaVuSans-65" transform="translate(206.640625 0)"/>
     <use xlink:href="#DejaVuSans-64" transform="translate(268.164062 0)"/>
     <use xlink:href="#DejaVuSans-20" transform="translate(331.640625 0)"/>
     <use xlink:href="#DejaVuSans-74" transform="translate(363.427734 0)"/>
     <use xlink:href="#DejaVuSans-6f" transform="translate(402.636719 0)"/>
     <use xlink:href="#DejaVuSans-20" transform="translate(463.818359 0)"/>
     <use xlink:href="#DejaVuSans-41" transform="translate(495.605469 0)"/>
     <use xlink:href="#DejaVuSans-75" transform="translate(564.013672 0)"/>
     <use xlink:href="#DejaVuSans-73" transform="translate(627.392578 0)"/>
     <use xlink:href="#DejaVuSans-74" transform="translate(679.492188 0)"/>
     <use xlink:href="#DejaVuSans-69" transform="translate(718.701172 0)"/>
     <use xlink:href="#DejaVuSans-6e" transform="translate(746.484375 0)"/>
     <use xlink:href="#DejaVuSans-2c" transform="translate(809.863281 0)"/>
     <use xlink:href="#DejaVuSans-20" transform="translate(841.650391 0)"/>
     <use xlink:href="#DejaVuSans-54" transform="translate(873.4375 0)"/>
     <use xlink:href="#DejaVuSans-58" transform="translate(934.521484 0)"/>
    </g>
   </g>
   <g id="patch_13">
    <path d="M 575.249219 187.537573 
Q 554.831363 210.942752 524.255329 212.91236 
" style="fill: none; stroke: #000000; stroke-linecap: round"/>
    <path d="M 528.375623 214.651089 
L 524.255329 212.91236 
L 528.118489 210.659362 
" style="fill: none; stroke: #000000; stroke-linecap: round"/>
   </g>
   <g id="text_43">
    <g id="patch_14">
     <path d="M 534.920887 187.539055 
L 626.377137 187.539055 
Q 628.377137 187.539055 628.377137 185.539055 
L 628.377137 175.86093 
Q 628.377137 173.86093 626.377137 173.86093 
L 534.920887 173.86093 
Q 532.920887 173.86093 532.920887 175.86093 
L 532.920887 185.539055 
Q 532.920887 187.539055 534.920887 187.539055 
z
" style="fill: #ffffff"/>
    </g>
    <!-- 2022 Election Day -->
    <g transform="translate(534.920887 183.459368) scale(0.1 -0.1)">
     <use xlink:href="#DejaVuSans-32"/>
     <use xlink:href="#DejaVuSans-30" transform="translate(63.623047 0)"/>
     <use xlink:href="#DejaVuSans-32" transform="translate(127.246094 0)"/>
     <use xlink:href="#DejaVuSans-32" transform="translate(190.869141 0)"/>
     <use xlink:href="#DejaVuSans-20" transform="translate(254.492188 0)"/>
     <use xlink:href="#DejaVuSans-45" transform="translate(286.279297 0)"/>
     <use xlink:href="#DejaVuSans-6c" transform="translate(349.462891 0)"/>
     <use xlink:href="#DejaVuSans-65" transform="translate(377.246094 0)"/>
     <use xlink:href="#DejaVuSans-63" transform="translate(438.769531 0)"/>
     <use xlink:href="#DejaVuSans-74" transform="translate(493.75 0)"/>
     <use xlink:href="#DejaVuSans-69" transform="translate(532.958984 0)"/>
     <use xlink:href="#DejaVuSans-6f" transform="translate(560.742188 0)"/>
     <use xlink:href="#DejaVuSans-6e" transform="translate(621.923828 0)"/>
     <use xlink:href="#DejaVuSans-20" transform="translate(685.302734 0)"/>
     <use xlink:href="#DejaVuSans-44" transform="translate(717.089844 0)"/>
     <use xlink:href="#DejaVuSans-61" transform="translate(794.091797 0)"/>
     <use xlink:href="#DejaVuSans-79" transform="translate(855.371094 0)"/>
    </g>
   </g>
   <g id="patch_15">
    <path d="M 844.15737 276.791108 
Q 824.556588 290.086262 801.30577 286.962965 
" style="fill: none; stroke: #000000; stroke-linecap: round"/>
    <path d="M 805.003892 289.4777 
L 801.30577 286.962965 
L 805.536431 285.513308 
" style="fill: none; stroke: #000000; stroke-linecap: round"/>
   </g>
   <g id="text_44">
    <g id="patch_16">
     <path d="M 806.767186 276.792234 
L 898.742186 276.792234 
Q 900.742186 276.792234 900.742186 274.792234 
L 900.742186 265.114109 
Q 900.742186 263.114109 898.742186 263.114109 
L 806.767186 263.114109 
Q 804.767186 263.114109 804.767186 265.114109 
L 804.767186 274.792234 
Q 804.767186 276.792234 806.767186 276.792234 
z
" style="fill: #ffffff"/>
    </g>
    <!-- Bought first house -->
    <g transform="translate(806.767186 272.712546) scale(0.1 -0.1)">
     <use xlink:href="#DejaVuSans-42"/>
     <use xlink:href="#DejaVuSans-6f" transform="translate(68.603516 0)"/>
     <use xlink:href="#DejaVuSans-75" transform="translate(129.785156 0)"/>
     <use xlink:href="#DejaVuSans-67" transform="translate(193.164062 0)"/>
     <use xlink:href="#DejaVuSans-68" transform="translate(256.640625 0)"/>
     <use xlink:href="#DejaVuSans-74" transform="translate(320.019531 0)"/>
     <use xlink:href="#DejaVuSans-20" transform="translate(359.228516 0)"/>
     <use xlink:href="#DejaVuSans-66" transform="translate(391.015625 0)"/>
     <use xlink:href="#DejaVuSans-69" transform="translate(426.220703 0)"/>
     <use xlink:href="#DejaVuSans-72" transform="translate(454.003906 0)"/>
     <use xlink:href="#DejaVuSans-73" transform="translate(495.117188 0)"/>
     <use xlink:href="#DejaVuSans-74" transform="translate(547.216797 0)"/>
     <use xlink:href="#DejaVuSans-20" transform="translate(586.425781 0)"/>
     <use xlink:href="#DejaVuSans-68" transform="translate(618.212891 0)"/>
     <use xlink:href="#DejaVuSans-6f" transform="translate(681.591797 0)"/>
     <use xlink:href="#DejaVuSans-75" transform="translate(742.773438 0)"/>
     <use xlink:href="#DejaVuSans-73" transform="translate(806.152344 0)"/>
     <use xlink:href="#DejaVuSans-65" transform="translate(858.251953 0)"/>
    </g>
   </g>
   <g id="patch_17">
    <path d="M 948.329962 57.719314 
Q 932.509832 78.742495 907.010858 82.655074 
" style="fill: none; stroke: #000000; stroke-linecap: round"/>
    <path d="M 911.267916 84.025275 
L 907.010858 82.655074 
L 910.661254 80.071548 
" style="fill: none; stroke: #000000; stroke-linecap: round"/>
   </g>
   <g id="text_45">
    <g id="patch_18">
     <path d="M 907.197831 57.71625 
L 998.654081 57.71625 
Q 1000.654081 57.71625 1000.654081 55.71625 
L 1000.654081 46.038125 
Q 1000.654081 44.038125 998.654081 44.038125 
L 907.197831 44.038125 
Q 905.197831 44.038125 905.197831 46.038125 
L 905.197831 55.71625 
Q 905.197831 57.71625 907.197831 57.71625 
z
" style="fill: #ffffff"/>
    </g>
    <!-- 2024 Election Day -->
    <g transform="translate(907.197831 53.636563) scale(0.1 -0.1)">
     <use xlink:href="#DejaVuSans-32"/>
     <use xlink:href="#DejaVuSans-30" transform="translate(63.623047 0)"/>
     <use xlink:href="#DejaVuSans-32" transform="translate(127.246094 0)"/>
     <use xlink:href="#DejaVuSans-34" transform="translate(190.869141 0)"/>
     <use xlink:href="#DejaVuSans-20" transform="translate(254.492188 0)"/>
     <use xlink:href="#DejaVuSans-45" transform="translate(286.279297 0)"/>
     <use xlink:href="#DejaVuSans-6c" transform="translate(349.462891 0)"/>
     <use xlink:href="#DejaVuSans-65" transform="translate(377.246094 0)"/>
     <use xlink:href="#DejaVuSans-63" transform="translate(438.769531 0)"/>
     <use xlink:href="#DejaVuSans-74" transform="translate(493.75 0)"/>
     <use xlink:href="#DejaVuSans-69" transform="translate(532.958984 0)"/>
     <use xlink:href="#DejaVuSans-6f" transform="translate(560.742188 0)"/>
     <use xlink:href="#DejaVuSans-6e" transform="translate(621.923828 0)"/>
     <use xlink:href="#DejaVuSans-20" transform="translate(685.302734 0)"/>
     <use xlink:href="#DejaVuSans-44" transform="translate(717.089844 0)"/>
     <use xlink:href="#DejaVuSans-61" transform="translate(794.091797 0)"/>
     <use xlink:href="#DejaVuSans-79" transform="translate(855.371094 0)"/>
    </g>
   </g>
   <g id="patch_19">
    <path d="M 1062.107858 63.314488 
Q 1045.216706 99.928625 1007.188873 114.065974 
" style="fill: none; stroke: #000000; stroke-linecap: round"/>
    <path d="M 1011.635088 114.546771 
L 1007.188873 114.065974 
L 1010.24124 110.79748 
" style="fill: none; stroke: #000000; stroke-linecap: round"/>
   </g>
   <g id="text_46">
    <g id="patch_20">
     <path d="M 1010.25755 63.315156 
L 1123.735675 63.315156 
Q 1125.735675 63.315156 1125.735675 61.315156 
L 1125.735675 40.439219 
Q 1125.735675 38.439219 1123.735675 38.439219 
L 1010.25755 38.439219 
Q 1008.25755 38.439219 1008.25755 40.439219 
L 1008.25755 61.315156 
Q 1008.25755 63.315156 1010.25755 63.315156 
z
" style="fill: #ffffff"/>
    </g>
    <!-- Quit my job and -->
    <g transform="translate(1010.25755 48.037656) scale(0.1 -0.1)">
     <defs>
      <path id="DejaVuSans-6d" d="M 3328 2828 
Q 3544 3216 3844 3400 
Q 4144 3584 4550 3584 
Q 5097 3584 5394 3201 
Q 5691 2819 5691 2113 
L 5691 0 
L 5113 0 
L 5113 2094 
Q 5113 2597 4934 2840 
Q 4756 3084 4391 3084 
Q 3944 3084 3684 2787 
Q 3425 2491 3425 1978 
L 3425 0 
L 2847 0 
L 2847 2094 
Q 2847 2600 2669 2842 
Q 2491 3084 2119 3084 
Q 1678 3084 1418 2786 
Q 1159 2488 1159 1978 
L 1159 0 
L 581 0 
L 581 3500 
L 1159 3500 
L 1159 2956 
Q 1356 3278 1631 3431 
Q 1906 3584 2284 3584 
Q 2666 3584 2933 3390 
Q 3200 3197 3328 2828 
z
" transform="scale(0.015625)"/>
     </defs>
     <use xlink:href="#DejaVuSans-51"/>
     <use xlink:href="#DejaVuSans-75" transform="translate(78.710938 0)"/>
     <use xlink:href="#DejaVuSans-69" transform="translate(142.089844 0)"/>
     <use xlink:href="#DejaVuSans-74" transform="translate(169.873047 0)"/>
     <use xlink:href="#DejaVuSans-20" transform="translate(209.082031 0)"/>
     <use xlink:href="#DejaVuSans-6d" transform="translate(240.869141 0)"/>
     <use xlink:href="#DejaVuSans-79" transform="translate(338.28125 0)"/>
     <use xlink:href="#DejaVuSans-20" transform="translate(397.460938 0)"/>
     <use xlink:href="#DejaVuSans-6a" transform="translate(429.248047 0)"/>
     <use xlink:href="#DejaVuSans-6f" transform="translate(457.03125 0)"/>
     <use xlink:href="#DejaVuSans-62" transform="translate(518.212891 0)"/>
     <use xlink:href="#DejaVuSans-20" transform="translate(581.689453 0)"/>
     <use xlink:href="#DejaVuSans-61" transform="translate(613.476562 0)"/>
     <use xlink:href="#DejaVuSans-6e" transform="translate(674.755859 0)"/>
     <use xlink:href="#DejaVuSans-64" transform="translate(738.134766 0)"/>
    </g>
    <!-- became self-employed -->
    <g transform="translate(1010.25755 59.235469) scale(0.1 -0.1)">
     <defs>
      <path id="DejaVuSans-2d" d="M 313 2009 
L 1997 2009 
L 1997 1497 
L 313 1497 
L 313 2009 
z
" transform="scale(0.015625)"/>
      <path id="DejaVuSans-70" d="M 1159 525 
L 1159 -1331 
L 581 -1331 
L 581 3500 
L 1159 3500 
L 1159 2969 
Q 1341 3281 1617 3432 
Q 1894 3584 2278 3584 
Q 2916 3584 3314 3078 
Q 3713 2572 3713 1747 
Q 3713 922 3314 415 
Q 2916 -91 2278 -91 
Q 1894 -91 1617 61 
Q 1341 213 1159 525 
z
M 3116 1747 
Q 3116 2381 2855 2742 
Q 2594 3103 2138 3103 
Q 1681 3103 1420 2742 
Q 1159 2381 1159 1747 
Q 1159 1113 1420 752 
Q 1681 391 2138 391 
Q 2594 391 2855 752 
Q 3116 1113 3116 1747 
z
" transform="scale(0.015625)"/>
     </defs>
     <use xlink:href="#DejaVuSans-62"/>
     <use xlink:href="#DejaVuSans-65" transform="translate(63.476562 0)"/>
     <use xlink:href="#DejaVuSans-63" transform="translate(125 0)"/>
     <use xlink:href="#DejaVuSans-61" transform="translate(179.980469 0)"/>
     <use xlink:href="#DejaVuSans-6d" transform="translate(241.259766 0)"/>
     <use xlink:href="#DejaVuSans-65" transform="translate(338.671875 0)"/>
     <use xlink:href="#DejaVuSans-20" transform="translate(400.195312 0)"/>
     <use xlink:href="#DejaVuSans-73" transform="translate(431.982422 0)"/>
     <use xlink:href="#DejaVuSans-65" transform="translate(484.082031 0)"/>
     <use xlink:href="#DejaVuSans-6c" transform="translate(545.605469 0)"/>
     <use xlink:href="#DejaVuSans-66" transform="translate(573.388672 0)"/>
     <use xlink:href="#DejaVuSans-2d" transform="translate(603.09375 0)"/>
     <use xlink:href="#DejaVuSans-65" transform="translate(639.177734 0)"/>
     <use xlink:href="#DejaVuSans-6d" transform="translate(700.701172 0)"/>
     <use xlink:href="#DejaVuSans-70" transform="translate(798.113281 0)"/>
     <use xlink:href="#DejaVuSans-6c" transform="translate(861.589844 0)"/>
     <use xlink:href="#DejaVuSans-6f" transform="translate(889.373047 0)"/>
     <use xlink:href="#DejaVuSans-79" transform="translate(950.554688 0)"/>
     <use xlink:href="#DejaVuSans-65" transform="translate(1009.734375 0)"/>
     <use xlink:href="#DejaVuSans-64" transform="translate(1071.257812 0)"/>
    </g>
   </g>
   <g id="text_47">
    <!-- Body Weight Relative to Goal -->
    <g transform="translate(473.510517 20.877187) scale(0.18 -0.18)">
     <defs>
      <path id="DejaVuSans-52" d="M 2841 2188 
Q 3044 2119 3236 1894 
Q 3428 1669 3622 1275 
L 4263 0 
L 3584 0 
L 2988 1197 
Q 2756 1666 2539 1819 
Q 2322 1972 1947 1972 
L 1259 1972 
L 1259 0 
L 628 0 
L 628 4666 
L 2053 4666 
Q 2853 4666 3247 4331 
Q 3641 3997 3641 3322 
Q 3641 2881 3436 2590 
Q 3231 2300 2841 2188 
z
M 1259 4147 
L 1259 2491 
L 2053 2491 
Q 2509 2491 2742 2702 
Q 2975 2913 2975 3322 
Q 2975 3731 2742 3939 
Q 2509 4147 2053 4147 
L 1259 4147 
z
" transform="scale(0.015625)"/>
     </defs>
     <use xlink:href="#DejaVuSans-42"/>
     <use xlink:href="#DejaVuSans-6f" transform="translate(68.603516 0)"/>
     <use xlink:href="#DejaVuSans-64" transform="translate(129.785156 0)"/>
     <use xlink:href="#DejaVuSans-79" transform="translate(193.261719 0)"/>
     <use xlink:href="#DejaVuSans-20" transform="translate(252.441406 0)"/>
     <use xlink:href="#DejaVuSans-57" transform="translate(284.228516 0)"/>
     <use xlink:href="#DejaVuSans-65" transform="translate(377.230469 0)"/>
     <use xlink:href="#DejaVuSans-69" transform="translate(438.753906 0)"/>
     <use xlink:href="#DejaVuSans-67" transform="translate(466.537109 0)"/>
     <use xlink:href="#DejaVuSans-68" transform="translate(530.013672 0)"/>
     <use xlink:href="#DejaVuSans-74" transform="translate(593.392578 0)"/>
     <use xlink:href="#DejaVuSans-20" transform="translate(632.601562 0)"/>
     <use xlink:href="#DejaVuSans-52" transform="translate(664.388672 0)"/>
     <use xlink:href="#DejaVuSans-65" transform="translate(729.371094 0)"/>
     <use xlink:href="#DejaVuSans-6c" transform="translate(790.894531 0)"/>
     <use xlink:href="#DejaVuSans-61" transform="translate(818.677734 0)"/>
     <use xlink:href="#DejaVuSans-74" transform="translate(879.957031 0)"/>
     <use xlink:href="#DejaVuSans-69" transform="translate(919.166016 0)"/>
     <use xlink:href="#DejaVuSans-76" transform="translate(946.949219 0)"/>
     <use xlink:href="#DejaVuSans-65" transform="translate(1006.128906 0)"/>
     <use xlink:href="#DejaVuSans-20" transform="translate(1067.652344 0)"/>
     <use xlink:href="#DejaVuSans-74" transform="translate(1099.439453 0)"/>
     <use xlink:href="#DejaVuSans-6f" transform="translate(1138.648438 0)"/>
     <use xlink:href="#DejaVuSans-20" transform="translate(1199.830078 0)"/>
     <use xlink:href="#DejaVuSans-47" transform="translate(1231.617188 0)"/>
     <use xlink:href="#DejaVuSans-6f" transform="translate(1309.107422 0)"/>
     <use xlink:href="#DejaVuSans-61" transform="translate(1370.289062 0)"/>
     <use xlink:href="#DejaVuSans-6c" transform="translate(1431.568359 0)"/>
    </g>
   </g>
  </g>
 </g>
 <defs>
  <clipPath id="pd5a22dec33">
   <rect x="81.983938" y="50.877187" width="1045.74066" height="486.83552"/>
  </clipPath>
 </defs>
</svg>
