<?xml version="1.0" encoding="utf-8" standalone="no"?>
<!DOCTYPE svg PUBLIC "-//W3C//DTD SVG 1.1//EN"
  "http://www.w3.org/Graphics/SVG/1.1/DTD/svg11.dtd">
<svg xmlns:xlink="http://www.w3.org/1999/xlink" width="480.636569pt" height="323.39625pt" viewBox="0 0 480.636569 323.39625" xmlns="http://www.w3.org/2000/svg" version="1.1">
 <metadata>
  <rdf:RDF xmlns:dc="http://purl.org/dc/elements/1.1/" xmlns:cc="http://creativecommons.org/ns#" xmlns:rdf="http://www.w3.org/1999/02/22-rdf-syntax-ns#">
   <cc:Work>
    <dc:type rdf:resource="http://purl.org/dc/dcmitype/StillImage"/>
    <dc:date>2024-08-09T11:07:49.711777</dc:date>
    <dc:format>image/svg+xml</dc:format>
    <dc:creator>
     <cc:Agent>
      <dc:title>Matplotlib v3.9.1, https://matplotlib.org/</dc:title>
     </cc:Agent>
    </dc:creator>
   </cc:Work>
  </rdf:RDF>
 </metadata>
 <defs>
  <style type="text/css">*{stroke-linejoin: round; stroke-linecap: butt}</style>
 </defs>
 <g id="figure_1">
  <g id="patch_1">
   <path d="M 0 323.39625 
L 480.636569 323.39625 
L 480.636569 0 
L 0 0 
z
" style="fill: #ffffff"/>
  </g>
  <g id="axes_1">
   <g id="patch_2">
    <path d="M 42.828125 299.518125 
L 433.428125 299.518125 
L 433.428125 22.318125 
L 42.828125 22.318125 
z
" style="fill: #ffffff"/>
   </g>
   <g id="PathCollection_1">
    <defs>
     <path id="m4aa35462ae" d="M 0 3 
C 0.795609 3 1.55874 2.683901 2.12132 2.12132 
C 2.683901 1.55874 3 0.795609 3 0 
C 3 -0.795609 2.683901 -1.55874 2.12132 -2.12132 
C 1.55874 -2.683901 0.795609 -3 0 -3 
C -0.795609 -3 -1.55874 -2.683901 -2.12132 -2.12132 
C -2.683901 -1.55874 -3 -0.795609 -3 0 
C -3 0.795609 -2.683901 1.55874 -2.12132 2.12132 
C -1.55874 2.683901 -0.795609 3 0 3 
z
" style="stroke: #1f77b4"/>
    </defs>
    <g clip-path="url(#pa91955dc65)">
     <use xlink:href="#m4aa35462ae" x="60.58267" y="66.184974" style="fill: #1f77b4; stroke: #1f77b4"/>
     <use xlink:href="#m4aa35462ae" x="72.419034" y="38.593331" style="fill: #1f77b4; stroke: #1f77b4"/>
     <use xlink:href="#m4aa35462ae" x="84.255398" y="66.184974" style="fill: #1f77b4; stroke: #1f77b4"/>
     <use xlink:href="#m4aa35462ae" x="96.091761" y="52.389153" style="fill: #1f77b4; stroke: #1f77b4"/>
     <use xlink:href="#m4aa35462ae" x="107.928125" y="38.593331" style="fill: #1f77b4; stroke: #1f77b4"/>
     <use xlink:href="#m4aa35462ae" x="119.764489" y="52.389153" style="fill: #1f77b4; stroke: #1f77b4"/>
     <use xlink:href="#m4aa35462ae" x="131.600852" y="121.368262" style="fill: #1f77b4; stroke: #1f77b4"/>
     <use xlink:href="#m4aa35462ae" x="143.437216" y="135.164084" style="fill: #1f77b4; stroke: #1f77b4"/>
     <use xlink:href="#m4aa35462ae" x="155.27358" y="93.776618" style="fill: #1f77b4; stroke: #1f77b4"/>
     <use xlink:href="#m4aa35462ae" x="167.109943" y="79.980796" style="fill: #1f77b4; stroke: #1f77b4"/>
     <use xlink:href="#m4aa35462ae" x="178.946307" y="107.57244" style="fill: #1f77b4; stroke: #1f77b4"/>
     <use xlink:href="#m4aa35462ae" x="190.78267" y="217.939015" style="fill: #1f77b4; stroke: #1f77b4"/>
     <use xlink:href="#m4aa35462ae" x="202.619034" y="190.347372" style="fill: #1f77b4; stroke: #1f77b4"/>
     <use xlink:href="#m4aa35462ae" x="214.455398" y="148.959906" style="fill: #1f77b4; stroke: #1f77b4"/>
     <use xlink:href="#m4aa35462ae" x="226.291761" y="93.776618" style="fill: #1f77b4; stroke: #1f77b4"/>
     <use xlink:href="#m4aa35462ae" x="238.128125" y="79.980796" style="fill: #1f77b4; stroke: #1f77b4"/>
     <use xlink:href="#m4aa35462ae" x="249.964489" y="93.776618" style="fill: #1f77b4; stroke: #1f77b4"/>
     <use xlink:href="#m4aa35462ae" x="261.800852" y="107.57244" style="fill: #1f77b4; stroke: #1f77b4"/>
     <use xlink:href="#m4aa35462ae" x="273.637216" y="135.164084" style="fill: #1f77b4; stroke: #1f77b4"/>
     <use xlink:href="#m4aa35462ae" x="285.47358" y="107.57244" style="fill: #1f77b4; stroke: #1f77b4"/>
     <use xlink:href="#m4aa35462ae" x="297.309943" y="93.776618" style="fill: #1f77b4; stroke: #1f77b4"/>
     <use xlink:href="#m4aa35462ae" x="309.146307" y="162.755728" style="fill: #1f77b4; stroke: #1f77b4"/>
     <use xlink:href="#m4aa35462ae" x="320.98267" y="286.918125" style="fill: #1f77b4; stroke: #1f77b4"/>
     <use xlink:href="#m4aa35462ae" x="332.819034" y="190.347372" style="fill: #1f77b4; stroke: #1f77b4"/>
     <use xlink:href="#m4aa35462ae" x="344.655398" y="204.143194" style="fill: #1f77b4; stroke: #1f77b4"/>
     <use xlink:href="#m4aa35462ae" x="356.491761" y="190.347372" style="fill: #1f77b4; stroke: #1f77b4"/>
     <use xlink:href="#m4aa35462ae" x="368.328125" y="231.734837" style="fill: #1f77b4; stroke: #1f77b4"/>
     <use xlink:href="#m4aa35462ae" x="380.164489" y="217.939015" style="fill: #1f77b4; stroke: #1f77b4"/>
     <use xlink:href="#m4aa35462ae" x="392.000852" y="107.57244" style="fill: #1f77b4; stroke: #1f77b4"/>
     <use xlink:href="#m4aa35462ae" x="403.837216" y="121.368262" style="fill: #1f77b4; stroke: #1f77b4"/>
     <use xlink:href="#m4aa35462ae" x="415.67358" y="107.57244" style="fill: #1f77b4; stroke: #1f77b4"/>
    </g>
   </g>
   <g id="matplotlib.axis_1">
    <g id="xtick_1">
     <g id="line2d_1">
      <defs>
       <path id="m4ae549f927" d="M 0 0 
L 0 3.5 
" style="stroke: #000000; stroke-width: 0.8"/>
      </defs>
      <g>
       <use xlink:href="#m4ae549f927" x="48.746307" y="299.518125" style="stroke: #000000; stroke-width: 0.8"/>
      </g>
     </g>
     <g id="text_1">
      <!-- 0 -->
      <g transform="translate(45.565057 314.116563) scale(0.1 -0.1)">
       <defs>
        <path id="DejaVuSans-30" d="M 2034 4250 
Q 1547 4250 1301 3770 
Q 1056 3291 1056 2328 
Q 1056 1369 1301 889 
Q 1547 409 2034 409 
Q 2525 409 2770 889 
Q 3016 1369 3016 2328 
Q 3016 3291 2770 3770 
Q 2525 4250 2034 4250 
z
M 2034 4750 
Q 2819 4750 3233 4129 
Q 3647 3509 3647 2328 
Q 3647 1150 3233 529 
Q 2819 -91 2034 -91 
Q 1250 -91 836 529 
Q 422 1150 422 2328 
Q 422 3509 836 4129 
Q 1250 4750 2034 4750 
z
" transform="scale(0.015625)"/>
       </defs>
       <use xlink:href="#DejaVuSans-30"/>
      </g>
     </g>
    </g>
    <g id="xtick_2">
     <g id="line2d_2">
      <g>
       <use xlink:href="#m4ae549f927" x="107.928125" y="299.518125" style="stroke: #000000; stroke-width: 0.8"/>
      </g>
     </g>
     <g id="text_2">
      <!-- 5 -->
      <g transform="translate(104.746875 314.116563) scale(0.1 -0.1)">
       <defs>
        <path id="DejaVuSans-35" d="M 691 4666 
L 3169 4666 
L 3169 4134 
L 1269 4134 
L 1269 2991 
Q 1406 3038 1543 3061 
Q 1681 3084 1819 3084 
Q 2600 3084 3056 2656 
Q 3513 2228 3513 1497 
Q 3513 744 3044 326 
Q 2575 -91 1722 -91 
Q 1428 -91 1123 -41 
Q 819 9 494 109 
L 494 744 
Q 775 591 1075 516 
Q 1375 441 1709 441 
Q 2250 441 2565 725 
Q 2881 1009 2881 1497 
Q 2881 1984 2565 2268 
Q 2250 2553 1709 2553 
Q 1456 2553 1204 2497 
Q 953 2441 691 2322 
L 691 4666 
z
" transform="scale(0.015625)"/>
       </defs>
       <use xlink:href="#DejaVuSans-35"/>
      </g>
     </g>
    </g>
    <g id="xtick_3">
     <g id="line2d_3">
      <g>
       <use xlink:href="#m4ae549f927" x="167.109943" y="299.518125" style="stroke: #000000; stroke-width: 0.8"/>
      </g>
     </g>
     <g id="text_3">
      <!-- 10 -->
      <g transform="translate(160.747443 314.116563) scale(0.1 -0.1)">
       <defs>
        <path id="DejaVuSans-31" d="M 794 531 
L 1825 531 
L 1825 4091 
L 703 3866 
L 703 4441 
L 1819 4666 
L 2450 4666 
L 2450 531 
L 3481 531 
L 3481 0 
L 794 0 
L 794 531 
z
" transform="scale(0.015625)"/>
       </defs>
       <use xlink:href="#DejaVuSans-31"/>
       <use xlink:href="#DejaVuSans-30" x="63.623047"/>
      </g>
     </g>
    </g>
    <g id="xtick_4">
     <g id="line2d_4">
      <g>
       <use xlink:href="#m4ae549f927" x="226.291761" y="299.518125" style="stroke: #000000; stroke-width: 0.8"/>
      </g>
     </g>
     <g id="text_4">
      <!-- 15 -->
      <g transform="translate(219.929261 314.116563) scale(0.1 -0.1)">
       <use xlink:href="#DejaVuSans-31"/>
       <use xlink:href="#DejaVuSans-35" x="63.623047"/>
      </g>
     </g>
    </g>
    <g id="xtick_5">
     <g id="line2d_5">
      <g>
       <use xlink:href="#m4ae549f927" x="285.47358" y="299.518125" style="stroke: #000000; stroke-width: 0.8"/>
      </g>
     </g>
     <g id="text_5">
      <!-- 20 -->
      <g transform="translate(279.11108 314.116563) scale(0.1 -0.1)">
       <defs>
        <path id="DejaVuSans-32" d="M 1228 531 
L 3431 531 
L 3431 0 
L 469 0 
L 469 531 
Q 828 903 1448 1529 
Q 2069 2156 2228 2338 
Q 2531 2678 2651 2914 
Q 2772 3150 2772 3378 
Q 2772 3750 2511 3984 
Q 2250 4219 1831 4219 
Q 1534 4219 1204 4116 
Q 875 4013 500 3803 
L 500 4441 
Q 881 4594 1212 4672 
Q 1544 4750 1819 4750 
Q 2544 4750 2975 4387 
Q 3406 4025 3406 3419 
Q 3406 3131 3298 2873 
Q 3191 2616 2906 2266 
Q 2828 2175 2409 1742 
Q 1991 1309 1228 531 
z
" transform="scale(0.015625)"/>
       </defs>
       <use xlink:href="#DejaVuSans-32"/>
       <use xlink:href="#DejaVuSans-30" x="63.623047"/>
      </g>
     </g>
    </g>
    <g id="xtick_6">
     <g id="line2d_6">
      <g>
       <use xlink:href="#m4ae549f927" x="344.655398" y="299.518125" style="stroke: #000000; stroke-width: 0.8"/>
      </g>
     </g>
     <g id="text_6">
      <!-- 25 -->
      <g transform="translate(338.292898 314.116563) scale(0.1 -0.1)">
       <use xlink:href="#DejaVuSans-32"/>
       <use xlink:href="#DejaVuSans-35" x="63.623047"/>
      </g>
     </g>
    </g>
    <g id="xtick_7">
     <g id="line2d_7">
      <g>
       <use xlink:href="#m4ae549f927" x="403.837216" y="299.518125" style="stroke: #000000; stroke-width: 0.8"/>
      </g>
     </g>
     <g id="text_7">
      <!-- 30 -->
      <g transform="translate(397.474716 314.116563) scale(0.1 -0.1)">
       <defs>
        <path id="DejaVuSans-33" d="M 2597 2516 
Q 3050 2419 3304 2112 
Q 3559 1806 3559 1356 
Q 3559 666 3084 287 
Q 2609 -91 1734 -91 
Q 1441 -91 1130 -33 
Q 819 25 488 141 
L 488 750 
Q 750 597 1062 519 
Q 1375 441 1716 441 
Q 2309 441 2620 675 
Q 2931 909 2931 1356 
Q 2931 1769 2642 2001 
Q 2353 2234 1838 2234 
L 1294 2234 
L 1294 2753 
L 1863 2753 
Q 2328 2753 2575 2939 
Q 2822 3125 2822 3475 
Q 2822 3834 2567 4026 
Q 2313 4219 1838 4219 
Q 1578 4219 1281 4162 
Q 984 4106 628 3988 
L 628 4550 
Q 988 4650 1302 4700 
Q 1616 4750 1894 4750 
Q 2613 4750 3031 4423 
Q 3450 4097 3450 3541 
Q 3450 3153 3228 2886 
Q 3006 2619 2597 2516 
z
" transform="scale(0.015625)"/>
       </defs>
       <use xlink:href="#DejaVuSans-33"/>
       <use xlink:href="#DejaVuSans-30" x="63.623047"/>
      </g>
     </g>
    </g>
   </g>
   <g id="matplotlib.axis_2">
    <g id="ytick_1">
     <g id="line2d_8">
      <defs>
       <path id="m97b5ad9c86" d="M 0 0 
L -3.5 0 
" style="stroke: #000000; stroke-width: 0.8"/>
      </defs>
      <g>
       <use xlink:href="#m97b5ad9c86" x="42.828125" y="280.020214" style="stroke: #000000; stroke-width: 0.8"/>
      </g>
     </g>
     <g id="text_8">
      <!-- 82.5 -->
      <g transform="translate(13.5625 283.819433) scale(0.1 -0.1)">
       <defs>
        <path id="DejaVuSans-38" d="M 2034 2216 
Q 1584 2216 1326 1975 
Q 1069 1734 1069 1313 
Q 1069 891 1326 650 
Q 1584 409 2034 409 
Q 2484 409 2743 651 
Q 3003 894 3003 1313 
Q 3003 1734 2745 1975 
Q 2488 2216 2034 2216 
z
M 1403 2484 
Q 997 2584 770 2862 
Q 544 3141 544 3541 
Q 544 4100 942 4425 
Q 1341 4750 2034 4750 
Q 2731 4750 3128 4425 
Q 3525 4100 3525 3541 
Q 3525 3141 3298 2862 
Q 3072 2584 2669 2484 
Q 3125 2378 3379 2068 
Q 3634 1759 3634 1313 
Q 3634 634 3220 271 
Q 2806 -91 2034 -91 
Q 1263 -91 848 271 
Q 434 634 434 1313 
Q 434 1759 690 2068 
Q 947 2378 1403 2484 
z
M 1172 3481 
Q 1172 3119 1398 2916 
Q 1625 2713 2034 2713 
Q 2441 2713 2670 2916 
Q 2900 3119 2900 3481 
Q 2900 3844 2670 4047 
Q 2441 4250 2034 4250 
Q 1625 4250 1398 4047 
Q 1172 3844 1172 3481 
z
" transform="scale(0.015625)"/>
        <path id="DejaVuSans-2e" d="M 684 794 
L 1344 794 
L 1344 0 
L 684 0 
L 684 794 
z
" transform="scale(0.015625)"/>
       </defs>
       <use xlink:href="#DejaVuSans-38"/>
       <use xlink:href="#DejaVuSans-32" x="63.623047"/>
       <use xlink:href="#DejaVuSans-2e" x="127.246094"/>
       <use xlink:href="#DejaVuSans-35" x="159.033203"/>
      </g>
     </g>
    </g>
    <g id="ytick_2">
     <g id="line2d_9">
      <g>
       <use xlink:href="#m97b5ad9c86" x="42.828125" y="245.530659" style="stroke: #000000; stroke-width: 0.8"/>
      </g>
     </g>
     <g id="text_9">
      <!-- 85.0 -->
      <g transform="translate(13.5625 249.329878) scale(0.1 -0.1)">
       <use xlink:href="#DejaVuSans-38"/>
       <use xlink:href="#DejaVuSans-35" x="63.623047"/>
       <use xlink:href="#DejaVuSans-2e" x="127.246094"/>
       <use xlink:href="#DejaVuSans-30" x="159.033203"/>
      </g>
     </g>
    </g>
    <g id="ytick_3">
     <g id="line2d_10">
      <g>
       <use xlink:href="#m97b5ad9c86" x="42.828125" y="211.041105" style="stroke: #000000; stroke-width: 0.8"/>
      </g>
     </g>
     <g id="text_10">
      <!-- 87.5 -->
      <g transform="translate(13.5625 214.840323) scale(0.1 -0.1)">
       <defs>
        <path id="DejaVuSans-37" d="M 525 4666 
L 3525 4666 
L 3525 4397 
L 1831 0 
L 1172 0 
L 2766 4134 
L 525 4134 
L 525 4666 
z
" transform="scale(0.015625)"/>
       </defs>
       <use xlink:href="#DejaVuSans-38"/>
       <use xlink:href="#DejaVuSans-37" x="63.623047"/>
       <use xlink:href="#DejaVuSans-2e" x="127.246094"/>
       <use xlink:href="#DejaVuSans-35" x="159.033203"/>
      </g>
     </g>
    </g>
    <g id="ytick_4">
     <g id="line2d_11">
      <g>
       <use xlink:href="#m97b5ad9c86" x="42.828125" y="176.55155" style="stroke: #000000; stroke-width: 0.8"/>
      </g>
     </g>
     <g id="text_11">
      <!-- 90.0 -->
      <g transform="translate(13.5625 180.350768) scale(0.1 -0.1)">
       <defs>
        <path id="DejaVuSans-39" d="M 703 97 
L 703 672 
Q 941 559 1184 500 
Q 1428 441 1663 441 
Q 2288 441 2617 861 
Q 2947 1281 2994 2138 
Q 2813 1869 2534 1725 
Q 2256 1581 1919 1581 
Q 1219 1581 811 2004 
Q 403 2428 403 3163 
Q 403 3881 828 4315 
Q 1253 4750 1959 4750 
Q 2769 4750 3195 4129 
Q 3622 3509 3622 2328 
Q 3622 1225 3098 567 
Q 2575 -91 1691 -91 
Q 1453 -91 1209 -44 
Q 966 3 703 97 
z
M 1959 2075 
Q 2384 2075 2632 2365 
Q 2881 2656 2881 3163 
Q 2881 3666 2632 3958 
Q 2384 4250 1959 4250 
Q 1534 4250 1286 3958 
Q 1038 3666 1038 3163 
Q 1038 2656 1286 2365 
Q 1534 2075 1959 2075 
z
" transform="scale(0.015625)"/>
       </defs>
       <use xlink:href="#DejaVuSans-39"/>
       <use xlink:href="#DejaVuSans-30" x="63.623047"/>
       <use xlink:href="#DejaVuSans-2e" x="127.246094"/>
       <use xlink:href="#DejaVuSans-30" x="159.033203"/>
      </g>
     </g>
    </g>
    <g id="ytick_5">
     <g id="line2d_12">
      <g>
       <use xlink:href="#m97b5ad9c86" x="42.828125" y="142.061995" style="stroke: #000000; stroke-width: 0.8"/>
      </g>
     </g>
     <g id="text_12">
      <!-- 92.5 -->
      <g transform="translate(13.5625 145.861214) scale(0.1 -0.1)">
       <use xlink:href="#DejaVuSans-39"/>
       <use xlink:href="#DejaVuSans-32" x="63.623047"/>
       <use xlink:href="#DejaVuSans-2e" x="127.246094"/>
       <use xlink:href="#DejaVuSans-35" x="159.033203"/>
      </g>
     </g>
    </g>
    <g id="ytick_6">
     <g id="line2d_13">
      <g>
       <use xlink:href="#m97b5ad9c86" x="42.828125" y="107.57244" style="stroke: #000000; stroke-width: 0.8"/>
      </g>
     </g>
     <g id="text_13">
      <!-- 95.0 -->
      <g transform="translate(13.5625 111.371659) scale(0.1 -0.1)">
       <use xlink:href="#DejaVuSans-39"/>
       <use xlink:href="#DejaVuSans-35" x="63.623047"/>
       <use xlink:href="#DejaVuSans-2e" x="127.246094"/>
       <use xlink:href="#DejaVuSans-30" x="159.033203"/>
      </g>
     </g>
    </g>
    <g id="ytick_7">
     <g id="line2d_14">
      <g>
       <use xlink:href="#m97b5ad9c86" x="42.828125" y="73.082885" style="stroke: #000000; stroke-width: 0.8"/>
      </g>
     </g>
     <g id="text_14">
      <!-- 97.5 -->
      <g transform="translate(13.5625 76.882104) scale(0.1 -0.1)">
       <use xlink:href="#DejaVuSans-39"/>
       <use xlink:href="#DejaVuSans-37" x="63.623047"/>
       <use xlink:href="#DejaVuSans-2e" x="127.246094"/>
       <use xlink:href="#DejaVuSans-35" x="159.033203"/>
      </g>
     </g>
    </g>
    <g id="ytick_8">
     <g id="line2d_15">
      <g>
       <use xlink:href="#m97b5ad9c86" x="42.828125" y="38.593331" style="stroke: #000000; stroke-width: 0.8"/>
      </g>
     </g>
     <g id="text_15">
      <!-- 100.0 -->
      <g transform="translate(7.2 42.392549) scale(0.1 -0.1)">
       <use xlink:href="#DejaVuSans-31"/>
       <use xlink:href="#DejaVuSans-30" x="63.623047"/>
       <use xlink:href="#DejaVuSans-30" x="127.246094"/>
       <use xlink:href="#DejaVuSans-2e" x="190.869141"/>
       <use xlink:href="#DejaVuSans-30" x="222.65625"/>
      </g>
     </g>
    </g>
   </g>
   <g id="line2d_16">
    <path d="M 60.58267 66.184974 
L 61.768283 57.071418 
L 62.953895 49.733531 
L 64.139508 44.035284 
L 65.32512 39.840649 
L 65.917926 38.264677 
L 66.510732 37.013597 
L 67.103539 36.070405 
L 67.696345 35.418098 
L 68.289151 35.039673 
L 68.881957 34.918125 
L 69.474763 35.036451 
L 70.06757 35.377648 
L 70.660376 35.924712 
L 71.845988 37.568425 
L 73.0316 39.831562 
L 74.217213 42.578095 
L 75.995631 47.306698 
L 80.145275 58.800681 
L 81.330887 61.590981 
L 82.5165 63.912474 
L 83.702112 65.629132 
L 84.294918 66.21814 
L 84.887724 66.610838 
L 85.480531 66.815492 
L 86.073337 66.844328 
L 86.666143 66.709572 
L 87.258949 66.423453 
L 88.444561 65.446026 
L 89.630174 64.009861 
L 90.815786 62.212769 
L 92.594205 59.054361 
L 97.336654 50.22826 
L 99.115073 47.457544 
L 100.893492 45.041746 
L 102.67191 42.961792 
L 104.450329 41.198605 
L 106.228747 39.73311 
L 108.007166 38.546238 
L 109.192778 37.919934 
L 110.378391 37.506613 
L 111.564003 37.39745 
L 112.749615 37.683619 
L 113.342422 38.003446 
L 113.935228 38.456297 
L 115.12084 39.806658 
L 116.306453 41.825878 
L 117.492065 44.605132 
L 118.677677 48.235595 
L 119.86329 52.808415 
L 121.048902 58.354702 
L 122.827321 68.146244 
L 125.198545 82.938063 
L 129.348189 109.27191 
L 131.126607 119.046602 
L 132.31222 124.585084 
L 133.497832 129.236643 
L 134.683444 133.013052 
L 135.869057 135.92829 
L 137.054669 137.996335 
L 137.647475 138.717029 
L 138.240282 139.231165 
L 138.833088 139.540493 
L 139.425894 139.646758 
L 140.0187 139.551709 
L 140.611506 139.257092 
L 141.204313 138.764655 
L 141.797119 138.076145 
L 142.982731 136.117895 
L 144.168344 133.401119 
L 145.353956 130.011863 
L 147.132375 123.96407 
L 149.503599 114.819023 
L 153.060436 101.006624 
L 154.838855 95.057782 
L 156.024467 91.751456 
L 157.21008 89.011637 
L 158.395692 86.778094 
L 159.581305 84.988965 
L 160.766917 83.582386 
L 161.952529 82.496496 
L 163.138142 81.669431 
L 164.91656 80.778806 
L 167.880591 79.723875 
L 169.066204 79.442766 
L 170.251816 79.471288 
L 170.844622 79.66225 
L 171.437428 80.003327 
L 172.030235 80.518754 
L 172.623041 81.232767 
L 173.215847 82.169602 
L 173.808653 83.353494 
L 174.401459 84.808678 
L 175.587072 88.629867 
L 176.772684 93.827054 
L 177.958296 100.594123 
L 179.143909 109.12445 
L 180.329521 119.439301 
L 182.10794 137.361321 
L 187.443196 194.14623 
L 188.628808 204.402041 
L 189.81442 212.792998 
L 190.407227 216.144122 
L 191.000033 218.855811 
L 191.592839 220.909909 
L 192.185645 222.343642 
L 192.778451 223.198447 
L 193.371257 223.515761 
L 193.964064 223.337019 
L 194.55687 222.70366 
L 195.149676 221.657119 
L 195.742482 220.238832 
L 196.928095 216.452771 
L 198.113707 211.676969 
L 199.892126 203.382644 
L 202.856157 189.305622 
L 204.634575 182.167944 
L 206.412994 175.950656 
L 209.377025 166.596566 
L 211.748249 159.002149 
L 213.526668 152.647439 
L 215.305087 145.318001 
L 217.676311 134.096092 
L 223.604373 104.675447 
L 225.382792 97.141826 
L 226.568404 92.829026 
L 227.754017 89.176237 
L 228.939629 86.156863 
L 230.125241 83.732313 
L 231.310854 81.863994 
L 232.496466 80.513315 
L 233.682079 79.641683 
L 234.867691 79.210505 
L 236.053303 79.181191 
L 237.238916 79.515148 
L 238.424528 80.173754 
L 239.61014 81.114809 
L 241.388559 82.948217 
L 243.166978 85.137971 
L 249.09504 92.846306 
L 250.873458 94.641379 
L 253.244683 96.570497 
L 255.615908 98.484808 
L 257.394326 100.257358 
L 258.579939 101.734459 
L 259.765551 103.531889 
L 260.951163 105.721656 
L 262.136776 108.374905 
L 263.915194 113.170614 
L 269.25045 128.703104 
L 270.436062 131.394215 
L 271.621675 133.47317 
L 272.214481 134.234687 
L 272.807287 134.785081 
L 273.400093 135.104992 
L 273.9929 135.176348 
L 274.585706 135.000366 
L 275.178512 134.593115 
L 275.771318 133.971044 
L 276.956931 132.14824 
L 278.142543 129.663549 
L 279.328155 126.648568 
L 281.106574 121.419667 
L 286.44183 104.784037 
L 288.220248 100.23558 
L 289.405861 97.677014 
L 290.591473 95.549304 
L 291.777085 93.896905 
L 292.962698 92.764274 
L 293.555504 92.406763 
L 294.14831 92.195866 
L 294.741116 92.137138 
L 295.333923 92.236136 
L 295.926729 92.498419 
L 296.519535 92.929542 
L 297.112341 93.535063 
L 297.705147 94.320921 
L 298.89076 96.478104 
L 300.076372 99.504558 
L 301.261984 103.506813 
L 302.447597 108.591403 
L 303.633209 114.864858 
L 304.818822 122.43371 
L 306.004434 131.404492 
L 307.190046 141.883735 
L 308.375659 153.977972 
L 309.561271 167.78842 
L 311.33969 191.193683 
L 315.489333 247.448738 
L 316.674945 261.077703 
L 317.860558 272.452721 
L 319.04617 280.936827 
L 319.638976 283.895737 
L 320.231783 285.893059 
L 320.824589 286.849171 
L 321.417395 286.696074 
L 322.010201 285.472746 
L 322.603007 283.275819 
L 323.195814 280.202482 
L 324.381426 271.815337 
L 325.567038 261.088829 
L 327.345457 242.313585 
L 330.309488 210.339542 
L 331.4951 199.578997 
L 332.680713 191.144201 
L 333.273519 188.030159 
L 333.866325 185.66861 
L 334.459131 184.000319 
L 335.051937 182.965716 
L 335.644744 182.505234 
L 336.23755 182.559305 
L 336.830356 183.06836 
L 337.423162 183.972831 
L 338.015968 185.21315 
L 339.201581 188.46306 
L 341.572806 196.372056 
L 342.758418 200.078052 
L 343.94403 202.982986 
L 344.536836 203.986134 
L 345.129643 204.618561 
L 345.722449 204.889909 
L 346.315255 204.837145 
L 346.908061 204.497363 
L 347.500867 203.90766 
L 348.68648 202.126867 
L 349.872092 199.791527 
L 352.836123 193.474532 
L 354.021736 191.535274 
L 354.614542 190.839927 
L 355.207348 190.376894 
L 355.800154 190.183272 
L 356.39296 190.296154 
L 356.985767 190.746511 
L 357.578573 191.524585 
L 358.171379 192.604006 
L 359.356991 195.561207 
L 360.542604 199.406758 
L 362.321022 206.378391 
L 368.249084 231.459412 
L 369.434697 235.243342 
L 370.620309 238.207289 
L 371.213115 239.345251 
L 371.805921 240.234397 
L 372.398728 240.860122 
L 372.991534 241.207818 
L 373.58434 241.26288 
L 374.177146 241.010701 
L 374.769952 240.436675 
L 375.362758 239.526196 
L 375.955565 238.264658 
L 376.548371 236.637454 
L 377.141177 234.629978 
L 378.326789 229.415786 
L 379.512402 222.505231 
L 380.698014 213.789757 
L 381.883627 203.405079 
L 383.662045 185.608761 
L 388.997301 129.760239 
L 390.182913 119.602384 
L 391.368526 111.193681 
L 392.554138 104.951494 
L 393.146944 102.694045 
L 393.73975 100.973431 
L 394.332557 99.756047 
L 394.925363 99.008285 
L 395.518169 98.696539 
L 396.110975 98.787201 
L 396.703781 99.246664 
L 397.296588 100.041322 
L 397.889394 101.137567 
L 399.075006 104.100392 
L 400.260619 107.866282 
L 402.039037 114.432744 
L 405.003068 125.583386 
L 406.18868 129.331768 
L 407.374293 132.270081 
L 407.967099 133.351444 
L 408.559905 134.129469 
L 409.152711 134.570548 
L 409.745518 134.641075 
L 410.338324 134.307444 
L 410.93113 133.536045 
L 411.523936 132.293274 
L 412.116742 130.545523 
L 412.709549 128.259184 
L 413.302355 125.400652 
L 414.487967 117.832576 
L 415.67358 107.57244 
L 415.67358 107.57244 
" clip-path="url(#pa91955dc65)" style="fill: none; stroke: #1f77b4; stroke-width: 1.5; stroke-linecap: square"/>
   </g>
   <g id="patch_3">
    <path d="M 42.828125 299.518125 
L 42.828125 22.318125 
" style="fill: none; stroke: #000000; stroke-width: 0.8; stroke-linejoin: miter; stroke-linecap: square"/>
   </g>
   <g id="patch_4">
    <path d="M 433.428125 299.518125 
L 433.428125 22.318125 
" style="fill: none; stroke: #000000; stroke-width: 0.8; stroke-linejoin: miter; stroke-linecap: square"/>
   </g>
   <g id="patch_5">
    <path d="M 42.828125 299.518125 
L 433.428125 299.518125 
" style="fill: none; stroke: #000000; stroke-width: 0.8; stroke-linejoin: miter; stroke-linecap: square"/>
   </g>
   <g id="patch_6">
    <path d="M 42.828125 22.318125 
L 433.428125 22.318125 
" style="fill: none; stroke: #000000; stroke-width: 0.8; stroke-linejoin: miter; stroke-linecap: square"/>
   </g>
   <g id="patch_7">
    <path d="M 418.402274 165.402871 
Q 415.409057 156.858194 412.415839 148.313517 
L 408.640762 149.635934 
Q 409.488539 142.981777 410.336317 136.32762 
Q 415.151156 140.998151 419.965995 145.668682 
L 416.190917 146.9911 
Q 419.184135 155.535777 422.177352 164.080454 
L 418.402274 165.402871 
z
" style="fill: #ff0000; stroke: #000000; stroke-linecap: round"/>
   </g>
   <g id="text_16">
    <!-- Undershot -->
    <g style="fill: #ff0000" transform="translate(421.581881 176.028541) scale(0.1 -0.1)">
     <defs>
      <path id="DejaVuSans-55" d="M 556 4666 
L 1191 4666 
L 1191 1831 
Q 1191 1081 1462 751 
Q 1734 422 2344 422 
Q 2950 422 3222 751 
Q 3494 1081 3494 1831 
L 3494 4666 
L 4128 4666 
L 4128 1753 
Q 4128 841 3676 375 
Q 3225 -91 2344 -91 
Q 1459 -91 1007 375 
Q 556 841 556 1753 
L 556 4666 
z
" transform="scale(0.015625)"/>
      <path id="DejaVuSans-6e" d="M 3513 2113 
L 3513 0 
L 2938 0 
L 2938 2094 
Q 2938 2591 2744 2837 
Q 2550 3084 2163 3084 
Q 1697 3084 1428 2787 
Q 1159 2491 1159 1978 
L 1159 0 
L 581 0 
L 581 3500 
L 1159 3500 
L 1159 2956 
Q 1366 3272 1645 3428 
Q 1925 3584 2291 3584 
Q 2894 3584 3203 3211 
Q 3513 2838 3513 2113 
z
" transform="scale(0.015625)"/>
      <path id="DejaVuSans-64" d="M 2906 2969 
L 2906 4863 
L 3481 4863 
L 3481 0 
L 2906 0 
L 2906 525 
Q 2725 213 2448 61 
Q 2172 -91 1784 -91 
Q 1150 -91 751 415 
Q 353 922 353 1747 
Q 353 2572 751 3078 
Q 1150 3584 1784 3584 
Q 2172 3584 2448 3432 
Q 2725 3281 2906 2969 
z
M 947 1747 
Q 947 1113 1208 752 
Q 1469 391 1925 391 
Q 2381 391 2643 752 
Q 2906 1113 2906 1747 
Q 2906 2381 2643 2742 
Q 2381 3103 1925 3103 
Q 1469 3103 1208 2742 
Q 947 2381 947 1747 
z
" transform="scale(0.015625)"/>
      <path id="DejaVuSans-65" d="M 3597 1894 
L 3597 1613 
L 953 1613 
Q 991 1019 1311 708 
Q 1631 397 2203 397 
Q 2534 397 2845 478 
Q 3156 559 3463 722 
L 3463 178 
Q 3153 47 2828 -22 
Q 2503 -91 2169 -91 
Q 1331 -91 842 396 
Q 353 884 353 1716 
Q 353 2575 817 3079 
Q 1281 3584 2069 3584 
Q 2775 3584 3186 3129 
Q 3597 2675 3597 1894 
z
M 3022 2063 
Q 3016 2534 2758 2815 
Q 2500 3097 2075 3097 
Q 1594 3097 1305 2825 
Q 1016 2553 972 2059 
L 3022 2063 
z
" transform="scale(0.015625)"/>
      <path id="DejaVuSans-72" d="M 2631 2963 
Q 2534 3019 2420 3045 
Q 2306 3072 2169 3072 
Q 1681 3072 1420 2755 
Q 1159 2438 1159 1844 
L 1159 0 
L 581 0 
L 581 3500 
L 1159 3500 
L 1159 2956 
Q 1341 3275 1631 3429 
Q 1922 3584 2338 3584 
Q 2397 3584 2469 3576 
Q 2541 3569 2628 3553 
L 2631 2963 
z
" transform="scale(0.015625)"/>
      <path id="DejaVuSans-73" d="M 2834 3397 
L 2834 2853 
Q 2591 2978 2328 3040 
Q 2066 3103 1784 3103 
Q 1356 3103 1142 2972 
Q 928 2841 928 2578 
Q 928 2378 1081 2264 
Q 1234 2150 1697 2047 
L 1894 2003 
Q 2506 1872 2764 1633 
Q 3022 1394 3022 966 
Q 3022 478 2636 193 
Q 2250 -91 1575 -91 
Q 1294 -91 989 -36 
Q 684 19 347 128 
L 347 722 
Q 666 556 975 473 
Q 1284 391 1588 391 
Q 1994 391 2212 530 
Q 2431 669 2431 922 
Q 2431 1156 2273 1281 
Q 2116 1406 1581 1522 
L 1381 1569 
Q 847 1681 609 1914 
Q 372 2147 372 2553 
Q 372 3047 722 3315 
Q 1072 3584 1716 3584 
Q 2034 3584 2315 3537 
Q 2597 3491 2834 3397 
z
" transform="scale(0.015625)"/>
      <path id="DejaVuSans-68" d="M 3513 2113 
L 3513 0 
L 2938 0 
L 2938 2094 
Q 2938 2591 2744 2837 
Q 2550 3084 2163 3084 
Q 1697 3084 1428 2787 
Q 1159 2491 1159 1978 
L 1159 0 
L 581 0 
L 581 4863 
L 1159 4863 
L 1159 2956 
Q 1366 3272 1645 3428 
Q 1925 3584 2291 3584 
Q 2894 3584 3203 3211 
Q 3513 2838 3513 2113 
z
" transform="scale(0.015625)"/>
      <path id="DejaVuSans-6f" d="M 1959 3097 
Q 1497 3097 1228 2736 
Q 959 2375 959 1747 
Q 959 1119 1226 758 
Q 1494 397 1959 397 
Q 2419 397 2687 759 
Q 2956 1122 2956 1747 
Q 2956 2369 2687 2733 
Q 2419 3097 1959 3097 
z
M 1959 3584 
Q 2709 3584 3137 3096 
Q 3566 2609 3566 1747 
Q 3566 888 3137 398 
Q 2709 -91 1959 -91 
Q 1206 -91 779 398 
Q 353 888 353 1747 
Q 353 2609 779 3096 
Q 1206 3584 1959 3584 
z
" transform="scale(0.015625)"/>
      <path id="DejaVuSans-74" d="M 1172 4494 
L 1172 3500 
L 2356 3500 
L 2356 3053 
L 1172 3053 
L 1172 1153 
Q 1172 725 1289 603 
Q 1406 481 1766 481 
L 2356 481 
L 2356 0 
L 1766 0 
Q 1100 0 847 248 
Q 594 497 594 1153 
L 594 3053 
L 172 3053 
L 172 3500 
L 594 3500 
L 594 4494 
L 1172 4494 
z
" transform="scale(0.015625)"/>
     </defs>
     <use xlink:href="#DejaVuSans-55"/>
     <use xlink:href="#DejaVuSans-6e" x="73.193359"/>
     <use xlink:href="#DejaVuSans-64" x="136.572266"/>
     <use xlink:href="#DejaVuSans-65" x="200.048828"/>
     <use xlink:href="#DejaVuSans-72" x="261.572266"/>
     <use xlink:href="#DejaVuSans-73" x="302.685547"/>
     <use xlink:href="#DejaVuSans-68" x="354.785156"/>
     <use xlink:href="#DejaVuSans-6f" x="418.164062"/>
     <use xlink:href="#DejaVuSans-74" x="479.345703"/>
    </g>
   </g>
   <g id="patch_8">
    <path d="M 408.076729 63.926849 
Q 404.780146 74.874581 401.483564 85.822314 
L 405.313686 86.97564 
Q 400.711508 91.854486 396.10933 96.733332 
Q 394.966325 90.124496 393.823319 83.51566 
L 397.653441 84.668987 
Q 400.950024 73.721254 404.246607 62.773522 
L 408.076729 63.926849 
z
" style="fill: #ff0000; stroke: #000000; stroke-linecap: round"/>
   </g>
   <g id="text_17">
    <!-- Overshot -->
    <g style="fill: #ff0000" transform="translate(407.354533 57.309073) scale(0.1 -0.1)">
     <defs>
      <path id="DejaVuSans-4f" d="M 2522 4238 
Q 1834 4238 1429 3725 
Q 1025 3213 1025 2328 
Q 1025 1447 1429 934 
Q 1834 422 2522 422 
Q 3209 422 3611 934 
Q 4013 1447 4013 2328 
Q 4013 3213 3611 3725 
Q 3209 4238 2522 4238 
z
M 2522 4750 
Q 3503 4750 4090 4092 
Q 4678 3434 4678 2328 
Q 4678 1225 4090 567 
Q 3503 -91 2522 -91 
Q 1538 -91 948 565 
Q 359 1222 359 2328 
Q 359 3434 948 4092 
Q 1538 4750 2522 4750 
z
" transform="scale(0.015625)"/>
      <path id="DejaVuSans-76" d="M 191 3500 
L 800 3500 
L 1894 563 
L 2988 3500 
L 3597 3500 
L 2284 0 
L 1503 0 
L 191 3500 
z
" transform="scale(0.015625)"/>
     </defs>
     <use xlink:href="#DejaVuSans-4f"/>
     <use xlink:href="#DejaVuSans-76" x="78.710938"/>
     <use xlink:href="#DejaVuSans-65" x="137.890625"/>
     <use xlink:href="#DejaVuSans-72" x="199.414062"/>
     <use xlink:href="#DejaVuSans-73" x="240.527344"/>
     <use xlink:href="#DejaVuSans-68" x="292.626953"/>
     <use xlink:href="#DejaVuSans-6f" x="356.005859"/>
     <use xlink:href="#DejaVuSans-74" x="417.1875"/>
    </g>
   </g>
   <g id="text_18">
    <!-- Observed Temperatures with Spline Interpolation -->
    <g transform="translate(90.928438 16.318125) scale(0.12 -0.12)">
     <defs>
      <path id="DejaVuSans-62" d="M 3116 1747 
Q 3116 2381 2855 2742 
Q 2594 3103 2138 3103 
Q 1681 3103 1420 2742 
Q 1159 2381 1159 1747 
Q 1159 1113 1420 752 
Q 1681 391 2138 391 
Q 2594 391 2855 752 
Q 3116 1113 3116 1747 
z
M 1159 2969 
Q 1341 3281 1617 3432 
Q 1894 3584 2278 3584 
Q 2916 3584 3314 3078 
Q 3713 2572 3713 1747 
Q 3713 922 3314 415 
Q 2916 -91 2278 -91 
Q 1894 -91 1617 61 
Q 1341 213 1159 525 
L 1159 0 
L 581 0 
L 581 4863 
L 1159 4863 
L 1159 2969 
z
" transform="scale(0.015625)"/>
      <path id="DejaVuSans-20" transform="scale(0.015625)"/>
      <path id="DejaVuSans-54" d="M -19 4666 
L 3928 4666 
L 3928 4134 
L 2272 4134 
L 2272 0 
L 1638 0 
L 1638 4134 
L -19 4134 
L -19 4666 
z
" transform="scale(0.015625)"/>
      <path id="DejaVuSans-6d" d="M 3328 2828 
Q 3544 3216 3844 3400 
Q 4144 3584 4550 3584 
Q 5097 3584 5394 3201 
Q 5691 2819 5691 2113 
L 5691 0 
L 5113 0 
L 5113 2094 
Q 5113 2597 4934 2840 
Q 4756 3084 4391 3084 
Q 3944 3084 3684 2787 
Q 3425 2491 3425 1978 
L 3425 0 
L 2847 0 
L 2847 2094 
Q 2847 2600 2669 2842 
Q 2491 3084 2119 3084 
Q 1678 3084 1418 2786 
Q 1159 2488 1159 1978 
L 1159 0 
L 581 0 
L 581 3500 
L 1159 3500 
L 1159 2956 
Q 1356 3278 1631 3431 
Q 1906 3584 2284 3584 
Q 2666 3584 2933 3390 
Q 3200 3197 3328 2828 
z
" transform="scale(0.015625)"/>
      <path id="DejaVuSans-70" d="M 1159 525 
L 1159 -1331 
L 581 -1331 
L 581 3500 
L 1159 3500 
L 1159 2969 
Q 1341 3281 1617 3432 
Q 1894 3584 2278 3584 
Q 2916 3584 3314 3078 
Q 3713 2572 3713 1747 
Q 3713 922 3314 415 
Q 2916 -91 2278 -91 
Q 1894 -91 1617 61 
Q 1341 213 1159 525 
z
M 3116 1747 
Q 3116 2381 2855 2742 
Q 2594 3103 2138 3103 
Q 1681 3103 1420 2742 
Q 1159 2381 1159 1747 
Q 1159 1113 1420 752 
Q 1681 391 2138 391 
Q 2594 391 2855 752 
Q 3116 1113 3116 1747 
z
" transform="scale(0.015625)"/>
      <path id="DejaVuSans-61" d="M 2194 1759 
Q 1497 1759 1228 1600 
Q 959 1441 959 1056 
Q 959 750 1161 570 
Q 1363 391 1709 391 
Q 2188 391 2477 730 
Q 2766 1069 2766 1631 
L 2766 1759 
L 2194 1759 
z
M 3341 1997 
L 3341 0 
L 2766 0 
L 2766 531 
Q 2569 213 2275 61 
Q 1981 -91 1556 -91 
Q 1019 -91 701 211 
Q 384 513 384 1019 
Q 384 1609 779 1909 
Q 1175 2209 1959 2209 
L 2766 2209 
L 2766 2266 
Q 2766 2663 2505 2880 
Q 2244 3097 1772 3097 
Q 1472 3097 1187 3025 
Q 903 2953 641 2809 
L 641 3341 
Q 956 3463 1253 3523 
Q 1550 3584 1831 3584 
Q 2591 3584 2966 3190 
Q 3341 2797 3341 1997 
z
" transform="scale(0.015625)"/>
      <path id="DejaVuSans-75" d="M 544 1381 
L 544 3500 
L 1119 3500 
L 1119 1403 
Q 1119 906 1312 657 
Q 1506 409 1894 409 
Q 2359 409 2629 706 
Q 2900 1003 2900 1516 
L 2900 3500 
L 3475 3500 
L 3475 0 
L 2900 0 
L 2900 538 
Q 2691 219 2414 64 
Q 2138 -91 1772 -91 
Q 1169 -91 856 284 
Q 544 659 544 1381 
z
M 1991 3584 
L 1991 3584 
z
" transform="scale(0.015625)"/>
      <path id="DejaVuSans-77" d="M 269 3500 
L 844 3500 
L 1563 769 
L 2278 3500 
L 2956 3500 
L 3675 769 
L 4391 3500 
L 4966 3500 
L 4050 0 
L 3372 0 
L 2619 2869 
L 1863 0 
L 1184 0 
L 269 3500 
z
" transform="scale(0.015625)"/>
      <path id="DejaVuSans-69" d="M 603 3500 
L 1178 3500 
L 1178 0 
L 603 0 
L 603 3500 
z
M 603 4863 
L 1178 4863 
L 1178 4134 
L 603 4134 
L 603 4863 
z
" transform="scale(0.015625)"/>
      <path id="DejaVuSans-53" d="M 3425 4513 
L 3425 3897 
Q 3066 4069 2747 4153 
Q 2428 4238 2131 4238 
Q 1616 4238 1336 4038 
Q 1056 3838 1056 3469 
Q 1056 3159 1242 3001 
Q 1428 2844 1947 2747 
L 2328 2669 
Q 3034 2534 3370 2195 
Q 3706 1856 3706 1288 
Q 3706 609 3251 259 
Q 2797 -91 1919 -91 
Q 1588 -91 1214 -16 
Q 841 59 441 206 
L 441 856 
Q 825 641 1194 531 
Q 1563 422 1919 422 
Q 2459 422 2753 634 
Q 3047 847 3047 1241 
Q 3047 1584 2836 1778 
Q 2625 1972 2144 2069 
L 1759 2144 
Q 1053 2284 737 2584 
Q 422 2884 422 3419 
Q 422 4038 858 4394 
Q 1294 4750 2059 4750 
Q 2388 4750 2728 4690 
Q 3069 4631 3425 4513 
z
" transform="scale(0.015625)"/>
      <path id="DejaVuSans-6c" d="M 603 4863 
L 1178 4863 
L 1178 0 
L 603 0 
L 603 4863 
z
" transform="scale(0.015625)"/>
      <path id="DejaVuSans-49" d="M 628 4666 
L 1259 4666 
L 1259 0 
L 628 0 
L 628 4666 
z
" transform="scale(0.015625)"/>
     </defs>
     <use xlink:href="#DejaVuSans-4f"/>
     <use xlink:href="#DejaVuSans-62" x="78.710938"/>
     <use xlink:href="#DejaVuSans-73" x="142.1875"/>
     <use xlink:href="#DejaVuSans-65" x="194.287109"/>
     <use xlink:href="#DejaVuSans-72" x="255.810547"/>
     <use xlink:href="#DejaVuSans-76" x="296.923828"/>
     <use xlink:href="#DejaVuSans-65" x="356.103516"/>
     <use xlink:href="#DejaVuSans-64" x="417.626953"/>
     <use xlink:href="#DejaVuSans-20" x="481.103516"/>
     <use xlink:href="#DejaVuSans-54" x="512.890625"/>
     <use xlink:href="#DejaVuSans-65" x="556.974609"/>
     <use xlink:href="#DejaVuSans-6d" x="618.498047"/>
     <use xlink:href="#DejaVuSans-70" x="715.910156"/>
     <use xlink:href="#DejaVuSans-65" x="779.386719"/>
     <use xlink:href="#DejaVuSans-72" x="840.910156"/>
     <use xlink:href="#DejaVuSans-61" x="882.023438"/>
     <use xlink:href="#DejaVuSans-74" x="943.302734"/>
     <use xlink:href="#DejaVuSans-75" x="982.511719"/>
     <use xlink:href="#DejaVuSans-72" x="1045.890625"/>
     <use xlink:href="#DejaVuSans-65" x="1084.753906"/>
     <use xlink:href="#DejaVuSans-73" x="1146.277344"/>
     <use xlink:href="#DejaVuSans-20" x="1198.376953"/>
     <use xlink:href="#DejaVuSans-77" x="1230.164062"/>
     <use xlink:href="#DejaVuSans-69" x="1311.951172"/>
     <use xlink:href="#DejaVuSans-74" x="1339.734375"/>
     <use xlink:href="#DejaVuSans-68" x="1378.943359"/>
     <use xlink:href="#DejaVuSans-20" x="1442.322266"/>
     <use xlink:href="#DejaVuSans-53" x="1474.109375"/>
     <use xlink:href="#DejaVuSans-70" x="1537.585938"/>
     <use xlink:href="#DejaVuSans-6c" x="1601.0625"/>
     <use xlink:href="#DejaVuSans-69" x="1628.845703"/>
     <use xlink:href="#DejaVuSans-6e" x="1656.628906"/>
     <use xlink:href="#DejaVuSans-65" x="1720.007812"/>
     <use xlink:href="#DejaVuSans-20" x="1781.53125"/>
     <use xlink:href="#DejaVuSans-49" x="1813.318359"/>
     <use xlink:href="#DejaVuSans-6e" x="1842.810547"/>
     <use xlink:href="#DejaVuSans-74" x="1906.189453"/>
     <use xlink:href="#DejaVuSans-65" x="1945.398438"/>
     <use xlink:href="#DejaVuSans-72" x="2006.921875"/>
     <use xlink:href="#DejaVuSans-70" x="2048.035156"/>
     <use xlink:href="#DejaVuSans-6f" x="2111.511719"/>
     <use xlink:href="#DejaVuSans-6c" x="2172.693359"/>
     <use xlink:href="#DejaVuSans-61" x="2200.476562"/>
     <use xlink:href="#DejaVuSans-74" x="2261.755859"/>
     <use xlink:href="#DejaVuSans-69" x="2300.964844"/>
     <use xlink:href="#DejaVuSans-6f" x="2328.748047"/>
     <use xlink:href="#DejaVuSans-6e" x="2389.929688"/>
    </g>
   </g>
  </g>
 </g>
 <defs>
  <clipPath id="pa91955dc65">
   <rect x="42.828125" y="22.318125" width="390.6" height="277.2"/>
  </clipPath>
 </defs>
</svg>
