<?xml version="1.0" encoding="utf-8" standalone="no"?>
<!DOCTYPE svg PUBLIC "-//W3C//DTD SVG 1.1//EN"
  "http://www.w3.org/Graphics/SVG/1.1/DTD/svg11.dtd">
<svg xmlns:xlink="http://www.w3.org/1999/xlink" width="598.4875pt" height="389.88615pt" viewBox="0 0 598.4875 389.88615" xmlns="http://www.w3.org/2000/svg" version="1.1">
 <metadata>
  <rdf:RDF xmlns:dc="http://purl.org/dc/elements/1.1/" xmlns:cc="http://creativecommons.org/ns#" xmlns:rdf="http://www.w3.org/1999/02/22-rdf-syntax-ns#">
   <cc:Work>
    <dc:type rdf:resource="http://purl.org/dc/dcmitype/StillImage"/>
    <dc:date>2024-08-09T09:33:27.395593</dc:date>
    <dc:format>image/svg+xml</dc:format>
    <dc:creator>
     <cc:Agent>
      <dc:title>Matplotlib v3.9.1, https://matplotlib.org/</dc:title>
     </cc:Agent>
    </dc:creator>
   </cc:Work>
  </rdf:RDF>
 </metadata>
 <defs>
  <style type="text/css">*{stroke-linejoin: round; stroke-linecap: butt}</style>
 </defs>
 <g id="figure_1">
  <g id="patch_1">
   <path d="M 0 389.88615 
L 598.4875 389.88615 
L 598.4875 0 
L 0 0 
z
" style="fill: #ffffff"/>
  </g>
  <g id="axes_1">
   <g id="patch_2">
    <path d="M 33.2875 316.078125 
L 591.2875 316.078125 
L 591.2875 22.318125 
L 33.2875 22.318125 
z
" style="fill: #ffffff"/>
   </g>
   <g id="matplotlib.axis_1">
    <g id="xtick_1">
     <g id="line2d_1">
      <defs>
       <path id="m75ebf38882" d="M 0 0 
L 0 3.5 
" style="stroke: #000000; stroke-width: 0.8"/>
      </defs>
      <g>
       <use xlink:href="#m75ebf38882" x="58.651136" y="316.078125" style="stroke: #000000; stroke-width: 0.8"/>
      </g>
     </g>
     <g id="text_1">
      <!-- January -->
      <g transform="translate(30.373494 355.258113) rotate(-45) scale(0.1 -0.1)">
       <defs>
        <path id="DejaVuSans-4a" d="M 628 4666 
L 1259 4666 
L 1259 325 
Q 1259 -519 939 -900 
Q 619 -1281 -91 -1281 
L -331 -1281 
L -331 -750 
L -134 -750 
Q 284 -750 456 -515 
Q 628 -281 628 325 
L 628 4666 
z
" transform="scale(0.015625)"/>
        <path id="DejaVuSans-61" d="M 2194 1759 
Q 1497 1759 1228 1600 
Q 959 1441 959 1056 
Q 959 750 1161 570 
Q 1363 391 1709 391 
Q 2188 391 2477 730 
Q 2766 1069 2766 1631 
L 2766 1759 
L 2194 1759 
z
M 3341 1997 
L 3341 0 
L 2766 0 
L 2766 531 
Q 2569 213 2275 61 
Q 1981 -91 1556 -91 
Q 1019 -91 701 211 
Q 384 513 384 1019 
Q 384 1609 779 1909 
Q 1175 2209 1959 2209 
L 2766 2209 
L 2766 2266 
Q 2766 2663 2505 2880 
Q 2244 3097 1772 3097 
Q 1472 3097 1187 3025 
Q 903 2953 641 2809 
L 641 3341 
Q 956 3463 1253 3523 
Q 1550 3584 1831 3584 
Q 2591 3584 2966 3190 
Q 3341 2797 3341 1997 
z
" transform="scale(0.015625)"/>
        <path id="DejaVuSans-6e" d="M 3513 2113 
L 3513 0 
L 2938 0 
L 2938 2094 
Q 2938 2591 2744 2837 
Q 2550 3084 2163 3084 
Q 1697 3084 1428 2787 
Q 1159 2491 1159 1978 
L 1159 0 
L 581 0 
L 581 3500 
L 1159 3500 
L 1159 2956 
Q 1366 3272 1645 3428 
Q 1925 3584 2291 3584 
Q 2894 3584 3203 3211 
Q 3513 2838 3513 2113 
z
" transform="scale(0.015625)"/>
        <path id="DejaVuSans-75" d="M 544 1381 
L 544 3500 
L 1119 3500 
L 1119 1403 
Q 1119 906 1312 657 
Q 1506 409 1894 409 
Q 2359 409 2629 706 
Q 2900 1003 2900 1516 
L 2900 3500 
L 3475 3500 
L 3475 0 
L 2900 0 
L 2900 538 
Q 2691 219 2414 64 
Q 2138 -91 1772 -91 
Q 1169 -91 856 284 
Q 544 659 544 1381 
z
M 1991 3584 
L 1991 3584 
z
" transform="scale(0.015625)"/>
        <path id="DejaVuSans-72" d="M 2631 2963 
Q 2534 3019 2420 3045 
Q 2306 3072 2169 3072 
Q 1681 3072 1420 2755 
Q 1159 2438 1159 1844 
L 1159 0 
L 581 0 
L 581 3500 
L 1159 3500 
L 1159 2956 
Q 1341 3275 1631 3429 
Q 1922 3584 2338 3584 
Q 2397 3584 2469 3576 
Q 2541 3569 2628 3553 
L 2631 2963 
z
" transform="scale(0.015625)"/>
        <path id="DejaVuSans-79" d="M 2059 -325 
Q 1816 -950 1584 -1140 
Q 1353 -1331 966 -1331 
L 506 -1331 
L 506 -850 
L 844 -850 
Q 1081 -850 1212 -737 
Q 1344 -625 1503 -206 
L 1606 56 
L 191 3500 
L 800 3500 
L 1894 763 
L 2988 3500 
L 3597 3500 
L 2059 -325 
z
" transform="scale(0.015625)"/>
       </defs>
       <use xlink:href="#DejaVuSans-4a"/>
       <use xlink:href="#DejaVuSans-61" x="29.492188"/>
       <use xlink:href="#DejaVuSans-6e" x="90.771484"/>
       <use xlink:href="#DejaVuSans-75" x="154.150391"/>
       <use xlink:href="#DejaVuSans-61" x="217.529297"/>
       <use xlink:href="#DejaVuSans-72" x="278.808594"/>
       <use xlink:href="#DejaVuSans-79" x="319.921875"/>
      </g>
     </g>
    </g>
    <g id="xtick_2">
     <g id="line2d_2">
      <g>
       <use xlink:href="#m75ebf38882" x="101.734573" y="316.078125" style="stroke: #000000; stroke-width: 0.8"/>
      </g>
     </g>
     <g id="text_2">
      <!-- February -->
      <g transform="translate(68.932553 359.782491) rotate(-45) scale(0.1 -0.1)">
       <defs>
        <path id="DejaVuSans-46" d="M 628 4666 
L 3309 4666 
L 3309 4134 
L 1259 4134 
L 1259 2759 
L 3109 2759 
L 3109 2228 
L 1259 2228 
L 1259 0 
L 628 0 
L 628 4666 
z
" transform="scale(0.015625)"/>
        <path id="DejaVuSans-65" d="M 3597 1894 
L 3597 1613 
L 953 1613 
Q 991 1019 1311 708 
Q 1631 397 2203 397 
Q 2534 397 2845 478 
Q 3156 559 3463 722 
L 3463 178 
Q 3153 47 2828 -22 
Q 2503 -91 2169 -91 
Q 1331 -91 842 396 
Q 353 884 353 1716 
Q 353 2575 817 3079 
Q 1281 3584 2069 3584 
Q 2775 3584 3186 3129 
Q 3597 2675 3597 1894 
z
M 3022 2063 
Q 3016 2534 2758 2815 
Q 2500 3097 2075 3097 
Q 1594 3097 1305 2825 
Q 1016 2553 972 2059 
L 3022 2063 
z
" transform="scale(0.015625)"/>
        <path id="DejaVuSans-62" d="M 3116 1747 
Q 3116 2381 2855 2742 
Q 2594 3103 2138 3103 
Q 1681 3103 1420 2742 
Q 1159 2381 1159 1747 
Q 1159 1113 1420 752 
Q 1681 391 2138 391 
Q 2594 391 2855 752 
Q 3116 1113 3116 1747 
z
M 1159 2969 
Q 1341 3281 1617 3432 
Q 1894 3584 2278 3584 
Q 2916 3584 3314 3078 
Q 3713 2572 3713 1747 
Q 3713 922 3314 415 
Q 2916 -91 2278 -91 
Q 1894 -91 1617 61 
Q 1341 213 1159 525 
L 1159 0 
L 581 0 
L 581 4863 
L 1159 4863 
L 1159 2969 
z
" transform="scale(0.015625)"/>
       </defs>
       <use xlink:href="#DejaVuSans-46"/>
       <use xlink:href="#DejaVuSans-65" x="52.019531"/>
       <use xlink:href="#DejaVuSans-62" x="113.542969"/>
       <use xlink:href="#DejaVuSans-72" x="177.019531"/>
       <use xlink:href="#DejaVuSans-75" x="218.132812"/>
       <use xlink:href="#DejaVuSans-61" x="281.511719"/>
       <use xlink:href="#DejaVuSans-72" x="342.791016"/>
       <use xlink:href="#DejaVuSans-79" x="383.904297"/>
      </g>
     </g>
    </g>
    <g id="xtick_3">
     <g id="line2d_3">
      <g>
       <use xlink:href="#m75ebf38882" x="142.038434" y="316.078125" style="stroke: #000000; stroke-width: 0.8"/>
      </g>
     </g>
     <g id="text_3">
      <!-- March -->
      <g transform="translate(119.016584 350.002321) rotate(-45) scale(0.1 -0.1)">
       <defs>
        <path id="DejaVuSans-4d" d="M 628 4666 
L 1569 4666 
L 2759 1491 
L 3956 4666 
L 4897 4666 
L 4897 0 
L 4281 0 
L 4281 4097 
L 3078 897 
L 2444 897 
L 1241 4097 
L 1241 0 
L 628 0 
L 628 4666 
z
" transform="scale(0.015625)"/>
        <path id="DejaVuSans-63" d="M 3122 3366 
L 3122 2828 
Q 2878 2963 2633 3030 
Q 2388 3097 2138 3097 
Q 1578 3097 1268 2742 
Q 959 2388 959 1747 
Q 959 1106 1268 751 
Q 1578 397 2138 397 
Q 2388 397 2633 464 
Q 2878 531 3122 666 
L 3122 134 
Q 2881 22 2623 -34 
Q 2366 -91 2075 -91 
Q 1284 -91 818 406 
Q 353 903 353 1747 
Q 353 2603 823 3093 
Q 1294 3584 2113 3584 
Q 2378 3584 2631 3529 
Q 2884 3475 3122 3366 
z
" transform="scale(0.015625)"/>
        <path id="DejaVuSans-68" d="M 3513 2113 
L 3513 0 
L 2938 0 
L 2938 2094 
Q 2938 2591 2744 2837 
Q 2550 3084 2163 3084 
Q 1697 3084 1428 2787 
Q 1159 2491 1159 1978 
L 1159 0 
L 581 0 
L 581 4863 
L 1159 4863 
L 1159 2956 
Q 1366 3272 1645 3428 
Q 1925 3584 2291 3584 
Q 2894 3584 3203 3211 
Q 3513 2838 3513 2113 
z
" transform="scale(0.015625)"/>
       </defs>
       <use xlink:href="#DejaVuSans-4d"/>
       <use xlink:href="#DejaVuSans-61" x="86.279297"/>
       <use xlink:href="#DejaVuSans-72" x="147.558594"/>
       <use xlink:href="#DejaVuSans-63" x="186.421875"/>
       <use xlink:href="#DejaVuSans-68" x="241.402344"/>
      </g>
     </g>
    </g>
    <g id="xtick_4">
     <g id="line2d_4">
      <g>
       <use xlink:href="#m75ebf38882" x="185.121871" y="316.078125" style="stroke: #000000; stroke-width: 0.8"/>
      </g>
     </g>
     <g id="text_4">
      <!-- April -->
      <g transform="translate(167.489501 344.612841) rotate(-45) scale(0.1 -0.1)">
       <defs>
        <path id="DejaVuSans-41" d="M 2188 4044 
L 1331 1722 
L 3047 1722 
L 2188 4044 
z
M 1831 4666 
L 2547 4666 
L 4325 0 
L 3669 0 
L 3244 1197 
L 1141 1197 
L 716 0 
L 50 0 
L 1831 4666 
z
" transform="scale(0.015625)"/>
        <path id="DejaVuSans-70" d="M 1159 525 
L 1159 -1331 
L 581 -1331 
L 581 3500 
L 1159 3500 
L 1159 2969 
Q 1341 3281 1617 3432 
Q 1894 3584 2278 3584 
Q 2916 3584 3314 3078 
Q 3713 2572 3713 1747 
Q 3713 922 3314 415 
Q 2916 -91 2278 -91 
Q 1894 -91 1617 61 
Q 1341 213 1159 525 
z
M 3116 1747 
Q 3116 2381 2855 2742 
Q 2594 3103 2138 3103 
Q 1681 3103 1420 2742 
Q 1159 2381 1159 1747 
Q 1159 1113 1420 752 
Q 1681 391 2138 391 
Q 2594 391 2855 752 
Q 3116 1113 3116 1747 
z
" transform="scale(0.015625)"/>
        <path id="DejaVuSans-69" d="M 603 3500 
L 1178 3500 
L 1178 0 
L 603 0 
L 603 3500 
z
M 603 4863 
L 1178 4863 
L 1178 4134 
L 603 4134 
L 603 4863 
z
" transform="scale(0.015625)"/>
        <path id="DejaVuSans-6c" d="M 603 4863 
L 1178 4863 
L 1178 0 
L 603 0 
L 603 4863 
z
" transform="scale(0.015625)"/>
       </defs>
       <use xlink:href="#DejaVuSans-41"/>
       <use xlink:href="#DejaVuSans-70" x="68.408203"/>
       <use xlink:href="#DejaVuSans-72" x="131.884766"/>
       <use xlink:href="#DejaVuSans-69" x="172.998047"/>
       <use xlink:href="#DejaVuSans-6c" x="200.78125"/>
      </g>
     </g>
    </g>
    <g id="xtick_5">
     <g id="line2d_5">
      <g>
       <use xlink:href="#m75ebf38882" x="226.81552" y="316.078125" style="stroke: #000000; stroke-width: 0.8"/>
      </g>
     </g>
     <g id="text_5">
      <!-- May -->
      <g transform="translate(210.725526 343.070464) rotate(-45) scale(0.1 -0.1)">
       <use xlink:href="#DejaVuSans-4d"/>
       <use xlink:href="#DejaVuSans-61" x="86.279297"/>
       <use xlink:href="#DejaVuSans-79" x="147.558594"/>
      </g>
     </g>
    </g>
    <g id="xtick_6">
     <g id="line2d_6">
      <g>
       <use xlink:href="#m75ebf38882" x="269.898957" y="316.078125" style="stroke: #000000; stroke-width: 0.8"/>
      </g>
     </g>
     <g id="text_6">
      <!-- June -->
      <g transform="translate(253.028936 343.850492) rotate(-45) scale(0.1 -0.1)">
       <use xlink:href="#DejaVuSans-4a"/>
       <use xlink:href="#DejaVuSans-75" x="29.492188"/>
       <use xlink:href="#DejaVuSans-6e" x="92.871094"/>
       <use xlink:href="#DejaVuSans-65" x="156.25"/>
      </g>
     </g>
    </g>
    <g id="xtick_7">
     <g id="line2d_7">
      <g>
       <use xlink:href="#m75ebf38882" x="311.592606" y="316.078125" style="stroke: #000000; stroke-width: 0.8"/>
      </g>
     </g>
     <g id="text_7">
      <!-- July -->
      <g transform="translate(297.405171 341.167905) rotate(-45) scale(0.1 -0.1)">
       <use xlink:href="#DejaVuSans-4a"/>
       <use xlink:href="#DejaVuSans-75" x="29.492188"/>
       <use xlink:href="#DejaVuSans-6c" x="92.871094"/>
       <use xlink:href="#DejaVuSans-79" x="120.654297"/>
      </g>
     </g>
    </g>
    <g id="xtick_8">
     <g id="line2d_8">
      <g>
       <use xlink:href="#m75ebf38882" x="354.676043" y="316.078125" style="stroke: #000000; stroke-width: 0.8"/>
      </g>
     </g>
     <g id="text_8">
      <!-- August -->
      <g transform="translate(328.461164 353.19535) rotate(-45) scale(0.1 -0.1)">
       <defs>
        <path id="DejaVuSans-67" d="M 2906 1791 
Q 2906 2416 2648 2759 
Q 2391 3103 1925 3103 
Q 1463 3103 1205 2759 
Q 947 2416 947 1791 
Q 947 1169 1205 825 
Q 1463 481 1925 481 
Q 2391 481 2648 825 
Q 2906 1169 2906 1791 
z
M 3481 434 
Q 3481 -459 3084 -895 
Q 2688 -1331 1869 -1331 
Q 1566 -1331 1297 -1286 
Q 1028 -1241 775 -1147 
L 775 -588 
Q 1028 -725 1275 -790 
Q 1522 -856 1778 -856 
Q 2344 -856 2625 -561 
Q 2906 -266 2906 331 
L 2906 616 
Q 2728 306 2450 153 
Q 2172 0 1784 0 
Q 1141 0 747 490 
Q 353 981 353 1791 
Q 353 2603 747 3093 
Q 1141 3584 1784 3584 
Q 2172 3584 2450 3431 
Q 2728 3278 2906 2969 
L 2906 3500 
L 3481 3500 
L 3481 434 
z
" transform="scale(0.015625)"/>
        <path id="DejaVuSans-73" d="M 2834 3397 
L 2834 2853 
Q 2591 2978 2328 3040 
Q 2066 3103 1784 3103 
Q 1356 3103 1142 2972 
Q 928 2841 928 2578 
Q 928 2378 1081 2264 
Q 1234 2150 1697 2047 
L 1894 2003 
Q 2506 1872 2764 1633 
Q 3022 1394 3022 966 
Q 3022 478 2636 193 
Q 2250 -91 1575 -91 
Q 1294 -91 989 -36 
Q 684 19 347 128 
L 347 722 
Q 666 556 975 473 
Q 1284 391 1588 391 
Q 1994 391 2212 530 
Q 2431 669 2431 922 
Q 2431 1156 2273 1281 
Q 2116 1406 1581 1522 
L 1381 1569 
Q 847 1681 609 1914 
Q 372 2147 372 2553 
Q 372 3047 722 3315 
Q 1072 3584 1716 3584 
Q 2034 3584 2315 3537 
Q 2597 3491 2834 3397 
z
" transform="scale(0.015625)"/>
        <path id="DejaVuSans-74" d="M 1172 4494 
L 1172 3500 
L 2356 3500 
L 2356 3053 
L 1172 3053 
L 1172 1153 
Q 1172 725 1289 603 
Q 1406 481 1766 481 
L 2356 481 
L 2356 0 
L 1766 0 
Q 1100 0 847 248 
Q 594 497 594 1153 
L 594 3053 
L 172 3053 
L 172 3500 
L 594 3500 
L 594 4494 
L 1172 4494 
z
" transform="scale(0.015625)"/>
       </defs>
       <use xlink:href="#DejaVuSans-41"/>
       <use xlink:href="#DejaVuSans-75" x="68.408203"/>
       <use xlink:href="#DejaVuSans-67" x="131.787109"/>
       <use xlink:href="#DejaVuSans-75" x="195.263672"/>
       <use xlink:href="#DejaVuSans-73" x="258.642578"/>
       <use xlink:href="#DejaVuSans-74" x="310.742188"/>
      </g>
     </g>
    </g>
    <g id="xtick_9">
     <g id="line2d_9">
      <g>
       <use xlink:href="#m75ebf38882" x="397.75948" y="316.078125" style="stroke: #000000; stroke-width: 0.8"/>
      </g>
     </g>
     <g id="text_9">
      <!-- September -->
      <g transform="translate(357.202487 367.537464) rotate(-45) scale(0.1 -0.1)">
       <defs>
        <path id="DejaVuSans-53" d="M 3425 4513 
L 3425 3897 
Q 3066 4069 2747 4153 
Q 2428 4238 2131 4238 
Q 1616 4238 1336 4038 
Q 1056 3838 1056 3469 
Q 1056 3159 1242 3001 
Q 1428 2844 1947 2747 
L 2328 2669 
Q 3034 2534 3370 2195 
Q 3706 1856 3706 1288 
Q 3706 609 3251 259 
Q 2797 -91 1919 -91 
Q 1588 -91 1214 -16 
Q 841 59 441 206 
L 441 856 
Q 825 641 1194 531 
Q 1563 422 1919 422 
Q 2459 422 2753 634 
Q 3047 847 3047 1241 
Q 3047 1584 2836 1778 
Q 2625 1972 2144 2069 
L 1759 2144 
Q 1053 2284 737 2584 
Q 422 2884 422 3419 
Q 422 4038 858 4394 
Q 1294 4750 2059 4750 
Q 2388 4750 2728 4690 
Q 3069 4631 3425 4513 
z
" transform="scale(0.015625)"/>
        <path id="DejaVuSans-6d" d="M 3328 2828 
Q 3544 3216 3844 3400 
Q 4144 3584 4550 3584 
Q 5097 3584 5394 3201 
Q 5691 2819 5691 2113 
L 5691 0 
L 5113 0 
L 5113 2094 
Q 5113 2597 4934 2840 
Q 4756 3084 4391 3084 
Q 3944 3084 3684 2787 
Q 3425 2491 3425 1978 
L 3425 0 
L 2847 0 
L 2847 2094 
Q 2847 2600 2669 2842 
Q 2491 3084 2119 3084 
Q 1678 3084 1418 2786 
Q 1159 2488 1159 1978 
L 1159 0 
L 581 0 
L 581 3500 
L 1159 3500 
L 1159 2956 
Q 1356 3278 1631 3431 
Q 1906 3584 2284 3584 
Q 2666 3584 2933 3390 
Q 3200 3197 3328 2828 
z
" transform="scale(0.015625)"/>
       </defs>
       <use xlink:href="#DejaVuSans-53"/>
       <use xlink:href="#DejaVuSans-65" x="63.476562"/>
       <use xlink:href="#DejaVuSans-70" x="125"/>
       <use xlink:href="#DejaVuSans-74" x="188.476562"/>
       <use xlink:href="#DejaVuSans-65" x="227.685547"/>
       <use xlink:href="#DejaVuSans-6d" x="289.208984"/>
       <use xlink:href="#DejaVuSans-62" x="386.621094"/>
       <use xlink:href="#DejaVuSans-65" x="450.097656"/>
       <use xlink:href="#DejaVuSans-72" x="511.621094"/>
      </g>
     </g>
    </g>
    <g id="xtick_10">
     <g id="line2d_10">
      <g>
       <use xlink:href="#m75ebf38882" x="439.453129" y="316.078125" style="stroke: #000000; stroke-width: 0.8"/>
      </g>
     </g>
     <g id="text_10">
      <!-- October -->
      <g transform="translate(409.682829 356.750771) rotate(-45) scale(0.1 -0.1)">
       <defs>
        <path id="DejaVuSans-4f" d="M 2522 4238 
Q 1834 4238 1429 3725 
Q 1025 3213 1025 2328 
Q 1025 1447 1429 934 
Q 1834 422 2522 422 
Q 3209 422 3611 934 
Q 4013 1447 4013 2328 
Q 4013 3213 3611 3725 
Q 3209 4238 2522 4238 
z
M 2522 4750 
Q 3503 4750 4090 4092 
Q 4678 3434 4678 2328 
Q 4678 1225 4090 567 
Q 3503 -91 2522 -91 
Q 1538 -91 948 565 
Q 359 1222 359 2328 
Q 359 3434 948 4092 
Q 1538 4750 2522 4750 
z
" transform="scale(0.015625)"/>
        <path id="DejaVuSans-6f" d="M 1959 3097 
Q 1497 3097 1228 2736 
Q 959 2375 959 1747 
Q 959 1119 1226 758 
Q 1494 397 1959 397 
Q 2419 397 2687 759 
Q 2956 1122 2956 1747 
Q 2956 2369 2687 2733 
Q 2419 3097 1959 3097 
z
M 1959 3584 
Q 2709 3584 3137 3096 
Q 3566 2609 3566 1747 
Q 3566 888 3137 398 
Q 2709 -91 1959 -91 
Q 1206 -91 779 398 
Q 353 888 353 1747 
Q 353 2609 779 3096 
Q 1206 3584 1959 3584 
z
" transform="scale(0.015625)"/>
       </defs>
       <use xlink:href="#DejaVuSans-4f"/>
       <use xlink:href="#DejaVuSans-63" x="78.710938"/>
       <use xlink:href="#DejaVuSans-74" x="133.691406"/>
       <use xlink:href="#DejaVuSans-6f" x="172.900391"/>
       <use xlink:href="#DejaVuSans-62" x="234.082031"/>
       <use xlink:href="#DejaVuSans-65" x="297.558594"/>
       <use xlink:href="#DejaVuSans-72" x="359.082031"/>
      </g>
     </g>
    </g>
    <g id="xtick_11">
     <g id="line2d_11">
      <g>
       <use xlink:href="#m75ebf38882" x="482.536566" y="316.078125" style="stroke: #000000; stroke-width: 0.8"/>
      </g>
     </g>
     <g id="text_11">
      <!-- November -->
      <g transform="translate(444.278775 365.238262) rotate(-45) scale(0.1 -0.1)">
       <defs>
        <path id="DejaVuSans-4e" d="M 628 4666 
L 1478 4666 
L 3547 763 
L 3547 4666 
L 4159 4666 
L 4159 0 
L 3309 0 
L 1241 3903 
L 1241 0 
L 628 0 
L 628 4666 
z
" transform="scale(0.015625)"/>
        <path id="DejaVuSans-76" d="M 191 3500 
L 800 3500 
L 1894 563 
L 2988 3500 
L 3597 3500 
L 2284 0 
L 1503 0 
L 191 3500 
z
" transform="scale(0.015625)"/>
       </defs>
       <use xlink:href="#DejaVuSans-4e"/>
       <use xlink:href="#DejaVuSans-6f" x="74.804688"/>
       <use xlink:href="#DejaVuSans-76" x="135.986328"/>
       <use xlink:href="#DejaVuSans-65" x="195.166016"/>
       <use xlink:href="#DejaVuSans-6d" x="256.689453"/>
       <use xlink:href="#DejaVuSans-62" x="354.101562"/>
       <use xlink:href="#DejaVuSans-65" x="417.578125"/>
       <use xlink:href="#DejaVuSans-72" x="479.101562"/>
      </g>
     </g>
    </g>
    <g id="xtick_12">
     <g id="line2d_12">
      <g>
       <use xlink:href="#m75ebf38882" x="524.230215" y="316.078125" style="stroke: #000000; stroke-width: 0.8"/>
      </g>
     </g>
     <g id="text_12">
      <!-- December -->
      <g transform="translate(486.090643 365.120043) rotate(-45) scale(0.1 -0.1)">
       <defs>
        <path id="DejaVuSans-44" d="M 1259 4147 
L 1259 519 
L 2022 519 
Q 2988 519 3436 956 
Q 3884 1394 3884 2338 
Q 3884 3275 3436 3711 
Q 2988 4147 2022 4147 
L 1259 4147 
z
M 628 4666 
L 1925 4666 
Q 3281 4666 3915 4102 
Q 4550 3538 4550 2338 
Q 4550 1131 3912 565 
Q 3275 0 1925 0 
L 628 0 
L 628 4666 
z
" transform="scale(0.015625)"/>
       </defs>
       <use xlink:href="#DejaVuSans-44"/>
       <use xlink:href="#DejaVuSans-65" x="77.001953"/>
       <use xlink:href="#DejaVuSans-63" x="138.525391"/>
       <use xlink:href="#DejaVuSans-65" x="193.505859"/>
       <use xlink:href="#DejaVuSans-6d" x="255.029297"/>
       <use xlink:href="#DejaVuSans-62" x="352.441406"/>
       <use xlink:href="#DejaVuSans-65" x="415.917969"/>
       <use xlink:href="#DejaVuSans-72" x="477.441406"/>
      </g>
     </g>
    </g>
    <g id="text_13">
     <!-- date -->
     <g transform="translate(301.0125 380.606463) scale(0.1 -0.1)">
      <defs>
       <path id="DejaVuSans-64" d="M 2906 2969 
L 2906 4863 
L 3481 4863 
L 3481 0 
L 2906 0 
L 2906 525 
Q 2725 213 2448 61 
Q 2172 -91 1784 -91 
Q 1150 -91 751 415 
Q 353 922 353 1747 
Q 353 2572 751 3078 
Q 1150 3584 1784 3584 
Q 2172 3584 2448 3432 
Q 2725 3281 2906 2969 
z
M 947 1747 
Q 947 1113 1208 752 
Q 1469 391 1925 391 
Q 2381 391 2643 752 
Q 2906 1113 2906 1747 
Q 2906 2381 2643 2742 
Q 2381 3103 1925 3103 
Q 1469 3103 1208 2742 
Q 947 2381 947 1747 
z
" transform="scale(0.015625)"/>
      </defs>
      <use xlink:href="#DejaVuSans-64"/>
      <use xlink:href="#DejaVuSans-61" x="63.476562"/>
      <use xlink:href="#DejaVuSans-74" x="124.755859"/>
      <use xlink:href="#DejaVuSans-65" x="163.964844"/>
     </g>
    </g>
   </g>
   <g id="matplotlib.axis_2">
    <g id="ytick_1">
     <g id="line2d_13">
      <defs>
       <path id="m806173b566" d="M 0 0 
L -3.5 0 
" style="stroke: #000000; stroke-width: 0.8"/>
      </defs>
      <g>
       <use xlink:href="#m806173b566" x="33.2875" y="255.598125" style="stroke: #000000; stroke-width: 0.8"/>
      </g>
     </g>
     <g id="text_14">
      <!-- 40 -->
      <g transform="translate(13.5625 259.397344) scale(0.1 -0.1)">
       <defs>
        <path id="DejaVuSans-34" d="M 2419 4116 
L 825 1625 
L 2419 1625 
L 2419 4116 
z
M 2253 4666 
L 3047 4666 
L 3047 1625 
L 3713 1625 
L 3713 1100 
L 3047 1100 
L 3047 0 
L 2419 0 
L 2419 1100 
L 313 1100 
L 313 1709 
L 2253 4666 
z
" transform="scale(0.015625)"/>
        <path id="DejaVuSans-30" d="M 2034 4250 
Q 1547 4250 1301 3770 
Q 1056 3291 1056 2328 
Q 1056 1369 1301 889 
Q 1547 409 2034 409 
Q 2525 409 2770 889 
Q 3016 1369 3016 2328 
Q 3016 3291 2770 3770 
Q 2525 4250 2034 4250 
z
M 2034 4750 
Q 2819 4750 3233 4129 
Q 3647 3509 3647 2328 
Q 3647 1150 3233 529 
Q 2819 -91 2034 -91 
Q 1250 -91 836 529 
Q 422 1150 422 2328 
Q 422 3509 836 4129 
Q 1250 4750 2034 4750 
z
" transform="scale(0.015625)"/>
       </defs>
       <use xlink:href="#DejaVuSans-34"/>
       <use xlink:href="#DejaVuSans-30" x="63.623047"/>
      </g>
     </g>
    </g>
    <g id="ytick_2">
     <g id="line2d_14">
      <g>
       <use xlink:href="#m806173b566" x="33.2875" y="192.761761" style="stroke: #000000; stroke-width: 0.8"/>
      </g>
     </g>
     <g id="text_15">
      <!-- 60 -->
      <g transform="translate(13.5625 196.56098) scale(0.1 -0.1)">
       <defs>
        <path id="DejaVuSans-36" d="M 2113 2584 
Q 1688 2584 1439 2293 
Q 1191 2003 1191 1497 
Q 1191 994 1439 701 
Q 1688 409 2113 409 
Q 2538 409 2786 701 
Q 3034 994 3034 1497 
Q 3034 2003 2786 2293 
Q 2538 2584 2113 2584 
z
M 3366 4563 
L 3366 3988 
Q 3128 4100 2886 4159 
Q 2644 4219 2406 4219 
Q 1781 4219 1451 3797 
Q 1122 3375 1075 2522 
Q 1259 2794 1537 2939 
Q 1816 3084 2150 3084 
Q 2853 3084 3261 2657 
Q 3669 2231 3669 1497 
Q 3669 778 3244 343 
Q 2819 -91 2113 -91 
Q 1303 -91 875 529 
Q 447 1150 447 2328 
Q 447 3434 972 4092 
Q 1497 4750 2381 4750 
Q 2619 4750 2861 4703 
Q 3103 4656 3366 4563 
z
" transform="scale(0.015625)"/>
       </defs>
       <use xlink:href="#DejaVuSans-36"/>
       <use xlink:href="#DejaVuSans-30" x="63.623047"/>
      </g>
     </g>
    </g>
    <g id="ytick_3">
     <g id="line2d_15">
      <g>
       <use xlink:href="#m806173b566" x="33.2875" y="129.925398" style="stroke: #000000; stroke-width: 0.8"/>
      </g>
     </g>
     <g id="text_16">
      <!-- 80 -->
      <g transform="translate(13.5625 133.724616) scale(0.1 -0.1)">
       <defs>
        <path id="DejaVuSans-38" d="M 2034 2216 
Q 1584 2216 1326 1975 
Q 1069 1734 1069 1313 
Q 1069 891 1326 650 
Q 1584 409 2034 409 
Q 2484 409 2743 651 
Q 3003 894 3003 1313 
Q 3003 1734 2745 1975 
Q 2488 2216 2034 2216 
z
M 1403 2484 
Q 997 2584 770 2862 
Q 544 3141 544 3541 
Q 544 4100 942 4425 
Q 1341 4750 2034 4750 
Q 2731 4750 3128 4425 
Q 3525 4100 3525 3541 
Q 3525 3141 3298 2862 
Q 3072 2584 2669 2484 
Q 3125 2378 3379 2068 
Q 3634 1759 3634 1313 
Q 3634 634 3220 271 
Q 2806 -91 2034 -91 
Q 1263 -91 848 271 
Q 434 634 434 1313 
Q 434 1759 690 2068 
Q 947 2378 1403 2484 
z
M 1172 3481 
Q 1172 3119 1398 2916 
Q 1625 2713 2034 2713 
Q 2441 2713 2670 2916 
Q 2900 3119 2900 3481 
Q 2900 3844 2670 4047 
Q 2441 4250 2034 4250 
Q 1625 4250 1398 4047 
Q 1172 3844 1172 3481 
z
" transform="scale(0.015625)"/>
       </defs>
       <use xlink:href="#DejaVuSans-38"/>
       <use xlink:href="#DejaVuSans-30" x="63.623047"/>
      </g>
     </g>
    </g>
    <g id="ytick_4">
     <g id="line2d_16">
      <g>
       <use xlink:href="#m806173b566" x="33.2875" y="67.089034" style="stroke: #000000; stroke-width: 0.8"/>
      </g>
     </g>
     <g id="text_17">
      <!-- 100 -->
      <g transform="translate(7.2 70.888253) scale(0.1 -0.1)">
       <defs>
        <path id="DejaVuSans-31" d="M 794 531 
L 1825 531 
L 1825 4091 
L 703 3866 
L 703 4441 
L 1819 4666 
L 2450 4666 
L 2450 531 
L 3481 531 
L 3481 0 
L 794 0 
L 794 531 
z
" transform="scale(0.015625)"/>
       </defs>
       <use xlink:href="#DejaVuSans-31"/>
       <use xlink:href="#DejaVuSans-30" x="63.623047"/>
       <use xlink:href="#DejaVuSans-30" x="127.246094"/>
      </g>
     </g>
    </g>
   </g>
   <g id="line2d_17">
    <path d="M 58.651136 136.209034 
L 60.040925 120.499943 
L 61.430713 148.776307 
L 62.820501 148.776307 
L 64.21029 170.769034 
L 65.600078 133.067216 
L 66.989866 142.49267 
L 68.379654 170.769034 
L 69.769443 155.059943 
L 71.159231 126.78358 
L 72.549019 136.209034 
L 73.938808 167.627216 
L 75.328596 186.478125 
L 76.718384 177.05267 
L 78.108172 145.634489 
L 79.497961 136.209034 
L 80.887749 129.925398 
L 82.277537 139.350852 
L 83.667326 170.769034 
L 85.057114 199.045398 
L 86.446902 189.619943 
L 87.836691 189.619943 
L 89.226479 192.761761 
L 90.616267 211.61267 
L 92.006055 205.329034 
L 94.785632 205.329034 
L 96.17542 195.90358 
L 97.565209 145.634489 
L 98.954997 252.456307 
L 100.344785 277.590852 
L 101.734573 277.590852 
L 103.124362 252.456307 
L 104.51415 224.179943 
L 105.903938 183.336307 
L 107.293727 151.918125 
L 108.683515 142.49267 
L 110.073303 158.201761 
L 111.463092 192.761761 
L 112.85288 151.918125 
L 114.242668 205.329034 
L 115.632456 195.90358 
L 117.022245 180.194489 
L 118.412033 158.201761 
L 119.801821 129.925398 
L 121.19161 129.925398 
L 122.581398 158.201761 
L 123.971186 214.754489 
L 125.360974 205.329034 
L 126.750763 145.634489 
L 128.140551 126.78358 
L 129.530339 123.641761 
L 130.920128 98.507216 
L 132.309916 133.067216 
L 133.699704 202.187216 
L 135.089493 180.194489 
L 136.479281 126.78358 
L 137.869069 126.78358 
L 139.258857 120.499943 
L 142.038434 117.358125 
L 143.428222 126.78358 
L 144.818011 151.918125 
L 146.207799 136.209034 
L 147.597587 136.209034 
L 148.987375 126.78358 
L 150.377164 129.925398 
L 151.766952 129.925398 
L 153.15674 117.358125 
L 154.546529 151.918125 
L 155.936317 104.790852 
L 157.326105 148.776307 
L 158.715894 167.627216 
L 160.105682 170.769034 
L 162.885258 126.78358 
L 164.275047 202.187216 
L 165.664835 214.754489 
L 167.054623 195.90358 
L 168.444412 205.329034 
L 169.8342 164.485398 
L 171.223988 136.209034 
L 172.613776 126.78358 
L 174.003565 111.074489 
L 175.393353 126.78358 
L 176.783141 129.925398 
L 178.17293 139.350852 
L 179.562718 161.34358 
L 180.952506 155.059943 
L 182.342295 142.49267 
L 183.732083 111.074489 
L 185.121871 126.78358 
L 186.511659 117.358125 
L 187.901448 98.507216 
L 189.291236 111.074489 
L 190.681024 145.634489 
L 192.070813 202.187216 
L 193.460601 211.61267 
L 194.850389 186.478125 
L 196.240177 155.059943 
L 197.629966 158.201761 
L 200.409542 139.350852 
L 203.189119 133.067216 
L 204.578907 95.365398 
L 205.968696 151.918125 
L 207.358484 139.350852 
L 208.748272 133.067216 
L 210.13806 129.925398 
L 211.527849 107.93267 
L 212.917637 136.209034 
L 214.307425 136.209034 
L 215.697214 173.910852 
L 217.087002 164.485398 
L 218.47679 145.634489 
L 219.866578 117.358125 
L 221.256367 129.925398 
L 222.646155 120.499943 
L 224.035943 145.634489 
L 225.425732 111.074489 
L 228.205308 129.925398 
L 229.595097 117.358125 
L 230.984885 120.499943 
L 232.374673 95.365398 
L 233.764461 101.649034 
L 235.15425 117.358125 
L 236.544038 98.507216 
L 237.933826 139.350852 
L 239.323615 126.78358 
L 240.713403 101.649034 
L 242.103191 107.93267 
L 243.492979 142.49267 
L 244.882768 117.358125 
L 247.662344 117.358125 
L 249.052133 104.790852 
L 251.831709 98.507216 
L 253.221498 117.358125 
L 254.611286 148.776307 
L 256.001074 114.216307 
L 257.390862 101.649034 
L 258.780651 120.499943 
L 260.170439 114.216307 
L 262.950016 107.93267 
L 264.339804 114.216307 
L 265.729592 111.074489 
L 267.11938 101.649034 
L 268.509169 101.649034 
L 269.898957 95.365398 
L 271.288745 101.649034 
L 272.678534 95.365398 
L 274.068322 123.641761 
L 275.45811 107.93267 
L 278.237687 101.649034 
L 279.627475 101.649034 
L 281.017263 76.514489 
L 282.407052 82.798125 
L 283.79684 79.656307 
L 286.576417 85.939943 
L 287.966205 85.939943 
L 289.355993 73.37267 
L 290.745781 67.089034 
L 292.13557 82.798125 
L 293.525358 60.805398 
L 294.915146 63.947216 
L 296.304935 60.805398 
L 297.694723 60.805398 
L 299.084511 92.22358 
L 301.864088 73.37267 
L 303.253876 73.37267 
L 304.643664 70.230852 
L 306.033453 70.230852 
L 308.813029 76.514489 
L 310.202818 76.514489 
L 311.592606 70.230852 
L 312.982394 82.798125 
L 314.372182 79.656307 
L 315.761971 85.939943 
L 317.151759 82.798125 
L 318.541547 104.790852 
L 319.931336 92.22358 
L 321.321124 70.230852 
L 324.1007 63.947216 
L 325.490489 63.947216 
L 326.880277 51.379943 
L 329.659854 57.66358 
L 331.049642 54.521761 
L 332.43943 57.66358 
L 336.608795 57.66358 
L 339.388372 63.947216 
L 340.77816 57.66358 
L 342.167948 57.66358 
L 343.557737 63.947216 
L 346.337313 63.947216 
L 347.727101 70.230852 
L 349.11689 70.230852 
L 350.506678 63.947216 
L 351.896466 60.805398 
L 353.286255 54.521761 
L 354.676043 57.66358 
L 356.065831 51.379943 
L 357.45562 57.66358 
L 358.845408 51.379943 
L 360.235196 48.238125 
L 361.624984 51.379943 
L 363.014773 48.238125 
L 364.404561 48.238125 
L 365.794349 41.954489 
L 367.184138 45.096307 
L 368.573926 45.096307 
L 369.963714 48.238125 
L 371.353502 48.238125 
L 372.743291 45.096307 
L 374.133079 60.805398 
L 375.522867 51.379943 
L 376.912656 38.81267 
L 378.302444 45.096307 
L 379.692232 48.238125 
L 381.082021 45.096307 
L 382.471809 48.238125 
L 383.861597 67.089034 
L 386.641174 48.238125 
L 388.030962 45.096307 
L 389.42075 48.238125 
L 390.810539 35.670852 
L 392.200327 60.805398 
L 393.590115 67.089034 
L 394.979903 63.947216 
L 396.369692 57.66358 
L 397.75948 63.947216 
L 399.149268 60.805398 
L 400.539057 60.805398 
L 401.928845 57.66358 
L 403.318633 51.379943 
L 404.708422 57.66358 
L 406.09821 48.238125 
L 407.487998 45.096307 
L 408.877786 54.521761 
L 410.267575 67.089034 
L 411.657363 70.230852 
L 414.43694 95.365398 
L 415.826728 76.514489 
L 417.216516 92.22358 
L 418.606304 111.074489 
L 419.996093 85.939943 
L 421.385881 76.514489 
L 422.775669 76.514489 
L 424.165458 70.230852 
L 425.555246 73.37267 
L 426.945034 67.089034 
L 428.334823 63.947216 
L 429.724611 57.66358 
L 431.114399 70.230852 
L 432.504187 76.514489 
L 433.893976 85.939943 
L 435.283764 79.656307 
L 436.673552 76.514489 
L 438.063341 76.514489 
L 440.842917 82.798125 
L 442.232705 76.514489 
L 443.622494 67.089034 
L 445.012282 126.78358 
L 446.40207 101.649034 
L 447.791859 139.350852 
L 450.571435 114.216307 
L 451.961224 126.78358 
L 453.351012 151.918125 
L 454.7408 111.074489 
L 456.130588 89.081761 
L 457.520377 136.209034 
L 458.910165 142.49267 
L 460.299953 145.634489 
L 461.689742 136.209034 
L 463.07953 117.358125 
L 464.469318 101.649034 
L 465.859106 73.37267 
L 467.248895 82.798125 
L 468.638683 98.507216 
L 470.028471 117.358125 
L 471.41826 126.78358 
L 472.808048 111.074489 
L 474.197836 133.067216 
L 475.587625 107.93267 
L 476.977413 104.790852 
L 478.367201 136.209034 
L 479.756989 227.321761 
L 481.146778 189.619943 
L 482.536566 192.761761 
L 483.926354 170.769034 
L 485.316143 142.49267 
L 486.705931 133.067216 
L 489.485507 126.78358 
L 490.875296 114.216307 
L 492.265084 120.499943 
L 493.654872 136.209034 
L 495.044661 199.045398 
L 496.434449 186.478125 
L 497.824237 186.478125 
L 500.603814 155.059943 
L 501.993602 148.776307 
L 503.38339 183.336307 
L 504.773179 123.641761 
L 506.162967 161.34358 
L 507.552755 170.769034 
L 508.942544 117.358125 
L 510.332332 189.619943 
L 511.72212 170.769034 
L 513.111908 195.90358 
L 514.501697 173.910852 
L 515.891485 189.619943 
L 517.281273 202.187216 
L 518.671062 205.329034 
L 520.06085 183.336307 
L 521.450638 177.05267 
L 522.840427 148.776307 
L 524.230215 161.34358 
L 525.620003 161.34358 
L 527.009791 148.776307 
L 528.39958 164.485398 
L 529.789368 148.776307 
L 531.179156 164.485398 
L 532.568945 151.918125 
L 535.348521 139.350852 
L 536.738309 195.90358 
L 538.128098 177.05267 
L 539.517886 161.34358 
L 540.907674 202.187216 
L 542.297463 164.485398 
L 543.687251 177.05267 
L 545.077039 177.05267 
L 546.466828 158.201761 
L 547.856616 164.485398 
L 549.246404 164.485398 
L 550.636192 151.918125 
L 552.025981 180.194489 
L 553.415769 155.059943 
L 554.805557 155.059943 
L 556.195346 145.634489 
L 557.585134 199.045398 
L 558.974922 192.761761 
L 560.36471 177.05267 
L 561.754499 189.619943 
L 563.144287 189.619943 
L 564.534075 164.485398 
L 565.923864 151.918125 
L 565.923864 151.918125 
" clip-path="url(#p5e0f2cb062)" style="fill: none; stroke: #000000; stroke-width: 1.5; stroke-linecap: square"/>
   </g>
   <g id="line2d_18">
    <path d="M 58.651136 199.045398 
L 60.040925 214.754489 
L 61.430713 221.038125 
L 62.820501 199.045398 
L 64.21029 170.769034 
L 65.600078 180.194489 
L 66.989866 177.05267 
L 68.379654 145.634489 
L 69.769443 202.187216 
L 71.159231 170.769034 
L 72.549019 148.776307 
L 73.938808 167.627216 
L 75.328596 183.336307 
L 76.718384 268.165398 
L 78.108172 302.725398 
L 79.497961 274.449034 
L 80.887749 236.747216 
L 82.277537 136.209034 
L 83.667326 227.321761 
L 85.057114 249.314489 
L 86.446902 252.456307 
L 87.836691 199.045398 
L 89.226479 192.761761 
L 90.616267 202.187216 
L 92.006055 192.761761 
L 93.395844 202.187216 
L 94.785632 183.336307 
L 96.17542 173.910852 
L 97.565209 158.201761 
L 98.954997 148.776307 
L 100.344785 151.918125 
L 101.734573 151.918125 
L 103.124362 167.627216 
L 104.51415 155.059943 
L 107.293727 180.194489 
L 108.683515 164.485398 
L 112.85288 145.634489 
L 114.242668 173.910852 
L 115.632456 192.761761 
L 117.022245 189.619943 
L 118.412033 170.769034 
L 121.19161 164.485398 
L 122.581398 151.918125 
L 123.971186 217.896307 
L 125.360974 211.61267 
L 126.750763 167.627216 
L 128.140551 133.067216 
L 129.530339 139.350852 
L 130.920128 107.93267 
L 132.309916 145.634489 
L 135.089493 120.499943 
L 136.479281 123.641761 
L 137.869069 129.925398 
L 139.258857 161.34358 
L 140.648646 227.321761 
L 142.038434 167.627216 
L 143.428222 126.78358 
L 144.818011 129.925398 
L 146.207799 120.499943 
L 147.597587 95.365398 
L 150.377164 145.634489 
L 151.766952 120.499943 
L 153.15674 186.478125 
L 154.546529 170.769034 
L 155.936317 151.918125 
L 157.326105 139.350852 
L 158.715894 117.358125 
L 161.49547 142.49267 
L 162.885258 145.634489 
L 164.275047 173.910852 
L 165.664835 177.05267 
L 168.444412 170.769034 
L 169.8342 180.194489 
L 171.223988 133.067216 
L 172.613776 151.918125 
L 174.003565 151.918125 
L 175.393353 133.067216 
L 176.783141 173.910852 
L 178.17293 170.769034 
L 179.562718 142.49267 
L 180.952506 136.209034 
L 182.342295 139.350852 
L 183.732083 133.067216 
L 185.121871 123.641761 
L 186.511659 145.634489 
L 187.901448 126.78358 
L 189.291236 111.074489 
L 190.681024 114.216307 
L 192.070813 133.067216 
L 193.460601 126.78358 
L 194.850389 129.925398 
L 196.240177 114.216307 
L 197.629966 161.34358 
L 199.019754 123.641761 
L 200.409542 126.78358 
L 201.799331 126.78358 
L 203.189119 120.499943 
L 204.578907 117.358125 
L 205.968696 133.067216 
L 207.358484 120.499943 
L 208.748272 101.649034 
L 210.13806 142.49267 
L 211.527849 158.201761 
L 212.917637 161.34358 
L 214.307425 151.918125 
L 215.697214 148.776307 
L 217.087002 117.358125 
L 218.47679 123.641761 
L 219.866578 114.216307 
L 221.256367 117.358125 
L 222.646155 126.78358 
L 224.035943 101.649034 
L 225.425732 107.93267 
L 226.81552 129.925398 
L 228.205308 129.925398 
L 229.595097 142.49267 
L 230.984885 129.925398 
L 232.374673 126.78358 
L 233.764461 107.93267 
L 235.15425 98.507216 
L 236.544038 101.649034 
L 237.933826 92.22358 
L 239.323615 111.074489 
L 240.713403 120.499943 
L 242.103191 145.634489 
L 243.492979 129.925398 
L 244.882768 92.22358 
L 246.272556 85.939943 
L 247.662344 120.499943 
L 249.052133 111.074489 
L 250.441921 79.656307 
L 251.831709 92.22358 
L 253.221498 85.939943 
L 254.611286 82.798125 
L 256.001074 82.798125 
L 257.390862 89.081761 
L 258.780651 73.37267 
L 260.170439 70.230852 
L 261.560227 79.656307 
L 262.950016 73.37267 
L 264.339804 104.790852 
L 265.729592 92.22358 
L 267.11938 89.081761 
L 268.509169 98.507216 
L 269.898957 95.365398 
L 271.288745 85.939943 
L 272.678534 82.798125 
L 274.068322 73.37267 
L 275.45811 95.365398 
L 276.847899 76.514489 
L 279.627475 82.798125 
L 281.017263 79.656307 
L 282.407052 82.798125 
L 283.79684 79.656307 
L 285.186628 92.22358 
L 286.576417 76.514489 
L 287.966205 76.514489 
L 289.355993 79.656307 
L 290.745781 76.514489 
L 292.13557 79.656307 
L 293.525358 79.656307 
L 294.915146 126.78358 
L 296.304935 95.365398 
L 297.694723 92.22358 
L 299.084511 85.939943 
L 300.4743 85.939943 
L 301.864088 79.656307 
L 304.643664 79.656307 
L 306.033453 73.37267 
L 307.423241 76.514489 
L 308.813029 70.230852 
L 310.202818 76.514489 
L 311.592606 73.37267 
L 312.982394 67.089034 
L 314.372182 73.37267 
L 317.151759 67.089034 
L 318.541547 70.230852 
L 319.931336 85.939943 
L 321.321124 89.081761 
L 322.710912 79.656307 
L 324.1007 76.514489 
L 325.490489 82.798125 
L 326.880277 107.93267 
L 328.270065 101.649034 
L 329.659854 92.22358 
L 331.049642 79.656307 
L 332.43943 76.514489 
L 335.219007 82.798125 
L 336.608795 89.081761 
L 337.998583 82.798125 
L 339.388372 79.656307 
L 340.77816 95.365398 
L 342.167948 123.641761 
L 343.557737 101.649034 
L 344.947525 104.790852 
L 346.337313 101.649034 
L 347.727101 111.074489 
L 347.727101 111.074489 
" clip-path="url(#p5e0f2cb062)" style="fill: none; stroke: #ff0000; stroke-width: 1.5; stroke-linecap: square"/>
   </g>
   <g id="patch_3">
    <path d="M 33.2875 316.078125 
L 33.2875 22.318125 
" style="fill: none; stroke: #000000; stroke-width: 0.8; stroke-linejoin: miter; stroke-linecap: square"/>
   </g>
   <g id="patch_4">
    <path d="M 591.2875 316.078125 
L 591.2875 22.318125 
" style="fill: none; stroke: #000000; stroke-width: 0.8; stroke-linejoin: miter; stroke-linecap: square"/>
   </g>
   <g id="patch_5">
    <path d="M 33.2875 316.078125 
L 591.2875 316.078125 
" style="fill: none; stroke: #000000; stroke-width: 0.8; stroke-linejoin: miter; stroke-linecap: square"/>
   </g>
   <g id="patch_6">
    <path d="M 33.2875 22.318125 
L 591.2875 22.318125 
" style="fill: none; stroke: #000000; stroke-width: 0.8; stroke-linejoin: miter; stroke-linecap: square"/>
   </g>
   <g id="text_18">
    <!-- Max Daily Temperatures Recorded in the Austin-Bergstrom Airport Area -->
    <g transform="translate(98.320938 16.318125) scale(0.12 -0.12)">
     <defs>
      <path id="DejaVuSans-78" d="M 3513 3500 
L 2247 1797 
L 3578 0 
L 2900 0 
L 1881 1375 
L 863 0 
L 184 0 
L 1544 1831 
L 300 3500 
L 978 3500 
L 1906 2253 
L 2834 3500 
L 3513 3500 
z
" transform="scale(0.015625)"/>
      <path id="DejaVuSans-20" transform="scale(0.015625)"/>
      <path id="DejaVuSans-54" d="M -19 4666 
L 3928 4666 
L 3928 4134 
L 2272 4134 
L 2272 0 
L 1638 0 
L 1638 4134 
L -19 4134 
L -19 4666 
z
" transform="scale(0.015625)"/>
      <path id="DejaVuSans-52" d="M 2841 2188 
Q 3044 2119 3236 1894 
Q 3428 1669 3622 1275 
L 4263 0 
L 3584 0 
L 2988 1197 
Q 2756 1666 2539 1819 
Q 2322 1972 1947 1972 
L 1259 1972 
L 1259 0 
L 628 0 
L 628 4666 
L 2053 4666 
Q 2853 4666 3247 4331 
Q 3641 3997 3641 3322 
Q 3641 2881 3436 2590 
Q 3231 2300 2841 2188 
z
M 1259 4147 
L 1259 2491 
L 2053 2491 
Q 2509 2491 2742 2702 
Q 2975 2913 2975 3322 
Q 2975 3731 2742 3939 
Q 2509 4147 2053 4147 
L 1259 4147 
z
" transform="scale(0.015625)"/>
      <path id="DejaVuSans-2d" d="M 313 2009 
L 1997 2009 
L 1997 1497 
L 313 1497 
L 313 2009 
z
" transform="scale(0.015625)"/>
      <path id="DejaVuSans-42" d="M 1259 2228 
L 1259 519 
L 2272 519 
Q 2781 519 3026 730 
Q 3272 941 3272 1375 
Q 3272 1813 3026 2020 
Q 2781 2228 2272 2228 
L 1259 2228 
z
M 1259 4147 
L 1259 2741 
L 2194 2741 
Q 2656 2741 2882 2914 
Q 3109 3088 3109 3444 
Q 3109 3797 2882 3972 
Q 2656 4147 2194 4147 
L 1259 4147 
z
M 628 4666 
L 2241 4666 
Q 2963 4666 3353 4366 
Q 3744 4066 3744 3513 
Q 3744 3084 3544 2831 
Q 3344 2578 2956 2516 
Q 3422 2416 3680 2098 
Q 3938 1781 3938 1306 
Q 3938 681 3513 340 
Q 3088 0 2303 0 
L 628 0 
L 628 4666 
z
" transform="scale(0.015625)"/>
     </defs>
     <use xlink:href="#DejaVuSans-4d"/>
     <use xlink:href="#DejaVuSans-61" x="86.279297"/>
     <use xlink:href="#DejaVuSans-78" x="147.558594"/>
     <use xlink:href="#DejaVuSans-20" x="206.738281"/>
     <use xlink:href="#DejaVuSans-44" x="238.525391"/>
     <use xlink:href="#DejaVuSans-61" x="315.527344"/>
     <use xlink:href="#DejaVuSans-69" x="376.806641"/>
     <use xlink:href="#DejaVuSans-6c" x="404.589844"/>
     <use xlink:href="#DejaVuSans-79" x="432.373047"/>
     <use xlink:href="#DejaVuSans-20" x="491.552734"/>
     <use xlink:href="#DejaVuSans-54" x="523.339844"/>
     <use xlink:href="#DejaVuSans-65" x="567.423828"/>
     <use xlink:href="#DejaVuSans-6d" x="628.947266"/>
     <use xlink:href="#DejaVuSans-70" x="726.359375"/>
     <use xlink:href="#DejaVuSans-65" x="789.835938"/>
     <use xlink:href="#DejaVuSans-72" x="851.359375"/>
     <use xlink:href="#DejaVuSans-61" x="892.472656"/>
     <use xlink:href="#DejaVuSans-74" x="953.751953"/>
     <use xlink:href="#DejaVuSans-75" x="992.960938"/>
     <use xlink:href="#DejaVuSans-72" x="1056.339844"/>
     <use xlink:href="#DejaVuSans-65" x="1095.203125"/>
     <use xlink:href="#DejaVuSans-73" x="1156.726562"/>
     <use xlink:href="#DejaVuSans-20" x="1208.826172"/>
     <use xlink:href="#DejaVuSans-52" x="1240.613281"/>
     <use xlink:href="#DejaVuSans-65" x="1305.595703"/>
     <use xlink:href="#DejaVuSans-63" x="1367.119141"/>
     <use xlink:href="#DejaVuSans-6f" x="1422.099609"/>
     <use xlink:href="#DejaVuSans-72" x="1483.28125"/>
     <use xlink:href="#DejaVuSans-64" x="1522.644531"/>
     <use xlink:href="#DejaVuSans-65" x="1586.121094"/>
     <use xlink:href="#DejaVuSans-64" x="1647.644531"/>
     <use xlink:href="#DejaVuSans-20" x="1711.121094"/>
     <use xlink:href="#DejaVuSans-69" x="1742.908203"/>
     <use xlink:href="#DejaVuSans-6e" x="1770.691406"/>
     <use xlink:href="#DejaVuSans-20" x="1834.070312"/>
     <use xlink:href="#DejaVuSans-74" x="1865.857422"/>
     <use xlink:href="#DejaVuSans-68" x="1905.066406"/>
     <use xlink:href="#DejaVuSans-65" x="1968.445312"/>
     <use xlink:href="#DejaVuSans-20" x="2029.96875"/>
     <use xlink:href="#DejaVuSans-41" x="2061.755859"/>
     <use xlink:href="#DejaVuSans-75" x="2130.164062"/>
     <use xlink:href="#DejaVuSans-73" x="2193.542969"/>
     <use xlink:href="#DejaVuSans-74" x="2245.642578"/>
     <use xlink:href="#DejaVuSans-69" x="2284.851562"/>
     <use xlink:href="#DejaVuSans-6e" x="2312.634766"/>
     <use xlink:href="#DejaVuSans-2d" x="2376.013672"/>
     <use xlink:href="#DejaVuSans-42" x="2408.472656"/>
     <use xlink:href="#DejaVuSans-65" x="2477.076172"/>
     <use xlink:href="#DejaVuSans-72" x="2538.599609"/>
     <use xlink:href="#DejaVuSans-67" x="2577.962891"/>
     <use xlink:href="#DejaVuSans-73" x="2641.439453"/>
     <use xlink:href="#DejaVuSans-74" x="2693.539062"/>
     <use xlink:href="#DejaVuSans-72" x="2732.748047"/>
     <use xlink:href="#DejaVuSans-6f" x="2771.611328"/>
     <use xlink:href="#DejaVuSans-6d" x="2832.792969"/>
     <use xlink:href="#DejaVuSans-20" x="2930.205078"/>
     <use xlink:href="#DejaVuSans-41" x="2961.992188"/>
     <use xlink:href="#DejaVuSans-69" x="3030.400391"/>
     <use xlink:href="#DejaVuSans-72" x="3058.183594"/>
     <use xlink:href="#DejaVuSans-70" x="3099.296875"/>
     <use xlink:href="#DejaVuSans-6f" x="3162.773438"/>
     <use xlink:href="#DejaVuSans-72" x="3223.955078"/>
     <use xlink:href="#DejaVuSans-74" x="3265.068359"/>
     <use xlink:href="#DejaVuSans-20" x="3304.277344"/>
     <use xlink:href="#DejaVuSans-41" x="3336.064453"/>
     <use xlink:href="#DejaVuSans-72" x="3404.472656"/>
     <use xlink:href="#DejaVuSans-65" x="3443.335938"/>
     <use xlink:href="#DejaVuSans-61" x="3504.859375"/>
    </g>
   </g>
   <g id="legend_1">
    <g id="patch_7">
     <path d="M 526.8375 59.674375 
L 584.2875 59.674375 
Q 586.2875 59.674375 586.2875 57.674375 
L 586.2875 29.318125 
Q 586.2875 27.318125 584.2875 27.318125 
L 526.8375 27.318125 
Q 524.8375 27.318125 524.8375 29.318125 
L 524.8375 57.674375 
Q 524.8375 59.674375 526.8375 59.674375 
z
" style="fill: #ffffff; opacity: 0.8; stroke: #cccccc; stroke-linejoin: miter"/>
    </g>
    <g id="patch_8">
     <path d="M 528.8375 38.916562 
L 548.8375 38.916562 
L 548.8375 31.916562 
L 528.8375 31.916562 
z
" style="stroke: #000000; stroke-linejoin: miter"/>
    </g>
    <g id="text_19">
     <!-- 2023 -->
     <g transform="translate(556.8375 38.916562) scale(0.1 -0.1)">
      <defs>
       <path id="DejaVuSans-32" d="M 1228 531 
L 3431 531 
L 3431 0 
L 469 0 
L 469 531 
Q 828 903 1448 1529 
Q 2069 2156 2228 2338 
Q 2531 2678 2651 2914 
Q 2772 3150 2772 3378 
Q 2772 3750 2511 3984 
Q 2250 4219 1831 4219 
Q 1534 4219 1204 4116 
Q 875 4013 500 3803 
L 500 4441 
Q 881 4594 1212 4672 
Q 1544 4750 1819 4750 
Q 2544 4750 2975 4387 
Q 3406 4025 3406 3419 
Q 3406 3131 3298 2873 
Q 3191 2616 2906 2266 
Q 2828 2175 2409 1742 
Q 1991 1309 1228 531 
z
" transform="scale(0.015625)"/>
       <path id="DejaVuSans-33" d="M 2597 2516 
Q 3050 2419 3304 2112 
Q 3559 1806 3559 1356 
Q 3559 666 3084 287 
Q 2609 -91 1734 -91 
Q 1441 -91 1130 -33 
Q 819 25 488 141 
L 488 750 
Q 750 597 1062 519 
Q 1375 441 1716 441 
Q 2309 441 2620 675 
Q 2931 909 2931 1356 
Q 2931 1769 2642 2001 
Q 2353 2234 1838 2234 
L 1294 2234 
L 1294 2753 
L 1863 2753 
Q 2328 2753 2575 2939 
Q 2822 3125 2822 3475 
Q 2822 3834 2567 4026 
Q 2313 4219 1838 4219 
Q 1578 4219 1281 4162 
Q 984 4106 628 3988 
L 628 4550 
Q 988 4650 1302 4700 
Q 1616 4750 1894 4750 
Q 2613 4750 3031 4423 
Q 3450 4097 3450 3541 
Q 3450 3153 3228 2886 
Q 3006 2619 2597 2516 
z
" transform="scale(0.015625)"/>
      </defs>
      <use xlink:href="#DejaVuSans-32"/>
      <use xlink:href="#DejaVuSans-30" x="63.623047"/>
      <use xlink:href="#DejaVuSans-32" x="127.246094"/>
      <use xlink:href="#DejaVuSans-33" x="190.869141"/>
     </g>
    </g>
    <g id="patch_9">
     <path d="M 528.8375 53.594688 
L 548.8375 53.594688 
L 548.8375 46.594688 
L 528.8375 46.594688 
z
" style="fill: #ff0000; stroke: #ff0000; stroke-linejoin: miter"/>
    </g>
    <g id="text_20">
     <!-- 2024 -->
     <g transform="translate(556.8375 53.594688) scale(0.1 -0.1)">
      <use xlink:href="#DejaVuSans-32"/>
      <use xlink:href="#DejaVuSans-30" x="63.623047"/>
      <use xlink:href="#DejaVuSans-32" x="127.246094"/>
      <use xlink:href="#DejaVuSans-34" x="190.869141"/>
     </g>
    </g>
   </g>
  </g>
 </g>
 <defs>
  <clipPath id="p5e0f2cb062">
   <rect x="33.2875" y="22.318125" width="558" height="293.76"/>
  </clipPath>
 </defs>
</svg>
